<mxfile host="Electron" modified="2024-02-06T00:22:55.448Z" agent="Mozilla/5.0 (X11; Linux x86_64) AppleWebKit/537.36 (KHTML, like Gecko) draw.io/23.0.2 Chrome/120.0.6099.109 Electron/28.1.0 Safari/537.36" etag="of4TonMbz4qg9meW0Eqv" version="23.0.2" type="device">
  <diagram name="PÃ¡gina-1" id="stNt7yubwj1MQXfRV4s7">
    <mxGraphModel dx="1388" dy="838" grid="1" gridSize="10" guides="1" tooltips="1" connect="1" arrows="1" fold="1" page="1" pageScale="1" pageWidth="827" pageHeight="1169" math="0" shadow="0">
      <root>
        <mxCell id="0" />
        <mxCell id="1" parent="0" />
        <mxCell id="Nc6yNPLuVAvdkW_GlvrS-1" value="" style="shape=image;verticalLabelPosition=bottom;labelBackgroundColor=default;verticalAlign=top;aspect=fixed;imageAspect=0;image=data:image/png,iVBORw0KGgoAAAANSUhEUgAAAU0AAAE6CAYAAACS1wC9AAAABHNCSVQICAgIfAhkiAAAABl0RVh0U29mdHdhcmUAZ25vbWUtc2NyZWVuc2hvdO8Dvz4AAAAmdEVYdENyZWF0aW9uIFRpbWUAc2VnIDA1IGZldiAyMDI0IDIxOjIwOjQ1osGlBwAAIABJREFUeJzsvXmQHced5/fJrKp3930DDaBxEgRA8QBJkBJJSdRIHI0oUofnkkYabcSEvRthx3odazvWjvGsY/9xhCMcXv85jvVs7HjGMeMZjaSxRI0oHiJB8AAvnMSNvoC+u193v7uqMv1H1Xuv3tmvcfAA3hfx0O/VkfnLrMxf/a78pfjx+C80AAiEoCk0Ak3wIuF//G+6+f1eGaBE4FO8Ge1/ylfqQFVSU1EzGgSiVG890jWgq4jyjlUdqHt3FTZqXCvllNrZrJxbQMutLAfRnORW2tQKPR9n39yKNt2qcQOfrr75NPVxK/S0VM4GtMCm+sbc+MpbDOHVrUQdBlYchELXtFEJj3FWX6o1CNGEaQauLR6rpqcVVJRTj0m3UE6p7ltRThXjvyXl1L2gtbKCl9V5TC3NxdvSJl2frpba1GBQiVbvr6anmhbhf2mxrJrrgn10p4wbUUlXS+OmFXpafd51xks1LWbliVYpvBGKau9q2CEaEKJCShS6tqZW3netvGQ2Qg2tVZ1bPthCWYHLhPCZ/qYpEgRfKzf61Dbsl5ZGrtcAQWVbtCi/vD0NpRmltZ1wq/umOCFLZ1poU/3SW4eu+lt3UhbVu2aTodGpuuOwGT5946bO18D3jcYNrUmIG9JTrFVX0KHrjWtEmWmWy64tuObh17mi3tunQnIWlR0ufWIqmXa5BlXRhLIKHuwjUfW3Pmli04y2zgu9yizRmlbwaSun9oZW3yjVtVU+B11n5BTPC388Fp9vQyGkzgC6lX0THPy6XGHD8nRggtW0vcHtdWkRomZel/pEB4tpTI8O9E29sd6Ib3ymxw2Vz6phdRuKvS3SI8rPPDheauhDY9bKxk1o2+BoPbWs+KX6nNQeJy/y+MrOrHNPnTdqI1tmxTXVFLfwvKvLbent2ko5ovwgWi7DJ+Bmy6nBZlUoXT14ypO+mpRGAzM4xFp5dhvS5Bfaat+UJ2EdIouHq/plM3TWG8eNHlOwTxoJQMW6S1JPnUncjJbP+rgpHtsUX2yGouBVh76WxrH/9+O3aQYJCHRoNYGGrmpEg8G76b5scRI0e0NuBhXl3CCjqCeVbbacDTUBGk/wuvQEJYIGUlfFy6/i5Vw7eOsRfCPPqdF9NcxSVzKrag2mRqO5xeOmuk+qGWcjeqr7fjO03IpxU3qun9C4uVlUM/DS93pCWVXVRXo+Eaa50Ruz7vHb0Gm1J4ticWVljSbhZgegaFB+sMxG9dVcqzVCiJZpqJYy6qluohUpnNrBXo/JBN/eFXWL+ve0WtdGaNQfJQ3Df3DaL1sHZmk9iajiN2xqHDZ8Nn79OjiIAoyznnRWzfBuZd80Qz3p9Ia0N27NuLlVaCQBV9NHgJbij7JNs0nDW+mQRr9KA7KFjq2tOHjHzfRa8MmI0iHHdcnncggpiUajSATSMNBKofy6BR6zK9KvlItWxQcsSmS10javHIFyXRzXxTRNDMMErXFdF62Ux1ibxH5pNEopymEDwmfGzfpnY+pEk6s2fCPfyAvtFr0EbxRBianYe9VaQQ1uFc1VzFIEZ2cDWm4xz7jj0PBleRPlBedE8BFVOIJupIK607WekWbTolk9am7oXVlVgsdotNZkM1nGJyawLIu9e/aAIQmbFo7roB3Xu14IpJRIQ6CVKjE3KSQSUS69pZeCQAqBEgK7UMAwDAzDQEqJnc74XSRq3+wBJqqVZ7eQUvrSikZIWfe+eu3fLOpJAhsyl88IROBvPQfjx0ZD1dyolmjbDLM5mr20hf/frRymlep5M3GjAUGtPuCiOlTdgLp2g9JxUXNdM9R7AYiq/72AeIlCkc1kuXjxIlJKdo3tBCHI5rIIIUvXK6VxnQJaK49B4Ul2HpuqlFiCRFZ3o9Ya5Si0IZBCEolEcWyHbCZJZ2cX2VyOcCiMMD2G3ghCCAzDxDTNktQppYFyFVqr+v3SoPOq7XytSJp1LxS154Iq1k2hSZ/eCtR9EbRAC7SoXbRKSLX02cotTRjtRtc3wmZNEDeL2oUmmxs3rTy7VptTj5ZiJTpw6OZtmi0+4NJbXfvhRML7LovEiMpJrLWo7JAWWi6CjfO5mQ4wNzQYhkQIiVaK9fU1Pnj/Q0KhEL/9tWcwhcDVGimKd3llSmlQ5EdFxllUq4pacpFGXUVLmTbvIrvgYDs2UkhMyyIatXBdh3AoBMJj0s1WZhmGgRCCQsEuqfv5Qr4kEVejkb2pps9bZ5l1Tle+NYMvwLKRoxXoCsZRr7LWJkALosdN0lJsVzN6vCFYG+ZSh6BN01Nb7wb27dKLcWNj28YUtTLpWymlvhFxs+NGi5vvYx34v/qWanrMSiWlGWHl7nRdl5AVQrkugqqVOoFyghUFaynGaBaZmaLMSKWUKK1KKlNt+fVpwy9TVw30YDkCMJBIIVEa8pkc5y9fIWSaZNNpkAJpmUjhqb4ojYEgubzCiQ8/YKCvn9HRUfr7+z27p2+DDBqrKyTPqm4VQhAOhZmcnOQ//d9/zVe+/CXPxqkUDz74IJ0dHR5TruS2FcNYK43jOgCcOHWSD0+cYPvoNr7y9JepnMTeN6W0N6jqOI02Ypgl/lJ1ulIKaPxwSi8vtBcDF7yvptzmE9EbuGVxrGGtdXS1at7XskLV4KJqrajOoy4dr66rtonlNpWu9V/G5ZtqmUut9K/RG6yD1hsxO3/gblTOjdoLqtlEPQ2mUvupM27qlNpQE6qQuKququpjUb3cOvCzLGB4DMZspQdK8ZS+LVApjWmYJBKdTE1MMD8zS3IliXIVnV2djGzZwuDgIKFwmFwu70lHgFOwcfIFZq9fZ2l+AUcr+gYH2LlnDwXlOUaUEOA4GIByHZYWFrk+PU02k6W7p5ve3l4G+gewLIvXXn+d8YlxsrkcBw4c4ND99xPr6ChJO0JrtOuytrrKG0ePsrK0TEdHJ4cOHWT7tm0szS3gLq+SDYdZmltkKBIlFAqBNFBKY6FZXVjmlZde4hcvvMCBe+7hX/3X/5JCJodpmQghsAsOCJCGgVIKpZUvQUbJ5fMU8oWSc0ejUVqzuLDER5cu88hDD3H67FkMaSCRLCwusHfPHu47eAjDMHAcBym952NIg1w+RzgcxjA8iTKXyjA9MUXEDCGR2AWbaDyG7ThorbBdx5N0ZPXAazx5qg+LqhFY80ZuAd6g20DG2ZBhln+VXpIt1F3NtLzpo2uPC1qya1YyylpaqvlbNcMMTt8yM9clzaR0rEl/VJcTpOemUGIkt0I/17W/ggIEjdpQfY+u6cONqi31YaCCyrVQtfTU/Awy1aD2JHRQPd+YeSqfIikl6+vr/O3/8zecPnmKlcUlctkchjCIxiJs2TLCkSNH+OKXvoztOCilCIdCLM3N88uf/4KLZ8+RWlklpxy6+np54OHD/M5zzxGKSYSUoGBubo43XnuNs6fOkFpfx3VdDCkJh8McefRRnv3GN8B2OXviNFcmJ0mtrjMwOMzOjs5SxwlAOYqPTp/l6G+OMjM7x5HDD/HAwUPk01lWFpbAdpCGxdT4JAOjW9FC4iiFVpoIJqmVNSYuXSFmhjh35iOya2l6+/q4OjGOGbLIZLOsrq6SSHQQT8S5cvUq4WiUe++9l/W1dWzbJp3OsLq6imEZDAz04+QKSEfTGU1w+ND9GIbkwtlzXJ0YR+VtwoZFJBKhI5FgYGCQ1dVVpqevMTY2hhGOcuniRWbn5rh04RJ23sYp2OTSWdKZNG+99TYDQwNs2bKFRGcCIQWOctC+JFL/KZd1gtrzoorzVDPc+hOsdgLUqbnFcoIDvFiObnRHHa5VT8sWgXJq6NENKfZOl07UllFpZ6xlHNXhdtXaWMN2VekFNRJsSS1ohhaU8xbL2RgbSb21jKzeLfWegqi6ohkFlXJ8c72o5pyovsI7sCmbZtFBIQ1Jai3L8ffeY2J8kq5ojJAVIpvNMTM+x6XLV5iZmaVgO3ztq19ldW2N1NoaP/3pz3jt1dfQjktfVxeuozl38RJTc3OsrK3xe7//+8QTCa5PT/NPL7zAO2+9gyUlO0a3EQ6FmJmd4fyVC6wvJ9nSP8j24S1IR5NJrjF5dYKZ6Wvs3ru3JBlLLQiFo1y5eIWZa7NkM1l6O3sY6O0nnUozPzMHrsZQcO7MR9x/5BHQHqOVUmLn88xMT7O2ssqTj3+BY2++xflzFzhy5Ahvv/UOk9em6EgkWE+lyOZybBsdZS21zuzcHHY2y/zsPFOTU5imQTgUIplcpburm4H+frox0etZVufnQGtWJ6+Tm11iKnoF13ZIpVIk4nG++93vcunCBX7ys3/kB9/7HqfPnOHq1XHC4QjzCwsszi+ydXCYs6fP8NY779A/0Md7773L7t27OPzwYQaGBpCmQTFioGK2iubDqOrC1sZI1d8bLccb8UUOUzngNTSw1dZpS5C7bFovr3dxpcStERUmoXqSU32VPFCe2KBv6pgcqmNuN+5d3YQhb66chjfXENjcFtCaPHvj42YjS+eN0lLrOdjgHu0vGA+Hwzxy+DA/+v73+OMf/BE/+P73+OH3v8dTjz1GxApxZXyCt958C9u2CVshXn/tdY4ff498webxz3+eP/j+9/mjH/6ALz3xJCvLSV79zWu8f/xd3HyBMx+e5IPjH5BeS/Pw/Q/x3W9+i+e+/g1+57eeYffoNmamrvPSL18kEY4ytnUbHZE4CzPzzM/MeinktKeaCw2q4DB5ZQI377C1f5Bd23bQ391LPpVhcXbeY5oaLp6/gGu73vjUGlMapNbWmbh8hfXkGv29/QwNDPH6a0dJraeYmpxicmKSRDxONBxmenKKfDbL3rFdGBrOnT7L1YsXOX/6NN2RGA/ee4CBRBezV6a4fnGCuJKwnmP24lUWL08wGInTb0UY7RugIxZj4uo4Z8+cRdkOK0tLnHz3PS5dvMirr7yKclzuu/cgO7ftwECyOL/Ie++8x4kPT7KeXGNifILXXz/K4vw8UoPhP2hR/SlJ5Lr0oebT6mAqfzzbWfCziQFWt25dGtaNGWagBKHLH7y//oOty4Aal9ScxiAtNd9LJVQdqan/xvo42L/lxDbN5KiyutvoU51GsWVa6n02eualAbjB54boKdYR/L1BWS3R411aZdMUGzdYe8MlGony9JefZqivH0tIHNtBOS4RK8zszCznLl8hubKKU7ARCF599TVmFhe5d89ePv/EEzz00EMIIYh3dvL+qVPMLy7x6kuv8OiDh5m4fIX06jr9nV3cd+AgDz74IHahQH9fH1cuXebyxSucP38Bx3a5Z+8+zpz9iImZ6yzNL5JaWyfR1YnSngo2PT3N3Nw8ju2wb88etm/bjmVYpFMZZq7NIKQBrubatRnmZmaJ9nQRiUQwDYOZazNcungZx3W4NjcDluTd0ydZWFkmZxfo6+/n4KH7mJ+fZ2LqGoPDIzz8yCMsr6wwMT6Osh0sw+LAvQc48sgjKAfmZ+ZZWlrCMjyHE8qbbEMDg6ytrjO2Y4z4YB/vv/cB+ULBUyMV4Crm5+ZZW09xz959PProIxiG5PLly+RzOcYnxgmZXiqB4YFBcoU8lml5wfPoUuC8JwCIsuqoaW74DwyHkqAWGH83HVJ0g2gkNFYLz63MXdgkbw9C0zTaoRXU8IZqtXCTwtbdiFpbPCUhtVXW2ypkhexRejiNOLfwYxi9sJ3u7u5SpiKtNLlMDuUqDGkikHR1dCCRzM/NMz0zi726xp59++gdHCSvFQ6Q6Oxiy5atkM1x+dIVUsk1TC1wcjm07WDn8ti5PAKwCzb5fB6BoKerm5BpsWf3HoYGhzCEZHFhkanxSXA1UkgEcOb0GXK5HFII9u3ew2D/ANl0hpWlZebnF5FIlKtwCw7nz18gn837ThWHqckplhaW2LNnD139vQxuHWE1vc7lqQky+TxSGkjDxDAt3xGkCUeihMIRbNtFuxq7YLO6kmRpcZnk8gp2oUAkHPY7zes8u2BjmSEvDGp1Ddd2iEdjuLbDzLXrzM7MgmkRi3irlpaXFrl+bZqF+Tny+SzRSARTGqA1o1u2cP+h+3jqC0/Q19OHVso3q1SGXpWtes3FtqLvvizB10qrHzeCQmO1IFD9aVoO5TZs9t5gGQ2FyBbvb6wBbI6WuxFNBMLSs7nVY3RTNk3PRuxNI+1PqPXUOum1FNlUmqX5RT744ENmr8+yfXiYB++7H7dgMz0xSSGbA9NkcHiIaEcCV3hv6HAsxpYtI3xomOQzWRauz3LPzt2cOP4eK4tLnPrwBL1d3XT3dHPlyhU+On2WiGXxxSeepLuzi+GhIQb7+5HCY84TV69y7733YhkmhUKeUydPkc/nGervZ2RkhI6ODtZTKbSG3TvHWFxYZDW5yn2HDhCSJiYCt2CzurbK6soK/b29fO2rX+PAww9wdWqCn7/yCmfPnyNnF4glYigUjusgpCAUDlG0pEQjEVzbZjW1zoenT7KWWufSpcsIy2Ro6wgXx69gC01eOyhcIl0d5FCcOX+O+zrjDA4OMjU9zeuvv87ViQlQil27drJ9dCunT5+hkC+wuOjRPjw4xJ7du3j7+HGUUsTicfoH+onFYn4IkyiFcvn8svR+LDLOVtb4VjovPlnUJfMGJbKbZUxtpvbpRctm7E3gpoPbj77xBsfeeJPZ6zPMzy5gp9P0d/dw+HP387WnnyZkhnzboQIh6ezpIRSL4vhM04qE6ent9QK20xkya+t8/pEjjF+8xBtvHOPFf/oV7x5/l5GRYVaWV8jl8+waG+N3vv51ujs9VXrXzp30nzjBwuIis9dmiFoh7IJNZm2dq5cuk8tkuefBhxgaHsYKhejp7uYrv/UV7r//c7z2m9f467/6a/7kn/0ztu3fi4xFSGcyrCfXCJsW9x04yN49ezBDFn2Dg3z16S+hXJeRrSNs3zZKV3cXuXyO3bt3MTIyTCweo7+/D9exmbg6Tmd3F8urSVZOnaCjo5MvfvVp+vv7mV9bZmDbCNtTe9BKsfu+/VxbWeDMhXPYdp4HH7if5eUl5hcXOHTwAEq5jG7dyu9+9zu8/NIrTE9NMdA/wBeOPMbwyDCPPf44hmHwxrFj2K7DV55+muGREeIdcTTemnkhJMEQjkrGWT7WRhttNIZZawCqN20avcIFa+spzl26RHplFSlNorE4fV3d9HV1IxWEpIEqOESkQdpxCSORQuAKMAQgRWmVi2WFiITD9PX28sWnvsjM9RnS2SzZbJbx8QmU62KYBgP9A2TzeWw0diHL6M4xtm7bytQ717l06RJXLl1meGiIt998i2vXrmGaFkceP8LQyBCO62CaJlErSqLTCxMyTC8G0ikUMC0DUwq2jW5h7+i3iQkD1xAsrCxhRcL8i3/xX6CVxpAC13EwpGTvPft46qmnKOTzKKV48ktPkU1n+PP/889xJXzj+Wd58sknkYZJPl/AcV3+m4P/LZFwmIc/f4RCoYBt2/z+H/8RoVAI27YBOPL4Y+TzeVzX5Qc//AGhkEUum+PQofswpPSWUmrtxXOaBj/84x+yklwhHA2TyeUIRcJemJgGaRoBi4AuP+7Ao6+2V9Y4RCnK0fWMcLry1y3mvjctMTS5uf6pBjWK8peNaGokgeqWrmp60yZrDGgJt+S51Gm5rj6/AYoqzw31YGUx1aVUa0QtNXkT/VLBNJtpN2XHQXGweKEWX/vq1/jWs8+RSqW4evkKr7/4Eh+8+Q4//rsfM375Kn/yJ39C1AoTUgLtCoxMHgoObshAobEdh1Q6jXIdrHCUdCbDL154gV+/9GsmJiY5cOBeHj3yKEJIjh07xomTJ3njzWMsr6/yX/13/5otY9sZ27+X0bExzJMnWVxY5NTJk8QeeZS333yTcCTClpFhhreMIEMWOaeAVN6KmlQ2TSafxcFLxCEFmEJghEP+HkaatPa8ipGOOAIvM5IAL9ORFGgpyNsFL5GG0mjtOVzCiRjbdo7R2dtN79AA67kMQngJOjAECk3GzoNpYJoRTCIIBC4aaXkKgO06CNPAskwc5WLnXEBjhDyHj6uVxwANT/XO23kisShaQCQWRRgSV7vek1PFbPjloVROBFLJ8Cqfu/Cdf5VHKxBYS1ocwLXjSDT5Vf9oPSdT82kmKmjxCmmNLTVmnA1rajphy7+r2tQCLfWqbT0JYLNC9S0oJ1heo183Xs6N3F6dZT84/kq8uWzBb0BD67Yds/kjrzqqK4+4riIUCmGaJr29vSRicfriHXSYYV5++RWuTV/j9KnTdHd14RZsDMdF2i4mAsdfAlEoFFhPpejo7Cpl+nnxpV9zdXyCHTu288zXf5vDhw+TzebYOuqpw0ePHuODU6c5fupDHumOEw+H6O7rpauri0wmw/TkJIfvf4CLly6hlMv27dsIxyIooXH90ArpM30ltBfMLkAisKTEEaCEwhXg+LJV2ahcNv5pKKWQK8/Ockjzl3/raQqFPIlEAiUF3vIAL9MReExBiModPuvmUhRFv5EvIYrioygH4pTJEiVaPBumV5rSupYJVdkxWx6+FUNmI/bYKja+qzUzgqh7smnpNSdba0E9htkSK9lkB90qRndryvn4nnfL5QTfkbrquYiKK28JPZuL06yqImxZJGJxLGkglSYaCrN792627RojbRdYz2WZW1xgZMsWItEoGJKZ+Tly2SwhIZFaY+dyzM7Mki3kEZZJzrGZWVhgPZtmYGiQ4ZEROjq7GBwaZP+9+3nk0SMYIRNHu8zOzZNKp0FIhkaG2bp1C7ZtM351nHMffcTy4hKu67Lvnn1E43EvtEZK72N4q4+ElN6ac+k5SwwpkS31X2WEQTE2sRgfqNDEEwl6+/qxQiGEITFMAyEpXeMx0dpygv9U9RGhSzt5FrdA1oKaeMEihWVydUMvYxtttNE66jBN3eATuMlfjqdchXZdP1uRQLsuq+trJFMptGmgDEHedRjaMkzvQD9mJMzlq1dZTSYJITE02Lk8C4sLOI7Drt27EJZBznW8nJOui+26HoORkkg0yuDQIK721nBb4RBCSpTQ9A8NMjIyAsDs7Byvv37Uz2akGRsbIxKNeszGV6nxP0J4EqeQnq1VNknoG8xrWUxMXLL0iUqWh8DzrCsXaXqp3JDCY4Oi+KntZ41GifInGKitdJmFKqFLDLOYEK76SQVbIup8Kh+59hcuNLNVtdHGZwe3a+hu2nvuxWkKlpeX+fWvfs2O0W30dnVhSoNMJsPFCxd48913cQWYkQhju3fT2d/H4ccf5YUXfsmp8+cYeP0oD+RzuI7DW2+/zeLKCqFEjEc//xhbx3bQNdDHaibNxPVrnD1/jq7uLqLRKAsLC7zz7rsl6XDbju1E4jEU0D84wODwEI5WJFPrXLp6BSNksW3HNvoHBjBNA2mauI6D4zheZqVipnTtfVdK4boKYXiqsOO6uMJbay/xlo8WCnkvMF2apfRshmmilMKxbZTWmH5iYa29F4xpmjh+vdI3u0khCPsJTSzLQgjh0eXHVZo+o7ULBQq2g2kYuMr1EhdL7xl42aC83J5OwUYaEtu2icfjHj2ug5ASR7kopTANE9cvv5gpKRQKIQ0Tpf2sTd5DDtiCPp3YDGm3sxmf4i66O1E0a9/GKhowzXreUfwM4ZJsJsfExBR/89N/ZPe2Ubo6OjClQT6XY2pqmsWFRYZGRnj0sSPsO3gvrhQ8+sQXOHvxIucuXODll1/m6uXLKAFXJieJR6IcPHiAhx87wtDgEA8/foSC6zCzuMgrr/2Ga9euEY/FWFpe5sTJk3R3d/PQvfvYsXMMKxJGKU00Eae7r5dwLEo6uUY6m8MwTT7/+ceJxeMIIXEch2Qyyfr6OhLIrKdYSSZRWrGSTHJ95jrxjg7yOIQ74kQScS/LkNZkshkSsRi5XA5HSkyzA9txPOlUSgr5PJlMhkg0ihkOs7q6SjweR0pJNpPBdV1M08DVGrtQIBqLYZomK8lZent6MQyD9VQK8Jao2rZNoVDAMk1yuRzgxX4qV5HN5jzJFXAdB1NKb78bJcikUiSiUZxcDrtgY5gmBbvgBfjLsklCSI+ZSwWhkIWr3FJij+LzLjPOT5e4+WljVJ82eu561Ddr3zIYv/uv/ujfFr1q5ZyLNa4IQCCFgRCSXC5HMpkkubJMcnWV+cVFFpeXyOSyRGMRdu4c48mnvsDXfvsZunu7sR2bWEeCWDyGlJBNpUguLLCWWqent5tHHn2Yr3z1t9h/4F60hO6eHro6E2itWF1bZeraFFcmx1lPr9PT28vhRx7i+e9+m66hfi8TOp6NLp/NkMtksEyDvp5uRkaG+MY3n6VvoB9pSGZmZ/nggw94//0PuHTxEleuXOb8ufPMz80RCVlMX7vG+OQ4J8+eJtaZYHTbKOvpFBcvXeTy1ctsGRnhvffeJZVap6uri+sz17k+cx0hBclkkpOnThKLRenu6uLV37xKoiOBlIKTp06xvLxMR2cHydUVPjp/np6eHjLZLL944QW6u7vI5fO89957OI5NRyLO1fFxLly8QH9/H5MTE5w7d46to1tZSa7w/vvv4zg2hUKeixcvsbKyQm9PD1euXGVycoKuri5OnjzJpYsXuXzlChcvXeTcR+e4cP48M9dnGJ8YZzWZREovg3zICgFlR1ONTt8MoupvG23c4WiinlczTl8d1JBIxDl46ACj20Y5c/qMn0vTJRKJ0NXVyfDwEKOjo8RjMU/lFIJIOMoTX36SPft2c+3CZTKLK+SFpmOgj3s/dx+9Q4OEo1FW59cZGd3Czp07ePiRw0xevcrC3Dy5XI7enl7Gxnawc+dOjGiYrNAUvEhEtICx3Tv59neeZ3F2nrBpIqXBjrEdRBMJ0pk0yWSS8fEJzpz7CO04mEKwtLiEVg7jE+NY4RBaQFa77LxnL67rMj8/z9Fjb5BKp3n8yKP85o2j7N25i+1jO7h4+RJTU1M8cP/9aK14+/hxQiGL3t4e3nrnHTo7O9i1cye2wE8/AAAgAElEQVQnTp7ANE26e7tZXF7i+HvvMTo6Si6X45evvMLYzjE6Ozt5+93jHH7gAQYG+rl48QITU1Ps2b2LK1ev8P4HH/DIIw+zsLjA8XeP8+ADDzI0OMi5c+dIxOLs3bmLjz76iIuXLoKGn//851yfmcVWrqf+a1COQyQSYW5pid6eHg7dd5DHHjvCvr376OzqRJpmhd22JnynjTbaQPztxC98LSwoadZcVrzC89oqjVaaWCyGQODabmmDr1wui+PYRCIRiuUW8nl6e3s9SUYpTEfhprLklIOwLByhMcJhQpEIBbtAwbaxs1kMIQhbIYTydmuMRiNoDdlcFlu56LCFKwWG9jxaphbgarTjEo9EyOXzGKaJaYXI5fNoNLZto5XGlJLF+XleevFF/uEnP+VP/81/7zmiTAPXFMhIGBmyKLgO6+kU2WyWnTt2MDUxSSQUor+/j+XlFWzbprOzE0NK1tfWiUTCdHZ0cvHSJbaNjmKFLK5fn8E0DXp6eynYNplMhpGREXK5HFNTUwwNDWEaBkvLy3QkEnR3dbGaXCWVTrFj23aWFhZZXVtl59gYhYLN9WvX6eruIRwOsZpcxZSSro5O5ufn+enPfsbxDz7AMgz6enrZtXOMPXv20t/fB0qztLzM0WPHKNg2k9evY0jJd55/nocfPkxfv+fp9xxZAle5XscWGWedwRF0fLXRxt2AjZlmRVbVIuMs77wj/MQYxYzPWtdmWi5KL8LfVEdqEEqXjhVDZ1TAFlFM7eaFytRaKJQA17+3uNeQ0CBUQGOsM5c9vq0xhGA9meQXP///+Lu//zH/7n/6U/bt34dCI6NhRNjCFeAGCpDFTYGU7+kutqG6U6u87F695b5pxl+k7+TR5U2JvO0+tJct33Vdcrk8pmVhWSFM3zE0NzPLL154gb/5yU85eM8+vvvtb7N79y56ursxpIHtuig/p2Y+lyMcCnHm1Gn+37/7ey5NTPDkY0f41re+xdjOnRTsvB8/6kUpCKMcV1oN7xrVZppt3DXYgGlWWVRLe2yXp34xJae3f0b5b0UpAaYZvE4WQ5UIxBkWCSilT6otr0iaClBS9FdUbFmg/XYFjr3xxjE+/OAEAkV6bY3r09eYmp7msYcfwrRMQtEIz3zzd9h97z0VTLNigzal/RAdVREwXGLWDVTaYIB6I9Q8g8DLo1yPoJC3MS0Ty7QYvzrOz/7xZ7x89A2+/MQXePbZb7Bz5y5vJZHjYufzOFqTzuU5efIkv3ntNf7wd3+PLUNDpFNp/uqv/oqjx4/z5GOP8Z3vfJvh4WEsyyAcjeC4rj8M6gTH02aabdx9uMGEHUHp05/MuvQf9bkcNee0H2tYOiqC0fwBp4TPEevxmxpJMnBMB+TiItLpNAtLi0itWF9bZWU1CVqzvLyMMCShaJh8Pl9Fp/DrD6ipQV4uWncyb5R/stHpYNFSyFKY0uTUJL/81T/x7gcf8ltPPckf/+hHJdtszrY9m7JWWOEwHaEQsViMSDhCIhGnu6eHeDzOH/zBHxCPx/ng9Gl+8Ytf8vy3nmPb6NZS13+6fOdttPHJ4gaYZpMpJHQV86Q2wlqXr9PFe6qLofZcMNFE8Lo6RFTQo7UI7DQnOHLkCAcPHsQA1leTvP6bV/nViy/z3De/ybYd28EQ9A4PlFRp7WvkCN8OUM04RSVjaRIb31KyhEqmH2hSlc1Do0kmk3zw4QnOX7jI5488yvPPP09nVxfZfBZXKxACw7IwLBMhJFLDvn376OvtoaenB9txQAi2b9/O8889B0Ly3smTRGNRfvSjH4C7Mb1ttHG3YQOm2YqBv6h6N+AIotIBK4T2nbKVXKBao/XX2ZSZsCjXVfmtmpKg6aBcVhE9fT309vUi0aRWO+nrH0AKwZYtW9mzZ4+XRERq3OJdPpPXWtbWWUG0xz2bSpL12qCDP8rHKjbvqvZiC4EVCjM1fY33P/yQcDTCU089xfDwMLZT3A/di8X04O0un8vlmJgc59VXXuW5Z59l++g2TMNESMHI1i08+eQTLCwvc+bsR1ybvsbo9m1+F5TcPX4T2rp4G3cvNrn2vB5j1BXHRXXa6br3V5fTSO8WFWuqg+Vq/29FVT6DLu93U3kPQuNqhaMcHNfFUW5ZovQr0f6PomSrKWY+95cw6nJ7a5pYsn/W/1ST4/VXkeZa1DjU/I+UEmlIrs1cZ2ZhnrEdO9gxNuZlPVIKKY0qu6r2JE0pyGYzTE5PE41EvGB3IXCVQkjJnr17ObB/P5lcjqmpaxjSqLK6tBX1Ntq46STE1Qyv/rxqZbIFVPGAA0pQtCk2LPymoUsZL0TA96XL9X2SglXJPBA4JCX5QoGFxUWUUuzYsZ1IJFwK+xJS1vjwwFuauX3bdr7zrecYGh6mWnZOJBJs2bKFeDTK9evXUUrRRhttVOKGsxwVUczxUC/Xw41eU3mRoLhPze1C2aMt6nw+WdSTWF3lkkmnSaVShKwQPT09HsMUsiQ9VtOvlPKTG2sS8QSZTKbGk69cRTwep6e7m8UlL0NUG220UQlZFrK8KVn7r3rSbnT+Bq8RfqozQSkBcPXV9RAUEileHTxWx0TgqeS++CYkSnnxiGUtVJedP4E8cWWbqV9ORT316avHhmtU9Kq/1VvUVvNA13VJZ9K4rksiHiMWj4EQCEN4dsyAOaLUau3ZNM9fuMD/9Zd/yczsTE2oUMEuYFkmXV2dpNIpP1Y0YHpp4noL7pLbkmLRRhufUVRmbq/1dNRMgGpJUVTLqkWGEyiixm9Q55pa1Jl9lWa62rkpKmXSUgB+4JJ0Ok06ncHQkE1lvO0klMvS8jLzC/NIQ+KYYMXDhOKREvFFB02JcTakufx1Izm1yo1Ua/EtHgzaPIXHnLLZDLl8lkTC25NIBDc2L9leA5UIMEyTvr4+Hn7oQeKJhK/Gl/vHNA36+/vo6enm7XePk8vliCXi3u1a1M+k7hubg7J6oxdcG23cCdjYprlJDbXksNnENRVMInCgaTF1PSe+lzno+K665I1jxzh67BhSQSGdI7mcRDku//DTnxEKWURiYbbu3M7hxx9hdNd2tCkIhcKg9YZdUa++zXRfiXHWuSnIlEzTZH19nfX1dbo6O+no6KC48KCRTC6EIBaNsmvXLnp6e+np6UFIWapPaHD8tem9vT3k8nlW11ZLTBN8Bln7Hq14QVSHYLXRxp2Gm3YEbbTCZVPXBC67XdbEK1evcuqttyEa9/Y8z9sIw+DqxCT5fA6F5pCd4977D5JIJJBhL2+m6zi3iaINUHQEBaC0IplMki8U6Ozs9HIABJlmnf62TJP1bIqXX3mFv/hPf8m/+7M/Y/++/VhmeQhorYlEwvT29CCF4Pr164xs2XK7W9hGG58pbJJptio/tCKT3Xg5uunZeleXr/zBH32fbz//PLiadHKNo785yj/8+Gf8l//8n7N//36MkIERNbESEQr5Ao7t56EM6sofN4JSuYZczsvdaVkWiUSixDBVk+yrrr+T565du/jyF5+ip6fbyxUagGEaoA0i0SixWJS52blSXKZWGiSlfqh4glXSZ1vKbONORhXTbJUhNJsWrTLMOmUEdbwWaq7PwoK6Iuii7ukfjMcTRKMxpAvpcIzu7h6EkAwPDjO6dRRhCgrCpiAcbFxPetPad8bUif+5SZRWoW6iyFDI8jK0x2IMDPSjlEIaRn3V2Yfyd8kc3bqF5579BqNbt6L93TPBu08aEqUUlmXS39fH1fHxEkN2tULowCIETWUMbflwG23c0Qi4cYI+3GYhN61MixuYOhVekeb3N3LQ1hz3XbpBp65SCuW6pQzlAokhDaTwpEk/e51vHhWBvYD8Gj75KCQM0ySdSaOUorOzE9MyywysgSlESonr2Fy6fIkf/+QnTE1P4roOwTgGIQWmZZLo6KAjkeDK+Di5bBaUrhwRVU68ttO8jbsJNx2n+WlAacKKyt+NJnH1a0EGXc9FJ1QFhwi8UG4xZ9iMhFmE6zgkk6sIIejp7vGkTOqFdZWhlPI2o7MsQJe2y6igxQ+7isaidHZ2cH1+ntXVVVy3LHEXQ7PqSZlttHE34DPPNIPKfnWMZr1JHQxhLOXbFA2ka1203nlOKt1KaMCNtGGTRWYyWdbW14lFo/T29uK6bkU0az3GWZSu+/v7ePjwYXp6ev3cnWUopSjk82hfgrUdl7XVNTTa2ygOn7G2GWYbdzGaO4LqelzqBZRsEGjTQjmlBEl1SqtGTdhn1d9i3KBnghRIUWaQC/MLLM7PIxxNPpVlfnYOlGJqchIEKKEw4iZdg91Eu2JQCnqvDe1uJbxoI8ZSFWXlHSv2RaCLgsx+dWWFbCZD9/AwiXjcY5rSMy0EkzBVRCP4u13Ozs5xdXyce/bdQ39vH4Y0yrT6u1QKKenp6QGtmZmZYe+ePRiGxFXK21ykmnH6dH4KLBdttHHbYYrSLKtnwyzqu9UzIsjwNhGUWcrWE7xX1/VLNyo1yGR0zdHicS9lR9F3ozQYeAzn5IkTvPLKK7hZG2Er1pMpnHyBX/3qRUKREEpqBrcN8YWnv8A99+0vqb4ogQiIhBsyzFY0eV37M/gUgr0kAKk1QguWFhawC96WIh59ouSYqb6vCCklaM3CwgLH3jnOkUceobe7p8Q0NRohBKZp0dHRQX9fP26hwPnz53nqiSeRfsIPFchAr6ofWJtxtnEXYJMhR/XkouDxGy/nZiZbNTVFNd3Xqv3EaB5yuSxLS8s42QKWlqTXMyjbZn5+nnhnAisaIpvLevuEmyYiZICGQt5u2IpbgWrJMlhH2Zzg5clfW13DNAw6Egl/D/RyomVdfbN/QEpJd083Dz30EFprhoeHq9Rzz+llGAZCQyQSpr+vl/n5eWy7QCgSLpV5I3bYNtq4U3ALshx9sigym+qwl+LxUt5g/4Jnn32Wb/7OsxgurMwv8fKLr/D3f/8T/sf/4d9w4NBBMAVEBMnsKul0GosQhrxN3VSMYPK/N7xMi7L9VcPy4hKWYdDd1YWQXmo3TKP8soCKDhF4q3000NPTw8GDBwmFQhVMs3ibISVmSBKLxdg6PMLU1DSp9RTRWMx3AumatfFttHE3obEjqDQrGoUefQyo59W4ydlqGAZSeoktIpEIhmFQsG1S6ynS6TRaawqFAlbIIhaL4Tquv/3FTdDbiiu/UXml7+WVPmtr65iGQTwW914KgVjLRlUKKclmsxw7dox//ad/xkcfncNpsMpJSkk4FKa/t5e5hUXy2Sx2wfbNHWWjadsZ1MbdiEqmWZMeKPCpES9uNTOtrK86l3GFb7tKiqLoCQ94xIOJiBuHfXrLDl3XxTRNTMvCVS6u432U62UBKobbNEUTeuvRvVFflBLiaS/EqOi5NgyDhYUFtKuIRiJopXzPvq74VFcmgFgsxqFDh/iX//mfcODAAc/8UNwsTwiUUrhKedszR6Pcs3cvynG5cvkK6VTK31COcuiR1m3G2cZdhyZ6ZyPHULXL5lai0pPRqje65rqi40qLSqbV6Ebf1S5E0aHisYKic0SI4jLK5pS30itNGUyVrUH4/wvDoLijbzqTIZfLEbYswpYFeFsLq43szMXVTD7zr7djptYa7bq4GizTYmR4GKE1K8vLSLylmArhedWo8tS30cZdgs98nOaNoFp9ba45i0/UQiGEwDIttNIIJMnkKtlsjkgkQjQW81YzyY0fo1KKtbU1Tpw8yd/++MfMzMx4UiV++31mqrX2l1JaDA0NEY1GmZqeLkmW7WzubdztuOuYZtFZEtxnvf4+Yd6J1nNDbmTQvFElVgDFFG6CtbV1cvm8xzQD+/y0UkooFKKvr4+twyNYlumbDDzpUwfihYpr7WOxGH093VwdHyeXy5VV+TbauItRpZ4HVe8Gk7zoim517gjKLuKmOnLloYbbYgRuKVNaazIo2zG9c0UGubq2xvrqGtiKfCpLOpNBAYtLi0xNTRGJR9BhiHRFkBETgcA0zJJ9s0xEa6ikSlc2oOnVfgiRBsd1PEaGYHFhgXQ6TSIeJ5FIePGSxQD8QJiVFiBK0qN3TTgcZu/eveRyOQYGBsv5NGvapFHKWwW0Y9s23j95inQ6Td/gAFpS3qmzjTbuQlQyzaC3osJ7Xs9edsOco0E51Ta45jXU8i9dda5sf9XCi2PUGs6cPcsH774HLkhHc21qBqUUbx8/zvlLFwnHwnQOdnHo8CG27NjqMyVVWUeDLqleA1CMrywfqNcRzRrqMXvXdVF+EuS52Tny+QIdHR3EYjHfKaNAihp51nMe+WFXWpPP51lYWGB8YoKdYzvp7enFCKbe9227RclTSsnY2BhH33yLZDLJFsdBhj/zUWpttHFTaDwDSozhdksVN6/uNWfhlVLo4tISl8bHCUsLC4OFpUUQgoWFBbK5LK5QDDlD7Lp3F+BvSFYoEAlHbgmtm0UxzMdTmQXJ5AqRcJhYLI4oJRrZGIb00r5NTU9z6swZ7r1nP92dXUjTZ5pFB1Hgf8MwGBkZxgyFmJ2dZeee3cTCHbe6iW208ZnCXSc2fO2rX+XrzzxD1AyTXErym5de5T/+xV/xvT/8Qw4cPECiK4EOaTIqh42DYRheAt5PCEIITMvCKRQQUrCwuEQinqAj0YGUBloIZHFNeBNIKenp7uaxI48yODDAwQMHsfOFxnYQPKa5fdt2YpEIU1NTPJDNEu/upB1k1MbdjFpHUKt+i03PmxacIjfgL2lFzhIBtVkaBkpr0tksqXSafKGAUl7qMyEFtm2TyWRL29c6tv0xb2VbHR/r0y8kWmmSySSxaJRoLOblAJWNXfsVR/3M7isrSc6cPcva2pqX6b0JDMOgf6CfSCTM/MIC+Xy+ssw272zjLkRtcHvzyMYABDe2CLnOTCt6LhoG0m+M2mDyYtqOypZIQ2JYZvnjB3ibpolpWn6Qu1kK4zFMg3A4vPlm3hBE4G/AEWTbhCyLZDLJwtISvb09dHV1leNKi1mTlS7HYirtSch+qJDjOMzPz3P06Bv89T/8hNOnT2PbdvNuFhAKh9m7ezdT09fIptNIIZAbGZzbaOMOxs2r55uKda+eaUXHys1NwobVV3tFGtwtfAZZ4+kmEKe5AYrdUO3Wavm9IvwogIpMSl6JAi9Wc3lpGddV9PX1EY/FqdhZXlNOIFUntNQ0DPr7+3nssSNEY1Eeeugh30lV/wEWA/ujsSjdPT1kzp9nfX0dx3EQpvTuCEQxtAOR2rhbUKWe3444w43gly2q6rpNs7AkierWZepWUZEAWWyiB0vXarTQKOH/xduCwgqFEcJgevo6jqMY6B8gkfCYpquUt2xyg0Y4jkM2m8VxHKSfW7N+ymKv7tJqWikZ2zkGwPz8PJl0ujbAwv/RZpxt3A2oZJq1Om4VZ7mVjLMmOIaKBeS3oq56s1iXGabUnhrfaF25Lmb10drXenU9qutSupkWlBkmPsPyPr4xE8sMIZDMzS3guArLCpVssx5r1bUFVkFIiePYXL16ldfeeIPp6SlUyVZbxTT9UhWagmOzc9dOItEI8/PzpFOp0qAJStVthtnG3YLNqefBQPXgwZZFjuoT1SzoBqeeriy7/LNsIyxO7IvnzzMxPuHtRplc5/KFK7gFm5MnTjA3PwcGRLqjbN01Ss9QL1r4dtGAKgr4weO1LQm2oEY1r9s1uuaXLuWz80sUEtd1mJ2dxzQsQuEISInSvjRaNG806T7pZ3XasnWEI48cJhaP+U6kOvAPF5dOjmzdQjQSZm5ujtR6imENUsDGK/LbaOPOw+Ztms34Xks36qq/jQrbzHSsvrboAvJOlVRxDec+OseLL/4awwWdd0mvpdGOw7Fjb2KETFypGdkxzNOxp+kb6UeaPrtVuoZFVDDFBu+KzbaoLKF69WkNrqPQSjAzO09XRyexRAfCMFHg73XuR1f6jLNuz2qNlILuri62bBkhHAp5EQNN6PD4tSAWj9HR1UEymSSbTvkZ5NsSZht3J8za0PBWuKCoke5uDM1YSiM6bq7OocFBDt5zD4Yr0HmHiauTJJdW2TIyQk9/L5iCnuEeOhJeELeUEoHEVfVzT1aQpWuprpE8db3zuqJLdfC4VjiOjeM4LCwuMjoyQkciUdqLvDpsqMg4q3tJKUU2m2VycpIX/ulX/N53v0tnogOM+rKvR4sAIXBxGRoc4ty5c6QzmRLdt8Vq00Ybn3I0kDQ3YFi3hGEG6wq4fRvScWvq+8Ljj/PFxz5PCIPMaop/+uWLXLo0zre//W3uf/B+zIiFbTis5tbIFnJIaWBIoyVFtFodr5fHs1o6rfhavEFQ5rACtFKsrKyQTK3zQN8hYrGYL/xqFD5vC5Ql6nSlUgrHccjn8yRXVzENI2A/rk+nZ+Hw4juHtwzzzrvvkU6nfRJFm2G2cVfCvPUKlqhj9yyfavFgHWzW5tkglEZr7IKN1p47wzItQqEQtl0glU4T0mFc00tKHLEi5Nw8ylVYpnVbM/yUzMUBc0KZaMXC3BzaVfR0dxEKhfwu1g0yNFGzzYeU3hYW+/bt44ff/x779+8nn8/XdYKVDCi+ei6EZGhwEMd1SafTOLaDiFigPWZstJCaro027hT4o/1WW6cauN9r5qdo8P1WoY5/W4NlWYTDYRzboVAoYEqJKQ1MaXgbiwmB1l4oj5DSD3S/zdY77UtvWlRItUJrlKOYm5lBOQ5bRkaIxqL1fOY1qJA+/TCjickJfv3SK0xNTwf2S6/qqWBTpSdy7ti+g6G+XuZn51lcXPDtrfpjXi3VRhufPD4FIsJtcCdsMuaz2WkpBdIwGkp0twZeH5T+BTPOC4EhBdeuXUO5Dl1dnViWtfH2G1T2rBQCy7JQruKdkyeZn5+vSELcKHyquH3G8MgwHYkEmWyGXDZXspu282u2cbfhrkvYsRmU9un52OsNqOj+EsiZmevEohE6OzswTROXzWVQt20bV7kcOnSQ//V//rcMDAz4an7jOFUQSClxgGg0yvDIMOlUmvVUCoFACknIko3NMW20cQfiUyBptopmzKv5pPVMe42u0bX5MgnwgY9Bkgp6oSsMGtpzAmUyaTLZDD3dXVghi3IQ+mYivgS5XJ7LV67y5ttvs76+vqFqLaC0nUY2m2VgYBAtBJlcFj9Dadue2cZdB1/SrA7NbkGfvRHpQlT/uEXe8Rp6ymXZjkM0FEYrl2QySWolSSGdQdia3HqW2dk5bMdhenoKYUoinXFiPTHCXRGsWAjLMkEL3Abb3bZGXP3fFRJlMTAh4L8SeGq1YRhcGr/K/r17kaZEUWby9YLq68E0TKSQXLt2nV+/+hoPPfAgXV3d/juh8d3ad/TklWLL1i1cuHSR5eVlHMdBGRLhr2QqPst6nvs22riTYDaPLGyCG54YtymsqNLdDHiZzG3bJh6NYRdsVlaWeeeNNzl/5iyGK4jIELPX53Adh5defplQLEooFubRJx/lwIMH6Yn2IhHYrnODlG1sry2H7pRtr0W+I/CYVjqdYn1tjYHBAYyQSXA/n5p3T8OKBNFYjP337Oc/ew56enobJzEuBslrsAs2Eo9xDw4N4bouqZS3/lxrjeO6FUy+zTDbuNNxR9s0BRCyQijlIqWkr6+Pbdu2oQs2UTMCBU0h7zB1bZbt27bRO9iPCJkMDw97ywyFwHYcXMfBND6+rgouv7ftAtevXQM0wyNDhMPeSp7WN3zzULRdCrwwoY1Ucw2gNA4OluGl0Ovt68WwLNKZNIVCgVA8iqsUok6AfBtt3Km4o5kmCELhEI7jYknJ4OAgX/rSFxFPPEFEhlmZX8YyLE6dOsuXv/xlDt3/OcxYiJzO4xgOjlA4TgHXVR8b0wwKkAJP0rt23WOaI8NDRCLhG8qk5/oxlhOTk/z0Fy+wa9cuuru6oJFNUnvKf3F/IUNK4h0dRGNRVtbWWEmusK27i4JdaCnLUhtt3CkobhDzCZJwG0KOStAo10VKL+4ym82ilMYwDGzbppAveLGKWmPbBfKFPI7tkMlkyOfzSH/LWqdVe2YwyqleIs3SuaItszJOtSLJk3/OcRwWl5YATU9vD1YoVHJOCYqZmiiHAFHbo0U1XwjB4OAgnzt4gI5EoqmTy1tBKf2YVY900zDpSHSQTqeZn1/w2lIso1HMUhtt3GH4FEmat5pxBlwk2rPPSSEwpPQyj0svO5CUEsMwiMfjxONxlAHRSATH9HZ4NKVFpJXE7TVMsJELKHCVrj1XUaQAR7kk19Z8m2QcwzTRKIS/N7kM3lmnC4sRoOFQCCsUwjRNvv7MM8QTCWTD5USU9jgvx4xKpCHp6elhdnaWhcUFstkMQkqEUZ2WtS15tnHnQn46pMzbM8OKgo8qruEWkLdtMrkcBcdGC295oWWZ2LZNLpdDuQrbcVDKLdn+WuuhMkssx3fWtktsUiKzHYellWU6+nsxfSeQpryGvaXe8yML7EKB8+fP8+f/4T+wtLTUWoC8zzyLFXV1d2M7Dqura5iGgeu6bf7Yxl2FOz/IThQZJygBrp/kwrAsItEosUTcT9DrYhgGfX19GIZBPl9AKVVynHxSsO0C1+ZmGR0ZJhwJo7RC6Y32nqyPXC7H9ZkZrs3Nt8QwgZoM9L29vSAEKysrpXXntyMLfhttfFrxKVLPbwOEKKU403gC19mPPmLi0mU6QjGcdIF33jpOcmWFY8eOcfHqFULxCP1b+xndvY2uaDfa0I3V2GBV9Q42XWu/cUkCcFyXpWSSe+/Z520nfIOagdbQ3d3NN7/xDZ74whewTNNnnJWBlV4EUyX7K+9z54UtGaZJJp0hn8mS6Oz0Fgfo8rVttHEn485gmlVZJrxJLiq0YO+74NSZM/z0H39OhwwR0QbJ5VWkafHeBx9iv+9iRkNs37ud3449Q89QL4VGMZob2TB1WWHfkPRgGYG4y2wu53nOc3n279vn2WOFt2xRb8A+a2vVpFMpTpw4yd//5Cf86Ac/YNfuXRiBIbaaZgYAACAASURBVFBuj/DvED5j9dRzoTVdnV10JTqYn5vn6sUrPPjwQ9gqsK9Q09a20cZnH3cG06zjcikzTW8aF38/8cQT7B3bheFAfj3DyfdP8upvjvLMM8+wddtWHKGIdEXYvmOHt51vA5tma+vSRaN0lRWouER7GduF8FTztdU1kJL+/v5SSzXllTdNGWfwpNYoV+HYNoVCgc6ODgzDqEuzV0GRcXr/+1TR2dlFNBJlbXWN5NIypjBwcFuOsW+jjc867hCm2RjVSX9HR0fZsWUUw4W1xSRrK+uE3zrO/v37ue+Bz+Hi4loKZXkOISE/3pQdrlJe0mMhyOcLrKVSELLo7utFGBJXuRXsuhVmVUxvF4tFueeeffzwe99jeGQY07Q2tI/qKvE5Fo3SlejEtm2Wlpf9kKOqTi5x87YXvY07D3e0I6hSNffgxWUqpGH4c9sLPQqFLCKRCJZVmWzYW7L48c38oqVBA4WClxgZy6S7t8djmrqsmJfjPVsoV2scxyWTyTI3P0cmk0Xr5g4uXfEpGjgEPd3dhMwQiwuLASdZmzu2cXfgjmSanuxTVMgrvbpSGhiGWbIPGlLiut4yS9v29uIpFAoIIbBMs3T/7UZxn3Ehhee4UopCPs/6+hrheIx4PO5JmEVbqih/Gv0rntda49g22WyG2blZXjv6BsnkCk6TcKqicz3Yd0Xm2dvXR0dHgsXlZdbW10v3tMrA22jjs4w7kmmW/L/BFTY+E5BSIKUnyhlSEgqFStJSJp1GKW/JpNb4IUe3nw0UVWANfpZ40EpjFwqsrq6xfWgIKxRG4NHsxU5W8E1vS93Ap+I8HrMzpMHgwACPPnyYjo4Oz6nUkChvRUC5/7y169Iw6Ovvp7unh+XVJHPz87e5d9po49OFO5RpQtH1Uy1tKtdFK41lGp6U6ThejKY0CIVCfrC7l7OymMGn1ZjGWwNPytS+46Zg2+zds8eXQP3dMTdrLhBgGAamaRIKhRnbMUYkHLkhsdB1Xbq6uujr6yWTzTJfxTTbsZpt3Om4g5lmLYpLCvO5HIuLi8wvLJBKp3Fdh5nZGaanp1leXmYluYLWmnAovEFm89sArT3JV3vr5jOZDGNjO3y7qihJjpsvF3L5PKfPnOF/+ff/B+fOn8d1bmx/n87OTgYHBrEdh/Hx8TpXtNlmG3cu7hDveWWAduloxVJD75q/+I9/wc//8m+hAEQsDAwsM8T/9r//ezLraxAy2HP/PfzBD3+fBx95EMdx0ArCoVCdWiuZaa0qr9EBqVAUSW3aEm/FkunbNdfT6bJkKfBbcgNMXMD/z96bR0ly3Pedn4jIzLqrq8+Zwcz0nMBgcAxIggQJkCJBS6Ksg6Qv0TZ12V4fOry+1t639p7P+mO93vXaet59b/2etfJatijZsiSSJkHSJAECBEkQBEjcwAww99Hd03fXmUfE/hGZWVnV1TPdPQ0IaNZvXk3XkRlXRnzjd0epVOLEiRM8/OAHOHr0CMoZ5HJkem+iO7KCWL3huVRGqijH4dKVK6lbkr0m1gmYxIC+hbYOsXZI7wDaHaAp6FmcXaG8+3Pyy8EDB7jvQw+gQoiaASuLK8zOzrN/314m33WKjg6Zmp6iVCrhuC4FV1Cv19dVaYTpwRfR9aBMK02O2e2/6kZksMag0A9Zq9cJo8jmAMUgpdx2RBBC4OY8Dh85zKc+9SkmJifp+H4fF93b/sRaDl2fT60NQkK+kAcpmLk+R6lUZK1Rj4/7Xe8zuxnadr+GNKS3mHYHaMK6cJyEw8u6aAvggfe9l7vvuIOizOGvtXniG0/wyBe/wid+5qe5466T4CqckkNtT82CVGTI5TZIc5SpM2ttHtym5KLNRQh1Oh3W1tYo5vKMjIzY4uI0bSnHugXOTAhBs9Xi+eef548+/3l+5a//dfbu3Zsanrp1d8Grm1W+q6s0aIyRlCplxifGWV5ZYWFhHi+fg/7Nais4uI3EykMa0h8H7R7QvBFlFv1ItcpYuYKHSz23yvjYOI7rMD09zYEDB3ELHiYHHXw67Q5aRTb2/K1az8agjaHRqLO8uES5VKRSrVhVQ9oG02WuNwmcSRo813UZqY5QKBS2JQ2L2IVptFbj4IEDXJ2d4cLFi5w4cQJtTJq38630bR3SkN5K+qEwBKWcWQyeSipcx7GRN1LQarWwRhZBpDVhGBIEfuqmE2z7ULVtkoFms8XqygqFfB7HcWNOTPT0YyuwlGQkOnDgAA9+4P1UymXENk6SFDE3Wa1W2bd3L812hytXrsbh6cICJ2xNlzmkIb2DaFeCpvXRzPhqknHQjv0Pwbof+R2fTqdjfRCFQOuIVqtFEISp6LrpzO07QBKBBFr1Bmurq4zVaqkBKOnHdni4KNI0m02uXbvGq6++ytz8PJHWfVE/8SutIIkC6r9Cky/kGR8fRSnJ6TNnaDVbyCTkdAiYQ9rFtCtBE3qBs5+0MUSBPTBNYI9xUMpmcHddLxZlRXraojMwscWbRwpBp9VibW2NifGJjKibDQjdGglhwX9hcZGz5y+wurJiU7plkTh+ZWuxY5gBzoRtN5p8Pk+5UOD1s2+gtbbHgySO8LfQ/yEN6e1Mu1qnmS78zHdLS8usLS7hakVrpcHyygpCCi5fvoKTzyFchfYMlYkq+ZwCDK7rvanckzBxCCWANkhslvV2s81orZba5ZOzelLL/A1Urf2bhZSSSqXCiTvuQEc6NQJttVdCgDYWgJVSjNZGuDY3Rz6fTy3xiap1UG7NLRmHhjSktyHtatAE+gwo8NJLL/H0t7+DigSmHXHh/CXarTZf+/rXKD79XXwiJvdP8ODDD3Ls5O3xCL35Kz0BEyEEURjSajTRUUStWo3TwHUBKQHODctivXE9MQLlcjlqozWKxWJ87vnWKDkGWCnFyMgIB/bv58yFi6ytrTEyMoKQok/E72uXGALnkN7ZtHvE86zKDQCRuh0ZIdDCftZAEJ8DFBmDkAIdhbTbHSKtcZRCSvsCCxI2rHIAdGbqHKhr7FcF3kQbKQDXcQg6PvV6HUcpioWCFZF1nHhYMPDVX21/9VobVlZXeeqpp/hf/8Vv8MYbbxBFW9fV2uN6BZ7nMVarsW9qCongSnw2u4zT2q3rOgPGb0hDegfS7uA0+wApMV+kP5GYLwQf+ehH+dif+DFcI1m4dp1vfP0b/N7v/j6/8Iu/yN333oPMOQQyIHIiQmGPceh0Ol23dBEbZAae65B13Fzvyn4jyExAVwLz169z9uxZwjBkanISRUbkvXGtvUOS/Ww0xWKRBx98kLGxMe6++26ibZw1ZOIkyRLBSKXK0cOH8dttZq/NcPLknRCnm0u4ypTjHSLmkHYJ7RJOc30USp/5ove96OWCzACfQr2JmPN1qdgGXWNYl2lpw/IMRGFE0PFTnWGlVEZok4q0A63dSZ8SrnMgnovUVzOXy1Gv17cVUy/iTUNrm629Wq4wXq2ysLhAGIQDy9y++WpIQ3r70S4BzY1pIyBZJ82vu/FNbdY6SiNutKZeX6PVbFEplymXSj15KgeK59zIbSi+T2tWV1Z4+umn+X9/+7e5cPEiUbS9hB3dQg2e67FvapKZq9fwOz5SDM7CNDw/aEi7hXYtaK6LYNzMRX9MlPUnVULQWKvTajYZHR21meTj3zcE+T5AGnSNMQYvl2N6epo7jx9nfGysJ4Ryq5S0xXUdxmqjzM8vEAbB1tPWDWlI7zDalaCZaDMFXbE2WcpCCMIwIggCXMfFUco6tkvrp5k4aHuei+d5CCntS3SdyweS6RXF+x3rNwMlwoAUklajSbvdplKtoBynR/yOq9rGoNhM9Humpnjgfe9jbHzsxkmIN0EGyOXzHDywnytXr6Vp6waFUW7XKX9IQ3q70a4EzS5gZoAzgzQ207lEGJNGBEmprJXcYM8Pip0hlbLJiu19Gy/7AT7iA183uz/0fZr1OhjDyMgIUqleEXybyCOlIIxCLly8yHee+i7Ly8vWuf1WSEA+n+fQwWkW5udpNZqpS1LfZUPZfEi7hnYpaK6nFLSMjQByHWUzswOddpswCNBxxvQkEbBOjRpvHY9Ur9dZWV7BdVwmJyc3OGZ36yQQSGm56mariY5uETBjyuVy7LvtNghDrs3M4Hd8ssdkJGM+5DKHtFtod7gc3YRE5u/FCxdYuDaLCA1riyvMzM5gwpAfPPcD1loNhCvJj+Q5cOwg1fEqnTAAbEz4W0Frq2ssLS3hui5Te6ZuSe/YQ0JQyOe5/fhxAPbu3bstl6N+chyH8bExKmOjXL58mWO3H0d5jj2eA4Yc5pB2He0S0OyPf1kvyiaZ25988kn+6LOfRwYa6WtMYI+W+NKXv4z42lcJhObYnUf5xM9+nHtG7iWMAuvM7bgD6hxEou+am/tqppZxYK1eZ7Vex8vlGB0dIz2uN34lzO9WeWApBGEYcvXqVb73vWc4cvgwxXLp5iqHAc6hJtNggwEpOLj/NmZmZ2i3WpSrFbpxoetpkIphGK0+pHcK7Q7Q7FOadWGGvneG6ekDfPCB9+JqiRNJrl2+ynM/eIEPPPAA0nWQOYex28YZHR3tOpPrjUTZ7ELfCHxM5oqNUKT7dml5mWa7xd69e6mN1noyLKXAGX/Yajii3+lw8cIFvvr4E7znXe/i7nvvwXE2ngIiafNGXRMQRhH1Rp3R0RqXLl3C6AhJFwR74g7MkPEc0jufdgdoDqDs+UBZGP2RD32ID7//QcKmT2NpjWe/+yyvvnKaH/nQBzlx910UKiVapg05gZf3wEjq9cZmamQwumR5wsHXZL+pN+pobahUKiCEzeW5A5oBpRQj1Sqn7r2XX/6lX+Sukydx1a0/fqUUlWqFarXCa6+/TqfdBqMRyDQqK+32ULE5pF1APxSGoKwrkOe4lMslRqpVPNcjCAIc5VCpVCjHiXk9zyOKIvwg6LGevxW0vLSE1pqx8TGUUumZ7LdKQRCwtlaPX2us1ddu3XqO9UIolUocPXKE+fkFFhYWCPyg1/Xq1ps/pCG9bWjXguZAtxeg2WxSX12zp0zGVvJCsUAYhnQ6Hcj4bIZhSOAHacKOHSdjM6pnRda1egNjNNVK1YLmDuWmFAiiKOLKlSt87ktfYmZmdkcA2WAQQnD4yGEIfOYXFvB9P64z8xyGcvmQdgntStC0Ks4+t5eYpLTg4fu+PfJCKVQS+mdIM7grZb/TxhDtELc3iKJIY7RNDLKyvMLS0iL5fJ7xiXGESjItdV/bBx+D4yimp6f5S5/+NIemp7flztTPOSY5PkdqNSgWOXfhAo1mK3Ol6N43DEIf0i6gXQmakCzXXkdrgXWRKRSLFAsFHKkwWhPpyBpchCCfz6f+mUopgiCwHOhNaLt4ICCtb2V1hXqjQaFQoFqtxmnYMqUbs20rszEGY2xezXanc0uuTFngNNjEJp7nMTZa4/r8Qm9WKMMN0pkMaUjvPNq1hqAsZRf5s88+yysvvowTQme1xbnXz9HpdPjGNx7n2eefR+YcKhMVTr3vFHsP7kMAOc/bXCX91mHBOv8a0ffBcV2i2NiztLxMo9Vi79QUpWqFIAo3TgW3RewUscvRxUuX+NrXH+XAgf0cPXoM5WzMbXYTnXQNadkkRolpSxuDcj32TU2xtLxMJxHPrTdS99TMoevmkHYB/VCAZkICeOONs3z1scdQvsY0Q8JOgB+EvHb6NO0woGMijpw4xP5jB9h7cB+u56GkJApvlhFI9OLjAEfK9S5CAqVUfOytZGllhUa7TbFcplyp3ND5fKucW5q53fMYGxu1Z7lvopCsn2jyxmT6kojnrusxNbWH7z//An6nQ+JgJQEt7Cu534LvEDqH9M6k3QOaPS6TfeKg6Toe3XHiBEopRCRYW1rl0rlL/OB7P+C+U6eojo0ic4rqZI2xsTG0NkhHDNRpbsgB3rCJ67nOJDN8FEYsLC7ghyGVaoVCsWgBqw9ctm+NFhQKBY4dO0az2eTA/gNxjP2gdpLhMC3KrcO41INKIIXAdV327tlLvfk0i4tL+L5PLpezMf4SjImGDuxD2hW0O0Czx4OanqzqqWeksaB1972nuOfeU4BkaXmFx7/yKN9/9nne8+73cN/970F4klCFhE5EaHScc3KATk6IAaLqgFzt/dE065puj4gIIp/Z2TmUktRGR3EchzB7HIXpi87ZBnJqHbG0tMQPnnuOO0/eydj4+GDdpshwmBkOcT1zaAFTSQUm4tjRowgheP2Ns9x550n27tlrzyES2ACBrKjfF4k05DyH9E6hXWII2ig4MQti8fsYxxKRUZOAwXb4t66FOHu8Rra4G2ZUF9bY1PF9hJK0Om1czyNXyBNGEVGkuy5Houe2gS25YUsFtNsdzl+4wOmzZ1leXrkBUMXRPCI+lyj5J+yLLJBiAVYbzZGjRykVClyfn6fZbKVnBW2lnUMa0tuddgenuQnKSpvZ2GnYOS5nM6X0g4YUEmM0vh9QbzQolUuMjIwQGU2oI4SSPVnPU7zaQpMNEAQhrufy8Ic/zEMPPojjOhuK5+v6lDlrY5AdPDEGTU5Osmdqktnr89TX1gDQCacuhDUKJZvJkLMc0juUdgmnuRH1JrsY5PDeg587yAZ1E4YINmqBMYZOp4PjuKzV12i12xSLRUrlMirxIR0QG95f4k25TCw32Gl3OHf+PL/3H/4DqyurGL0J4Mqi84CKhLDGLKUUfhBw25691BsNmq0WQlrRfKeimoY0pLcD7WLQzFh9Y67G9Vxcx2Zkz+dyYAxRFFEoFvByHo7jWAtzPp/q3JRytsAV9UGZuTm0+YGP1pq1tTr1ZpPRWo3R0RomjhQyWoPOeLfHB771vDbRMikEfuDz+huv89kvfZkrV68S6Vs8I4jY/1NrHKlwlU0T1+50WF5eJgh8q+8cQCI+6G2jz0Ma0tuVdql4vt76khpRBPi+jzCCnOchsEkxpFI4jkMQhYRBhOM5hJHGD3xcx91G0t7N27mN1qyurmKMYaRaJZ/Px4BmugmWbqQc3ChXSIaUUozWarz3/vdSKBQ4fvwYzg4k7MAYojBCCokUgumDB8l7HktLSzQaDUZrowN1mxtR1tY1pCG9HWmXgmaXAj+gkMsThRGXLl7kqaef5sWXXyYMNEooFmfmCYOQ3/u93+MrX/svdCKf937wvZx63yny1SLGGMIwvOXzdDYix3GQUrK0tISjFLVajVwun0bwGDT0cWHbOfLCAGEY2mQdq2uZzEPrC7NaBbvT3IyPNQaiKEQAnpvjyJHDlIpFZufmWFxcojZSs+Go6JQrTuLVhzSkdyLtYvHckuu6aKOJwhAdRdaRHNtxozVhEKKUHYYwDFMxMYoijDE4ynlTF7iSCqkUKysrKKUoFAo4PQYakf5/K60w2p6HNDc3x9PPPMP1+XmMNoP1o2Ir4TtWRRAEAcYYxsfGyXke8wsLLC8voY3uxvUzNAAN6Z1Pu4TTXC+fJlDjOorQDxDA2NgYH3zoQe699x6MEbQbbZ587JvMX5nl4Yc/wqGjh3ELOYq1Il4pZ8VKCQIZ6xXfnNYLASurq/ac8zg9XZKdI6NVyPRt6648BoNyFJNTk5w8eRLHdWIXosHXJgWKjK9p1nIvABEDoJQCLawjZz6fo1atMjM7y9rqGo5UJHFNKfxny0sDD7YfVz+kIb2VtDtAM+M0TfpWIIwhCkN7LK9SuI5DoZhnfHICYSRrK3VeHR9H64h9+/Zy+PBh8uUiPj4d4RPKCGOsblEgsLiwswtba43RkrW1NUZrNXsCpZQZi7MZ6F60Dutu0CwDYAxCSsrVKkeOHqFYLoEU1u9yAxIZDeO6o5CTz6IbookwOK7Dbfv2cf7CRRprdWTMtfc8ooziss/7a0hDetvTrhfPATCgpPUT7Ldl/3Fr1gyGMIpoNpvkcjk8z7MAR2xRRvToHbfrgg/Q7nQ4c+YMn/mPv58anjZ1t0kCBXqVBAm/K6XEcZz0l31796KkpF6v0263CYKgN5wo9e/arNPUkIb09qEfDtBMKBUru3//uFkcIQRB4LNWr1MoFMjn86mgmugXpRSprlX0x9VvgcIwpNlqoeIkyz1lbvDaDu3bt49Sscjy8jLLy8uxfpgeN6kBMZlDGtI7gnaHeL4BDTJy2LVqeo9iyCzgRMOWGDgssm4dPDbPPwl8P6DRbJHP5fE8L21jX36hbVMSsTNSrfITH/sYH3zoIRBWF7ljZLqtrdVGqFbKrNXrrKysUK2N7Fw9QxrSHzPtYk4zZiMTm0aMi51Oh06nE+sSNaViEa01YWxdT/JOttttm5i4n0O6AaVcrOnlZrOv/juEEJw7e56VtTp79+5lpDqCMTqD4zevd1OjYQyrq6s8+uij/K2//w84d+5cnIzk1qiHc4/fHziwn1pthEazTr1Rj70ThpzlkHYH7WLQHEyO61IqlSiXy7iOi+/7RGGI4zgo5cSAatKjbbXWsQvQJgGTDG9ozACtXfcbAUihWF5ZoZDP47me1V8mnGbsq3mrJLD+oLl8nlwuR97z8P3gTZKQDUpKarWRONJpbaAv6JCG9E6lXS2eA9aOkYkI+vKXv8xXH30UJRyElly7fA3dafP//Kt/RaFcwivkmDwwxf0fvJ8777mTfKkAsIkkxDYrUA83GbvhrGtQhqQUzM/PUy1XUiNQT1jMNtUDPe0CiPN23nnnnfztX/tVpvZM7cgpm4a+bsbW9PHJSd44f56FxYUdOfVySEN6u9Cu5jRN3wtsCOVas8las0mj3cIPQxASrQ31tToLS0us1evWViwljUaDer2+iRpi6ipKB//eQ1Y8X1paplQq4nremyLEJpAbhSFzc3N856mnaLfbt1aXSLxIE2O4SHsqpGR0bJTIaJZWVjJnHQ1pSO982h2cZurC0vd16hluEwZrAfe9+91M7N2LFIr6aoMXnnmOx7/6DT768MOMTYyj8i6FWsGeDyRE7C85yAO8P+VwAiGirz39bunda4QQKOlw7sIFKuUynuutK3OnSACR1iwsLPCt7z7N+9//AKNjo5u+uZ9hTjjMpGz7WaShkmNjYziuy/LqCq12m3yxsGN9GdKQ/jhpd4DmOlDLnEMprDFICxBGMH34CIePH0cYwfW5edYWV/mmepI77riDo8ePUayWCFSIL3xCoXEdd6BOTtD1U+xpwwYAngBmV3y3wBn4IVdmZjl1cgzX9TL37rATvTEIAVOTkzz0wPts5NFWdI1ifYsMIE03YinhOCOtGRmtUSgWqTcarDXq5IagOaRdQrtaPE/IxKJkmkUd0EKgsZnbN74RNu8Gn4S4bN750xjD4tIiQRhRrY7Yw87eJLKJRyIMMDE+YTM87YCBxmT+Jq/IaIqlMuVKmZbfYWl5+YajN7SrD+mdRLseNPs1i9mXTkF0MNCl3246rdDWgFPH4nIQhozWatYQ9CaRlBK/0+GFF1/k3/+n/8TC4uKOJQdONqKsTtPL56hWRwgjzfXr14FBLlc31vgOaUhvR9rFoDloOcZWmtj3MgkMlLH5V8YGHKM1mFi7qPvPkNxc1YMc6/ubY4xhaWmZIIwoV8o2fvtNIgHkCwUOHzrERz7wfhvjvpOuQJmOJoe1WRUALMwvIGP9cBaos8MxBM4hvVNol+g0b0RZ8drCZBiERJFGIHCVQ95xIdLkPA+jNX7QQRZdXOUQxg7vA5V6WeozEPfqLwdzWTrSnL9wAd3uUClX3jTQTKouFgrcc8/dHD9+nFw+Z7MpvQkUaZs7s1wuEXR8ZmZnyecLrKysIKWMD2fbfGLiIQ3p7US7lNPs5zJFz0+O49jjLjD4fodSIY+SEkcpioUCuVyenOvhKNdypTrxvxzEP3bBOPsvW/NGiYS0MczPL4AQ1Go1HMdBvwke5zZ81FBvNPj2t5/ir/2tv80br79BlD0ieAep0+ngKIepyUlKxSILCwssLS2ipM3uLoXofSRDd6QhvYPoh4DT7KU/+KM/5I+++AhBqFFS0lpYptjR/Ma//A1UzmO11WT69kP81Cd/invfcx9CSoIgJPcm6Bt1FHH23DlGajVKpRKe6+7IuT2DSAqB57pMTIzzvnvvZWx8jO2n/rgxCazT/tjoGJVymYuXLnN9do7DR45gjEFjuj6eQ8Ac0juMdglo3iRqJsO8HT92jJ/80R9FRxo/CLny+jlOP/sC9506xejkBCrnUqiVmJiYREiJlALX7bowbXqN9zCM9q6Ei1RS2mMitObMxYucOHLEZh2SEonB3CCCJuWht2iONoBUij1TU/yJjz5sOe0kZPOWTNvrb3YcB2Ns1vx8Pk+r3WZxcYnbj9+OHwYopdKD4/qrGGLoBrQTAshuHdy3eGx2B2ha+TN92y+O22/sd8eOHWPv3n0YA/W1Ok+Fhle/9xzvete7OH7nHeBIjCfIVYrWeJGkYsu4YW7uzPFED9pti44TZLiOQxCENJp1qNfZv28vhULB6vtMn6Ekte53vzM3M+BkXFSzXzUbDV584UUe/+Y3+cVf+DkKhQJCim2we2LAu8yvQmKMoVQqM1Kt0fED5ubmCMIQY+wRH8L0R1JlBtjEb3brIt8qGXZAKojzGOy2Md2RsWFLUWu7AzQBBGnCDKuI7DUAJVQsFsnnraO167rkcjm0MVSrFSYnJgiI0K7AuJIISGbalhK19Rzdm/k6+VYItI5YXl4CrZmcnMTzXFLEEN26DL2YNog722A41n1OdIq+7yOFzIYAbIH6DGJifT+T8FDP86hWqyipmJmZw2hQjmPj+EU3gqjbwjiTfBJtNQy/BDb2vthaIXY27Tbj286Mjf2z2SJ2D2jeEg0eLpPGCu7MVJNSWku8gDAKmZu7DkIwOTkRH+am37RpLYSgXCpz8uRJpJRMTEykrkE7TUm5JtJUKhUqpRIzMzNEYYiX82i0faSjupM1HuIhPg7pnUC71Hq+Vcq6Zvf9clMF4uZJKWXTzBmbNWl2dhbi0EYpZewffwCrnwAAIABJREFUuiNVDaTk1MiV1RV833/TkqdLJVPgrFarjI6MMH99nnq9ThRFPWCdOMbvNGL25iDt5kPd6PVOp7QHfaqbbAZ+Q/+47AyJ+HQB3qTy326085xmqkO85SJuoZC+iZN9kMKe5WiM3TGE7LrkgEHGyT2MtmdzqzTcsldburErkYhVBb26UBAoIWO9pcHvBMzOzILrMlqrpWnarMjax3pldFGi9+OG/Rd9nJvRhkajwWuvvcbvf/ZzHD50mNtvP45QDr28dF+9XYVHzxhmert+HHRXvVCrjjA5Ns7M1RkWFxap1WrkvRy+DoiypWaDqdJaBVtCdmEPv9NxHlNJrF/VxnolbKAL3nAsewbwJtdmLusClRnoQia25TIgNqzcGJPOV+vOlbk2AUyt43XQ6xI3SLLZlF0wmY9CxKoeMOhNSwwDN8ptSRt96qK3gHYcNLdoY96wjO2Lqb2DaPV2mUUuBAiJNholBY5SKCmJIpu53cl5GDRRqBFIpJKZGO0YDGL9ae9pEb0GlTQDUH83DJjI0Gw0OHvuPGPj41TKZVylkILexMOJalb09ekm86SbNT7THikpFoscOnSIn/zRH2X//v0o6SDTQ9NshWlmqG6vUpDuFpcpN5796TfGOu1b0BLsGZ/k0MFpnv7es1y5fIW7Tt5lj0XWvRUN1gIz8JuNSMU7oF28BiUkjnIITYTW0Tp7l8juav0m/P5rb9KW7u8GiURJhTYaQ68LmTBimzmZN74p5e6MQCBR8ZzV6Ph8JguqGPtMiI2b9ln3rjSRBdwNWpG9w3KZEmHi1IAiw7nfrJysztrcfIw3KuetpjdFp7k56/KNCrB/dm4D6ZakowgpFVIp2u027XYbL5+j1WmzVq+TM3mMkgjPBWGvV3GkTpSxbK97WJtorI40QRgAkM/labXaTI2NI4VAyCSt2iYK2tSO3HuFkhKvUGBqapLpQ9OUitY7QBjRN96DYeuGIN292fph6ghhBI5UlMtlatUagR9y+eJldKgJ0V1b2QYt3s4c0lqDjDkfKSHSBKEPxgJqaHRfP2zPLE5kuC/DgPzR4oZtErG+WmttvSSMQSiJRKTcZi9/vnOU6spjDltJRSfw6fgdlJIEYWgP05MqkdG7HYwlr56W3fRhdw14AhFLZ/azUorA9+1vUm7Y02Ta9eLrjcd4o/bcjHG/aZ+2SD90hqDf+cxn+P0//Cz4AUQRtDtgJP/Hv/gXeIU8nTDg2O3H+Kmf+SkeeOgDVCpVQqNpdtrpwhogsG6KgiBAICiVSly5coWZCxe450/+BFIqBMICqhBItfOq5larxcLiAs88+yy/9Znf5b/9m7/G/e+5H+WqHa3HnjQJ2miiCBypqFYqTI2OMXNtFr/j0w59nGIuI0be+ozuckgWApSQuK6y/rBRhDYGZeIQz+T6jcoCy7WJvu9uQEZrWp0OFy5coNVqcfjwYcbGRntcYt5Mrig97hloNBucPn2aVqfNu979LorFAjrSGE2KUsaY7QUWxGJHUlfoh/i6g1IK1/XQUYSXy6G1vuEZVPF21btRbrM5N2c0djaMY/ugOaCdvVNj+2x29niKLZVh+gdHZMIfLU1NTfGuU6cIw5DllRVaq2u0l1Y5Oj2N8jw0mgMHDzA5aa3LiwuLaAy5UiFT6sY96FEF9HGESik67Q5PPPEE/+z/+r9xqlUmxsfTI3p1FFkOKQXNbpkDTFTr6s5+6t2xBVIqjDasrawiEZRLFcuRmcwWICzkbDjsG3G4G4nzxqAjTc7LUS2VeemlV/hn/+c/57/+O38LKSURBhHn+eyWfxPdw0ZNs1htuTwhuHL5Eo997etcunSZn//0X+TQ4cNIJTEIe3Admb4YQb/MvJ12LC0u8uST32J5eYVPfPxnqI3UbunI5b4G9VLfmGujU535wvwCjz72DerNBrcfP05tdJTA78Qct0LIGGBT4OwvfP182qhuJaWtVymkEFy6cpVf/yf/hL/9a7/KsaPHcBwnVYOsW+NbHoS+yjPteyvVmtsDzUH6B0NXREv47k32xF7eHdR04WV3+k1ti+uv0WnjLL33Pfdz5+0nEFKwtrrG09/+Dn/4+3/IRz76MLffcQflagXpKMrVMkoI8p5nExjHwJVmJ09eaftSqEiBugfWjBWbpJQ0m006i0ugFFMTk1bXJCRKWDcciYgd2LtxSKJvqPv73dPzmEtKOCbikoQW6EATNDvk3Rxoq4PKNrLfkb4fO3rAJv7C9PEMid5MIlBISsUStZFRnv3uM6w2W/zNqKvbS4wIUnRViUJ1daw3p0SXlrQtIoxCdBDRWmtwfWaO5loDz/EIMWgRxXeRzuP+fAFJuRvKisYam/rPb+80O6wurVJfqyM0eMoljMIdWNB9G9mg9acNERFSSDzXo9VosTC/QLlYgQgKuSImsolUEtA0VsnZLTaZzz3zuq+eeE5m9dtC2sQ3Ulmj29zVGa7PzXP86PEYBxK9Z/JETYqaqaFsEwY/EzdoPbtgn55yVDfBTty+lAMXsV53B+gWxPOs/iHL0SULT2yaWxTE1sb+a03fNTcBTrOuCJPJl2mpNlJjdKSGUop6vc7Z02cQSnJwepqjx4/h5XKEUUhkonhnFjFQEnNisQiqEyNxRh+UXJSxpqQgYyxAhWGI7/spO33w4AEcqWJx0upRhZLdPUj0i5ImVbh36+0VAHs5zfi3yOApl0qxjDSC5aUVOGQBqqedmaHvf3zrOdju9z21xV/I+N9ItcbRw0f5ulD4Ld9O3kRUlCC6q4kEwnpbshElMNvds40BtAVjz3GRCNrNFn6nA65jQziNPV20e3qoQPZ73/V97J9XOs7klHWxkUjCTkir3qTT7IC2nF0/3XRJ9E1zg+l73slTzVwoE32yJugEBH7A0uIKOohwvbxtb2woS3SgGt0j0nUZgQxosl64NX0iR5LgWkYaE2kQkpWlZfyOT6GQx/M8hBFEUZTihE64/VRd0B2bG65yEw9AvJtHUYRAUimX8X0fxyiUo4h0hNbaMg+JxVawIy5RO6fTjDfmZPKKVPmxCQ7R9D6IBCD7l47ZqpZYJPeRLpCsN09GKiSIIvwgQChlra2x+4TFQAuE9nlbTlMb3etOkinTtl30NCKRglJdj+syMjrKxMQErmcNTUqquF6T3tq/wpJxWPfwTVeIT59BBogcx6FYKJLz8jjKsZxGnN8y2YsSt6t03NZXP0AFEj/rng0uKc+6apWKJQ4cOABSIgXoMCIKQyKpY263yxXLmAPaKqeZJJR2pINyJFIotBZobRBC4vshjlKxN0S8qWOP68jqA7ulrp+3yfwzKecfj1D8fD3Xo5DP4Tk2O1YURCilsoVm+rau9J4e94O06B3ift4zdTeKogg/8CkUCjiOPZK6XC6nIJ+4vHVvND11ps/cdPva3xrRx50YrPEvihmBXKlEEFpvFCFknIvArpnUgGRkfFSKSMswdPWs/Uu953kYMmol6zK3NLvE5z//efZM7WF6eprJyQkq1arlfqU1yhlh0ELfMnDuuCFofmGe6wvz67ifrZAwII3s4SxNPEm34opkhD3WIgFxEbMiwoCjFI16gwsXLoDWXLh0kUCHlCsVUAIdr4R0gYmuH2WkNRHWBy/dkRPQzHIB64Df0G5bsQnX4eD+25idmWVpcSm2noM2UZwFyHQ5zWwpgp7JRbbOdUOTnEskUELRabS4Pncdv91hbmaW0/k80lHpxpKFyZ5s7D119XL81qUrwwWRGQcjkUIijWJpcTHV275+5gxO0SOSUZcxj99YkX4r4jld0Mx0YX5mjrm5edbqTWauzVKsVDCOQieclYn9OJPn1re5W7t3dv51n4nBelJYNx77jTCwuLBAo94gDEPm5+Y4c/o0/blXknLWUTr+68d8MySwCVnQMDszS71ep9Vp89prrzE6NmY369CmAkws/Qa9jmO04LbxuA9am8IRGAlRFNqTCIKAq1evcuHiRfK5XCxB2WefAHI6j3S3bi3sa71EI9I5njAkCb4kfqIz12b4wh99ianxCfbv28fkxCSTe6aojlTYe3Avtx3ZT6Fkcy1kN4Xt0I6CphGGl195hce++US3Uz0LbHOUDIrMgibrRe3Bbej9nJ2zgtiXL9ZFBR2fi5cug5A89fTTyGetLlMqad2LRJcLSheQsC4k2hgrYaYChUn72wWwPv9FbTmsxcVF8AP8dptHHvlSKlYhwHr2ZQ7gGMisr9frpHVm2OeEfxIGhIbIj0M363WeeOKbPP/iC6mzqRG9ZScLN9sOkrL66+6bgCkYGSueKxRrK3Wkcoj8gM//5y8gPIlWMVebnu1un3kCmv1i4EaUtFUbQ6fjIxGE7Q5XL15maXmZJ598ktdeP0MzDNCyy2ELAyoRiPo5TbHegyHhNDX0iOci5laDdoeLly7jBwHf+MbjFIslwijKrE+T2ZwG9SLuR9+meDNKVCJKWp/jZqPF6+cu0Go0eOSRL+E4Dq7rEkYRkY5S8dwkER5JC3qipDaqqxc0hQDpKpAQhAHtdge9uMxTz3yf+po9+tp1XIQU3az98aSSGY7VkPR7PWhmwRK60o7A5lJwpEO71abVaHKhfpHzZ88jpCRXyDE6NsqxE0c4dvI4Y5OjlEcqjE+Mc9u+23qHfsPnsp52BDQN3cFuNJvMLyzGLDQZdlx0F/fNC7T7fA+n2atrWUfZBd5bVPYSXKXAGKJYRGy2OyAEfhAStDv4UYg2oTUmiOQUSxDajqzlaLq8Vb8edb14Tsrh6ihCRxGNRgOiiHq9wfW5uS5oSptVKUq5r/j+AaDZ1/WUq+9yvl2tl+UOLGguLy+D4+G32qxI27/+crOgqdP32Y1hAGeZbU+MdcpIpBFIFEEnolqpsrQwz9VrM3hFDxwB0qwDTQdJCt6bUMkk7dXGWMduBEGjReT7iChidWkZbQyNMEDlbF7UKIoQWiOTza1/jGVvr0zf/z06TSNQUqLDCN8PaDdbzF2bozJSRWNYb38wGy5Sg4mf/+Y5ISG63JMUEh1aXZ7r5VhdWcMPAvL5nN2UE0NQxk8zrXszYaXx2kwmqJRWKgsiu2Y6nQ54OTptn0uXroAQlOIMXlkXpEEqOC26LEjPlpUyUBmllxGx8VQikLSaTXSoUUrF80DRbDRp+22u1xf5wZmX2bNngjvuvJ1Tp05x27796zu2SdoZ0Ix3bq01D3/kw3z4Rz6E1gYTmXR3sXNk8+4X/cDTrwwf2I6+v93bRTpPtY4wWpNzPVaWlvmt3/o3fP+5F/gH/83fJ5f3aPlthAQZA4oFTYOIN0kr7vcupkGictp2021K6AfU19b4wfe/z2e/8EV+/tN/kXtPncJgXXOEtFZz3TdIYoMFlu2moAseaQsyjJorHJqrdb75xBM88qUv80u/+AscPDyNcKzObRCnmd2IutbpDUCzhzOIgTrmMx3hMHN1jn/727/Ni36Hv/FX/yp7D+xFuhKESY+/sONnLe62TZsXz5P2FotFgiDg8tnzPPaVr/LyK6/w5z/1s9x1772Qcwl0hOu6NoN8IpojesRzkwz6gMmawGYKmjrps2Bh7jpffuRLzM7M8omf+WlO3XcfwQb+kCbmKnq72JWmtiqe+7FDueu4zM3O8fjjT/DY40/y9/7u36FYLFrAih+WlJKuc3um9s2AJuvXZhAFRNpara9du8Zv/pv/j1P33sPDH/4w5XIZ5Th4rtur3+1fJ5lNMjtv7ZwTMXb0yzik8/zsG2f5R//dP0QrQElkwaGSL1Ipl5g+epBjdxzj0OFpbj9xO2Pj4/idoKdPWxHWdwQ0lVI2iW5saU4U63YydveMrdhx+q3lG+qC+qh/smWTB1u3H0mn3SH0AzqNJjqMEAjGRkcxEhzPwc25KFdaMSx5iPGqNGlpSfl9dQ7iqONmu0rRqjc4c+YMkdGMjI4yOjFuuYsYNFOuITsWWwDN3j5ngDMySAPj4+Noo2k2m9RGR3E8twcwkzHcSES349BtSxd4ukV0gdSK5gLJ/PwicwvzeJ6L4ygq5TLKU6l4bss3faC5YZd7KNu+XC6HjjQjIyPkC3mkUhRLJSamJvGKBZp+x4rUdDnwgaGDNwBNQ/ccJGIJRBjB8vwige/jOQ7jo2NUq1V8o9NNsOcJxieW9m44pjveWwRNre0ZVzk3RxRq8vk8EZraaI18IW8jdYIgTZgiYjWTkKTrymqtdBqgsBH1r02pJMpzLLeNoem38QOfvbftZWRkpBsplTlUrx94s2ObnU/rZare720+WIM7koPRAgjB/afu5fDhw9x9910cPHSQcqWrchNC0O50BqpfNku3BJqp1TV++KkflCAe1L5huRHm9QDPRqB5s0JIuSN7ZcrMp5MzCkOkgXwuRxTZB+k6DkZrqiMjrDasMSaMoq5i2oiU0+y3fXYneMIprVdBJJgntKbdbtuF5Xm0/Q6d0CcylgOWQg6MQtmMA0J2knW5zWSXBgdhQVkKQh3ZKBEdEUWWu83aUG8Gmj0ilekVpbpuPJYjNRgkikiHtNotVpeWmJ6eplAoYDKIm0gSVtiyX25l90/aGYYhOn6ufhgSRBGlcpkwjNDttm2PVN38AekY9y7IfiBNFylWZSGJObN4fkgDuZxnE6M0mzbhMqTzcb07XGY8+xbJdiJ1tI5od9pEYYQ2EflCnka7xcraCsVy0fZbdXMpiOSZD3I5ynCa/e8Guf5Zlx5DGIW4nmtzwwpACFqtFo7rIqDnKJdB5STjlR3s9X4UpvdabZN6H7vzGP/8N/4p42PjeDkvjWtPHfmxIr7W2oaVKqcn29ZWhnzboNkTtI/tXJbbGAxwg8XzdcrxZODWTdobLyOT+avTMkVXnBRWByMiTRgE6CjCVa4VjYU9C0gpBwxooTNbnrUODqJ+eBzUv6QYz3UpFQp4OQ+lFF4hD45N1CFR8WbRtfJ3O9bf7xuyAeklWY7TvjFEJmRpdQUc66cns355g5mrG9ctiLMydT+LFGVNHH0jyOVy3LZ3L/MLi3ie7X8kNFpHaGO5JOVaj4YoDMnn8ps/LTNTfZQBTW0MkdY0Wi2CwKdULBC0W6AS4Ow6xveaDG37s5JRmi1fJI/D9ET7CCFYXFxkdXUV5TgQb07Sc8nlc/hhyNLKMo7j2PSAmFQ87oeOfm5+M+R6nnU5Cq36YXRsFBPZ/KWhjnCU6slvkACjBReT9jnpS+/49jlKpYiVuV5a67jv+9SqVTqdjs3zkMtRyOfRGPzA+icbTI/B1MSAkbhqZzf+7Nhnja6ZnwmM9QqY2rfHuhhlGOUk8MIuY9kTopzdCE0slfV0coPFsD3Q7CtscEhUP8yJ2Il5IGz2XS3I+o8BfR3auF0JYHZZfdMzzmlmItPVnURhZK9MkUNYziDhpLO738ZV973p6V7MbRqKhSIffPAhjh+/nQOHp2M9ZoIxpmc+9M3l9YX2fyMyky29OVmVglwhx9HjR/m5T3+KickJpBQpYHb3qA1mSs9YmHU/9HO6PYKDMDiOYqRWxRhNo1FH5RTCiZ2tjbBO/0Gnm29TQOLosFkSQD6fw2/7jI+P82f/3J/lE5/4OFOTUxRLJRwlKRQKNhY9OaNI9Br1oMstZ6tOOJfevSwe7XhM2u02nuey/8B+Dhw8SMcPkBg6YUiumO+63vS3u49p2E5GfWO09Us1Bi/nMT19kF/6+U+j3DhSR5AC5vqbb1Bwn4RnsnMrJhUHDbRaEUpJjh87ytjYOMpRsRogTq6d3dBT8Uusf8bJ2jPJaJCu7Y0an3DS670TshM35YJ6xrx/vnbvG1zjW5qww3Z+wGIf8E2/e9F6DcgG5SfvEw4x3T3XV5TqKmN/u/6Fn3AhJrYyZoFs05TMFW3w2x0UgpFyhVq1SijiNGpK9CzeW6WecjKD5jgO+2/bz0987GNUR0aQSqWRGeleJky339DzPimu3/B1w3bEmO3mXMbGx0BHLCzMU66V8aQNewt8H6Qgl/PsuUXEC1wng7c5CDEYGw0kJaVymdFaDSll6sDvB2Gv9NLj5L2Z8nv7Zfr632w0cJXDwdv2MzE6xmqrgaMUkYh/c93UgHTzWrZAMUdNLKF4nsf+/fsZGR3BcRXWOW5wVoHNGVd7Vlbv2jSGtm8DMrQx1EZrfOQjH0Y5jhXLldgglDRj9Eq3ekEKkjElMGdMdiPJ7G7pTpb1vxQ9JSSGpExp20zPZ+ktBM31w78hJYPZ07FkgLZTaxqf1K3CdIdQsNGaSaIURCpSyPUbbaaeQV2x26oAQt9ndvY6y8vLHDh4kOr4KMIIIpPUldxzq2TdXKyS3E64yGgkgkKhQKlcAiHiqI3MqZBJxMsAwEyfRZ9UMXiXJt2ok3uV61CrjYCOWFpe4jCHEUDQ8VldXWVxeQkjDAf272ekVsNxFGFgxS5jtJ34yUzv2wljrx9ECgz2u8hopFQ4yiEIQ2ZmZ7h06RIHDx5kfHw8Dqk0N8x41NvTLHDa9mitUcLOoLW1NXSkKeTzREGIDkLOvXGW60uL3HXP3eSkyqgusmOUiiIb1Hvj9hlDmvVfChvnnS/mUZ51vwl1ZNMA9rEem7YTZOsS2fbaexPvD4BcPsehw4fQJk7oLTK6zIw6I1tO1hAlk102sz4xpssZJuDXF3p743HKgqb93O9bPEjnvNHc2BnQTLmxm1zENji1LVDXMJW8MgMZK78t6AlrABDdQYziuFnHsdxXZLJprTL6K5O9b10LuvUlCvVk4hjNmVdf5alHnwAEH/vJP8meySk6Os696CqMFJhIo41OjQtJid0JltAGbRDE+jxQWOBMnL3nrs1x4fx5At/n5F13se/AbdaqGIUYRHfC9ncxM67ZxZLtd/8Rx8aIHhGokM9zcHoatGZ27jpgMy/Nz8/zzLPP8NqZ04yOjfGxH/8xqtUKRgqkEql+MjEyWmOZBQZMLCQk3IoQGG3fr62tMjc7h1KKO+64nXq9zh/9wR9w8fJlPvZjP8577n8P1Uq1J4Q027WuHrhX4umOg8FRik4YoISD1hFra2tWDVGp0qzXeeP1M3zpq/+F+aUl7jx6DCEd6yccb+I2/F6n2UoGAlhGQtpweSWYYFHTgmE8XkqpNDWeTI4p2EmKE7MgLXCb2EdSEec3jYNAIDaebbB2RCx1JTrHRrvF9dnrXLpwEddx7cZpoJAvcOzYMUZGqr0BBkKQy3u0222UUrGHAGhtbKIc5aC1sXl0O20bSixtxqswivNMSJutyWAIw8Duzb0Jx4Adjj2/IR6a/ux5bw71i5aJeBaFIfMzc8xcukJzZRUHxdrSCnPX59FRxGOPPoZXyIEDt991B2N7xtcXvilR0Y5CFLtuuI6DNuC3fV564QUee+TLHD56lOBHPoKjIdQGIw2GCOmoWFOQ9SGMASlevOJm4pSgu6Mba/hylKLd8Xnl5Vf47Gc/R6vZ5L/6K3+Zffv3pQkN0sQkcR96AZJUzBYkG5/d7UUMVl3FVG+u/KQPuVyOAwf2Q87j2sw1Wu0O+UKRhYUlvvPUd3nppRe599334Qc+kY7wWz6el4izFtQkMg2bk8g4ljkJOo0BCNuPen2Nc+fPoqTi8OFplhYX+c+PPAJ+wF0nTnDijjso5PP2OGGVYaOxm2p6rk4PM9BFL4E9F8eK/ga/02GtXqdUKrF3zx7azSYvv/AiTz7+JB2/Q9Tq4BRKODFARsRgIi03iOnGz3drM+sj0gaQwPoVJ5JpEuOd9CHL3W1ZVNsUxeMWc96DFNEpLzjot8QChLbHdQBhp8PczDWee/ZZ2q021+euc+L229kzOcWhfftR5QomjMBom5zFc/CQBKFGGZDSAiRGoGLvl1Db9HlKG0Sorc5VKrSxNg2hARNZLwMkbKDWeIuTEJsNd5p11637JqYb3N5zTwxwNs2YIOiEvPTKy3z9K1/l4oVLlJRHTijm5xfRYci//Xe/jcq5+Cbkl3/1r/HAINDcJNkF3F1sc3NzXL50iatXrkAQ0lhe5fXXToNSiLzL9LHD4CrAZojp4cpFMh6GfuPYRv1PnJe1tr6fQRCwuLTE5ctXOHf+IkpKlpeXWVpaQriSQqmEcu1ObHQMPHGBWakmC4u9dZoUqO3CtUAfv7WblzC4OY/axBjX56/TWFtjcWGe82fPsrqyAkHI2mqd06+dpr5Wp1KpcOjQNEo51r9WKRypkHHWoNSXMG5jesZTjB6FYoHDhw4hheTSxUucOX3asqVac+3qNZ5//nlqtRr79+/ntgO3rZceEm6zu9r7eGviZCDWIt1oNFlbXWW8WkNrzXPPPcfF8xdwhCAw8MqLL9mjTapVpvZMUiwWEVKilaRjdKwaiRNz9M9xYTLG1gELIGvZ75sLKSeblHPLjMv6GZjdYHtF995rhGDdzMmSzIB8zvPYv3cf7z51H99/9vu8cfY8n/5zP8vE6Dhri8vMX5sh0hGjtRrj4xOszC8SRiGzs7M4jsPk5AT1egPf9xkdHaNYKLNWX6PV7mAELK+uUBmpcOToEYIwYGlpmfnFBfzAZ2Jqgtv239ZNbtLLE7yFoJlWvMmdbt3ESRbGVm6CMLLuFsVSkQP7b+MDDzzA3cdvR4YGv9HipZde4dLlq9z/rvso16rInMPePXs318YbtMJRCoSg0+nw1Pee5pEv/xfWTl+gBMxeneF3f+f3yI+UyVWK/A//+H/itkMH6ZiIKNI9XF0CQqkQKhiwqix1OexYnSAlBsPVq1d54fkXuHDxEgQh5HOcPn0GoyTVsSon776bkbEayd2J4rxHt0miKlgvPtp5lTh32BKS8NPsc/PyHnv2TnJtdgaM5jP//t/zzHPP0amvgR9w/rXT/KtLl6lUK3z0Qx/k53/u58nlPIJOh3a7jY4sp+B6Hp7rIpWMHaa7bQrCANdx7HnrQjE7M8NnPvO7fOe7Tye7GU9869t886nvki8U+HOf/AR/5s/+GfozuKX6v6TR1LOkAAAgAElEQVQPGS4z2SjCKLSSTKRZXV1ldW2NiZFRXnvtNf71v/5NWs0WQbuN43n8b//0f2ekVuPUvffwiY9/nFP33oOLpBlGGCXRaZ22jb0cZzwHjGC9dj5p8HrLeL/KbKD4vx1at78kYtHGKax7AXNwOTKJGDJQyBU4cNt+RotVLp+/hPYD7j5xFytLy3z2C5/lwsULGKM5cccJTt55kie/9SSlUomXXn4ZrTU/+tGHOXf+PJcuX+Y9776fu07ezetvvMG5CxdAwoUrlxkZHeEv/aVfotVu8Z2nnuL18+fQRnPs6BF+6qd/kunDh/r6aemt5TRvdZO7qWScmVAJd2AMfhBBGHHkyBFuP3QEx0g8JNevzrCytMz89QV+7Vd+GZVzwVVoBWE8jen7fytktMZxHHs2ixBERhAZ16YukwqlHJqtFmEYEoShPVIjstxGJ85I43gOXsHLltrjTL/ROEVRZKNjgojz5y7w+ONP8OqLr4EfoJXLY098m689+SR3330n4xMTVEcq1ngSRZhYwhJCoBwHIbuRO0BfHoCE24pBPubMEs5CdB8GjucyNjbG81dewmhNFIT4zba9yXVBOOS9HCUvT6vRptVskfNyrK3WWV5aor5aRxgYGRlhfGKCSq3S42doYlWDHwS8/voZnnz8SeZmZpkcG8NzXPxGA/wI42mKhSJKJKBL6jcosHrlRrNhdXSA6zmovGtXS7qJWVc1JRy0CWk2GjiOQ6VSIZfPI2LdXM7Lxf6aOdych5fL4bguURBi2j4BmmYUEIkYWIQmQuPmHFzPs5JS+rwHAWbXZaznmyzQ90yNN0lFdlMrvFjHzPfcHhuqTBxh5boujqtoiiYmskbYTtvn6199FEe4/IWf/QtcuXKF73znO1y5dI2V1RVGazX+2l/+q/zGv/yXfP7zj/Cn/9QnGauNc+3KDGhJvVHn3Nnz/MRP/Dj33Xcfv/nb/5bvfvspTr9+hlBH/PhH/wQdv8PnHvkiBsOv/uqvrBt2Y3bxGUHZrOoQh3pKhYvC0QIVxUrqMMIRVtfSq4eLd/5UXNr6ZEt0Sh99+CPcffIkX/0Pj/DNzz7K9PQBPvlnPs4dd5/ALecYmRonNIbIGM6+9Arf/MrX+c73n0UryYc+/BC//Gt/I+lVym1apn39Ekgsok58/IDRUMzlGa+NUatWWW52kCgmRkYp1co23K9cRSE5d/48Z8+eY2VllXarQ8HN8cB73suB2/bj5Ty0MPgiJIyTbKTbSkaKTQcwfQ7xOEiJEYKJ8QkaC4u0Gi3+yi/8Eu+6+14ee+wxXnv1VfYdmOYXfv7nOH7H7Xg5j+uzc/zOv/sdnn32Bywvr1gjT6hxPJd77zrJJ/70xzn17lM2sigVpQRIQblc5tChaY5NH+aDD7yfD7//If7hP/rvMSF84mMf44Mf+hC18XGk49Bca1IulxECRkdqnD93nv/xf/5fuHjlCpHWfOxHP8pPf/KnmT46nYrRGAuaXs7FIJi/voAxhnKlwv3vey9/r/B3efpb3+ELn/08XqHAr//6P6Y6Nsro2CiVUpkXvv8DvvgHn+Xp555jtdUEz4WcB66AxgoP/dTH+OQnP87B6QPWA8BxepAxe5Z5Alhd74EMcPb4/r45gClERoezTTIpw2Mnt9aaUNs2h4HGhAaM5Nq161y8cJHXXz9HEAS02m0K+Rx79kzx0EMP8eCDH+QrX/kaQRjy7ne9l4WFBZ555lkEknyuwNjYGJ/62U+BgEcffYzvPf0Ml2ev8fCHf4Q7T5yg1Wpy+Lb9nH7tdGqI1X3AuWtBM0tpRhcGPFpjtW82EseQShqpxCHXiUubrtMWj1SKsbFxKiOjRNJFOB65YpFitUKxVibQEa+8/Cp/8LnPce6FV3DW2nRCH6dcJOclXKZJG5VyFv0KsIwIlMvn8FsdHKl44L3vY09tgi/mv8AXP/cFCvkCf/qTf4r3feB9eMUc12av8rnPfZ7vP/ccy2uN1HfViQRf/dyXeeD+9/KpP/+zlEcqCM8g3GQgM1rOHtRMWwzCupHYs+NhfGICpKLRaDB9fD8H9x+gmC+CchkbqTE5McHUxCRhFPGtb32bb3zr27TnbdYsgggcDxNpvvfd77HaXONXahUOHD6I6zr4QYCrXMIgYHRsjB/50IeQEeSlQ8HL40hFICJqlSrjY2OMjo2Dsqc0SiFRSGYuz/Aff/f3eeP1s3YzEJK8myOfy9PdGmLOWdkkdlIIVldXKRSK5AoFHM9j3/79OK6D53m4SjE+OUGxVsXL5zFK0Gy2qK/W0Z0AFRlMaBAOaCUw0val1WoBwob5DpxlAwTuDEck+r6zWN9b0lthnN0K9ZypZK2URFojXQ+NAKm46667OXr0KIVCAaUkq6urvPLqKyAl2kAQafL5Isr18IOQdscnMgY/sBbxJOtTp9PBdR0beqo1rnJoY4erVql2magEMOO/PxSguTElol03wjUJY+yKRPbvIKvfZigRUaWSNqeg0EhP4RULFCtlImEoVSqcv3SJyzMzSKUoV8q066sIDI6SaTsTfWXSphSs+ntlDK1WEyKDIwVKuJSKRYqlEmAt6rWRGqO1MaQreX72Oi+//ArXZubYv3cfeyen6LR8Lp6/yNVrs3zhkS8hHcXPfPJnmNg/iSbEGJvMJNFmpuxmPKw97RHEOUg1e/ftAyVZWl7Gy+Uolssox4r/nutRLBQpF0v4YcCpe0/xydVVxkdGmZqYRCI4e+YNnnjySd448xrXZmY4f/48h44dsm5aUhCGAY5SzM1f48XnXqAgXX76x36CnOeScy3g5nO59CWUQgiJ1obFhUW++fiTfPVrj7Jncoql1RXCIMB1XBzVu1SEsMYKHdrM8PPz8yAEpUrZqgmUpFSukM/laLRbFIpFvEIex/VACP5/9t4sSK7rvPP8nXOX3DNrrwKqsBAAwQXcKS4SZVMSqYVabPe07JBtLXZ7JmYmOmLcjujo53mZiIl5mO5298Ms3fPQltze7VZbtilZKy2KbMumuAEkSBAAsVQVas098957zpmHc28utaCqQJAgE/lHJLIq6+Zdz/3f73zL/6vV65TLFQ4cOMDHnnwC6Xk46RT4Dqv1NaYPTjM5OdmvSHQV9E7JE01Kk/hISO5503dtEsv0/UKcnfEdO0C10WhhyBZy9vq6kjtO3M7zz/83QhQH5g4wMlLCzfgEWtEM2tTbLRpBm0qjTisMwHXAcwhURLle4dzli/z+H/4BqXSKcqPGL3z+cxw6cojFpSv8l29+06aO1Wo89tiHt93PwSTNnoGxU/BJEEebY+JMHO3dCUev8/1aiDOZ6FuRVS0MwnXw0ilS2Sz1qEmt2WB0fJRf+NxnmSuOsXD6DH/1ne+w3mwQRVGPfbPRf7V1UMAYQ6QUDrbdgxFW3UU63Tw9x3XwPA/HdTh25Bif/MQTuI7LkSNHSXkp6rUG58+c4+tf/wa19Qrf/f4PePSxDzM5O4U0XZ3RLS1wsXm/kpthYnICpKRSrdIK2rTaLYIoAqWIwgDivDpHGmZnZ3nyE09QzBUo5gtE7YADM7OYWGk/ChWLi1cIowgQeCkfrTRREJJKp9m/bx9pYXMjU66H77pErotW1p+qogihDa7rYZTmwtsX+K//9S+prq7yhc/+Ot/9wQ9YXl1BR3Ev876rKnBdj3Zouzyur6+jVITrukRK0Q5DGvH1s7mK9viFa7uCNpot6vU6Bw4f4vGPfQzpebh+CjxJXTWIXIWX8vpEJTZc5U3DLCHMxMJPZk2bhmPPOHm/ECbQMQwSh7hwBNlCjhP33MUvBW0c3+X+hx6gOFZidXUNz/MoTYxQKo3gZ9NMTU7iZ9P83Md/jjCMGJkYRaZc7jX3US6XOXnqVcYnx9h3YD/zi/N8+Su/zvHjx3hIPMT58+dZW1tDSsEDD97P7Xfcznb3+0CSpuiZEhL3+lFKYZQBNJ7NNu8k40KciBtFSGmnAHHkI17h3vehlzaESIIqVjQhiEJCpfDTaer1FlpH3HbrrQghmMwUeKHWwvU8aNh+Or0H1g3BxPHWxF/V42UXG5bXRsdSZoCUKGM64iSO6zA1Nc1HPvwY6VSaYqlkfbkaZian+MH3f8BbQcjq8hILV65wS/sITsbpWpd9p6fHCu6xjISwwSLPdZiYGCdXLFCulmm1WxisFY5WhGEIAoIwwMSW3OzsLK6QqEDhSgcXSdQOENrgS4fx0THbaVLYVgpSSqTrMjY2xkiugBfrsuVyOVKeR9AOrPCwBt/1MNJBK83iwiLf+973WVpe4dDhIzzy4CP8/fM/ZUWt2DQsnTxUIUmetC2KFeW1Misrq0xOTFAo5HFdl0wmg59KYYwhlUrbcRZbjUJCo9mk1WrFf7OPbMdz8TIpUl6aSET27nRsalNX9XwDzSX+zA1TSEuYcXCl51pcPWntBqLHtWREJ2ENL+Nxy/FbmJiZwM25jBcnKEwUqVarRFFELpcjm80wOjOK67ooT/PgRz5k/cvFAqlSmpHpES5evMgrZ04isy73P/oAs4uL7Nu3D9dzSfk+I+Mj1GpVpBQUCgWyuey21v1AkiZ0gzkyTr0RCBYWLrF0eZGw3kRGhuryCmvr6zSaTX787I9JpTMoYTh24g7GZ6bfmW87CUoQ38hxOkWkIhqtFq0gQMSfeZ7H6OgoQoAbCSJlCU6Y/utmel7Q0/NI9MhsCXvMRsp4imZQJiEUB+H5eJ5vSyi1xhMeQkgmJiat0z2y5CSlJJfLkcvnMBicbNZSdVJZQtdH3H8bm80P6DjI5rkuMpthcnyMWr1GGIW4casEpMBxJUorjDC0gwDPdXGky5kzb7FwaZ5Wpc6ls2/zsxd/RiGTY3b/LLfdetz6JF2XCDtFRyjKlQrz5y8gAsUj9z2I57q0Gk2kgXbLWoc2QV5Qq9Y4dfIUL774EqVigS987nPMzuzHlx4oHbtrEm3SOBXL2PQmYwzLy8s06nVyBw9SKBTwPLejWem6LgpDGEUoowmiEB0pmzPYbDG/sMgf/NGfoKUgX8ozOj7GnffeycTMBOm8jcJ30jB7/X1bRcY7hGl/kF2a71kIdk7duzHozfG041yBMGSKWTLFrG3UJgWpdJpUKd333VzONidsE1CYLHY+99I+Pj7ZRo7J2UlEWjI6NUqulOvoUWhhSBcyZArddWqjewsG6T2PA0uaYAe4jHMVtdGcO3een/zds1y5tICnQQQh85fmCYOAv/iLb5LKpAmM4teKBUua7xCdQIiUONKyoNYR5UaV02++waEzh4lExOTMpM26cTwr1Zbk3PUFW+h35Ites2LDcYuekYfpWEZCCoRje6c0Wy3aQRsv5WGw/WWUjqehjkMYhVTrNRaXrqC0YmJynNJICdfb+5AxRqOMDZyowDA1OUGlViXSinQmg+f74DrUG03eeOMNCiNFEILJySmiMOAnz/2El158mfWFZcpLK2gMR289yqMf/TDT09NEUYSfTttqqtgqq9XrvHX+HFG9zYP33o8CwihCIjh39hznzp4jjBTZQoEri0v84z+8QLsV8PCDD/LExz+B53g9En2mQ5gd/7exdfNSSNZW11BKkc/lyGSygO0KibGzmSAKeemll5k4uJ+RkREkgnq9jtaKS/OXOX3hbXQUQjpNaXyEj85/mCc+9QlmD83iGLfTgtb0PKiS37tZdqZ7zXsu/7X64m8kejMA+nJNXYHapBG1M7TWZItZHnjofpRShDpCuKI/QNw5kabnPhMb3GHxblzjcX0gkPjRVKSI2rYsr5DP0yoUyEgX02qzOL+A5/tMTk6AFAjPJZNO77zyXe1A7McSAuk4jIyNMDI9wXp5ne8980NWamvsP7CPJz/9JLlCrmew99uUvcezNU3uDNd18HwPrRWNVpMzb51h5uVp9s/OMjo2ius6qKirRtNstfjHF17gwqVL+KkUt912nJHRUpwwvzdoYzBK40kXhGBmepq3zrxFEIaMjo8xs28GN5vlwvw83/7bv+XKyjJ33X0X4xMTCGHdGe2gjRGGVMpHY8hk0oyOjlKtVpkoZGKpNxM3DrNugBMn7kK1Ahzfw0+nOHjwABfOX+TUqdcIlWHu4EFuOXqUcrnC6ddPMz05yVOffoqR0gitegOBtqloyVQ3sTTjaxNGIRk/w8rqClEUMTI6Qj4OtuVyOWbn5qyPs9XkT//iz5k8OMt999zL4YMHmZub47HHHgPPpWU067Ua81eusLy6zNPf+z5T+6cojY1QHC1a36PTdcVsMuR7R0icm2x/vdbRcuPRbZe8xT2w10OSkCvlOFI4gkAQ6DBu/reh3DeeTfQ+dLaC88u/8+v/q/2W6POLfXAhOv4RexNZhZy073PowEEee+RRPvnxJ/jYz/0cx48c5cL58ywtLfO7/+bf8OSnPsnjH/84E9NTVkwhcWu+g9Miemz8lONjAs3S6gqBjjjz9jk8z+Gue+4im81ahRptuHDmHC+98grNdotDtxzmgYcftBHo+JiSaVonUCWSWpJ+z7/o+ec5Hs1GgxdfeZXq4iJvL13h1VdepVGvc+jQQbK5rM1ldV1qtRovv/IK/+nrX6fRbDK7fx9f+tUvccvRW3B8196Y8Q5sHjKbT5jRgDZ4rodWEZcuXuLUa69z3733sn//fuqNBrVqlXYYsF6tUqtVOXT4EAcOzJHL58lms9x69Ch33HqcyVE7tX/jrTOcPP06E1PjHD1+jEgrjCAWoTU0anWq1Sq+6zE9PYPn+yyX11hYWgIpWV5aZmlpiZXVVc6dtUGAu0+c4Lbjt7K2ukJ5bZ1nnnmG9fU15ub2MzY5huM5pNKpjnqUjjQpP8Vzzz/P2bff5qEHP8SxW29Faaucnk6nWbiyyFq9xkqzwaWlJabGxjh+/DgffuQRPvHEEzz2+ON89PGf56677yaXy/HG+bO0qhVWKuvMzc2yf3YfjiO7vsu+8wzQK3MWjwiREEL3WvSST1LpJLojaC9D+l3FpvEkNpOX2OMLsME4ZTUoHEfaVMK+Nffoqia/x77mZHqe5EcPpKXZORVx6kKiWK20RmiNo8E14Li26mJjn+dOzXFPYOOdPk+EEBw9epTpX5vm3gfu5eLliwhXcNsdx8lls/ZiYpkxEYtVJnmydlND5KaLnWygfxovE4+WLTPB9T2OHb+VL/6TX+SP/+wvaDaalGs11tfXCcMQgy05jcKQ1157jT/64z9maXUV6Xv80y/+d9x5152kMilCY63RRDEqsQe2cxWALX02UtqGdY7Dvtl9NIMWkY6QrsNHPvoRbrv9Ns6dPcuVpSXyhTzHbzuO5/sEQZsjR26Bw4cpeBlUvcW3//Y7/F//8T9w6fIlvvPdv+Xhjz5KbrSI43u0Wm2Mgcvz8zz9N0/jSZeDhw4zNjrG537lixy+4w7WLl8hrDVQSnPy1CneePMNpJA888wz/PhHP0JiXSW1Wg0p4Lmf/IRn/+F57n/4AX7zv/9NxqYmiKLICodIyeWFeRzPQ7iCQIU2eCNhfP8Mv/HP/yfePHOGt86fo9qoc/999zE7O0vkOaxHgbW+lWZyapJf/KVf4OzFc3z3mR9y4dx5yuvrXb915zxDN+KTuDBNR2zFBn66dAhdH+Ym4tz2it04GNO/n5sCVz1kv1vYpR0cV4LrdT/rualNZwj3PJYSsuxuenBJE7qBbyl7rLAtkASL3m0kLQFKoyUeeuQhHnUfIVQhWhgczyEI2rZTJpLeRmOdCxZz0hb57Ffbqv1u7BsaGR3h87/weZ74xCeIIkWtXGV6eppCsUg7bBMEAadOneLP/vzPef3Vk2THx/jql77Eox/5MOlchkazjpEg3TgNxsRq/Fud276HuEQ69sElpGBiYgIT5yq2wwDHkYyOjTI+MU46nUZKSRhFeH6cHhTZ1sct1STjuszNzXHo4EFWX32JcxcuEkWhVQ5vNTsloAcPHuSXv/hFMOCnUzTDAC+T5o67T5C+6x5SOCwsLLC0uox6SREq2ztKYhDaEJi2DVI5UKvXiOoR1WqVZrNpU7Uch0a9idaatfUyhULe5sHGsxNtNDiC0uQ4D09Pcc+D9+O5HkFgm3oFUYiQDr7n4khLimEUUSwUcNMpokbNlteGIY6RsZhw78nttzl77dDtxsT7yaK8GkTPuN04tDZqgu4d2/CAEJtJdKtvigEmzS52PsHvhVvCGING4/senvQIw4BQRWhhCHVo01907LOUEilF5/WOEQeNdOxEz+SyuNJhtDSCIx3aQZsgaHPq5Em+9Vd/xYsvv0JxeorPf+bTPP7xxzttKkRsLXaDULvfvBDWF2qMYXx8HASslddptVvk83lSGQ8MNJtNtDG2moYUymjCKCQKQoSJkMKlUimzuLgAKiKTTuE4LkopgnYbEPh+ikKxSCaTgVhDUSmF60jyY6NEzYCoHVCcGOWzv/QFPvzRj6AiZYP4Nl5Hq9nk61//Bm+dP89HHvsIj3385zh8/ChTszNoDK7nIZ2A5ZUVKrUqB2ZnyefzfcftOA6e57NeLlMqlgjDkHQ6YzMEsK0p2kGbrJciCkNcV3L2/FmiMGDqwBxj42P2+hvTo2Lfte272JC/22lx8sELAm3E9Sf6Xa5PbEGc8VdvAtLsTl/eTQHkHfcBG9UNTIjUglAFRCoklc3Qbresn0xrEFZ8VzhxqlTSDKvvWsdR3K1027aAAJQVpSSVShGFEa7nEbashWY0vPjyS/zlX36Ll06eojhS4rFHH+Fzn/8cxVLRtnp1BLl8jiAKCFW4xRb63QMbDp7EOjJx5Y5SmmqtZkvbsNN237VdDIMgoNlq8Y3//J8pFAvM7tvP9MQkfgQXTp/hmWd/TLlSwcvluPXoUTzfIwyCuGTVNtZ69dRJvve97+N7Hv/z//A/Wu3LKKLcbNpUI63Q0jC5f5p9c/sImu3Y0rSkWSmX8TI+kVFkC3n2zc0yMjGOAlpBgFItHCmZX1ggihTFQoFUKhVPl+0pUVrTrtdJpzO0g3bnPL3++utcWVpmdGycmYlJqkIyf+kSP/zRD/nZCy+ACrnnxMc4dPAQqVSaKApjP+QWOqfJye45x9uOhw+GodnBDSPMHRa/KUgzaeN5+o3TvH3mLM1KDRFEVFfWuHjpElEU8a1vfQscicLwwKMPM3Po4PXdB5LAlEJhgzqO72GS3MLYoS8RRHH7WeFIq3PZCWvF6+ohS2tQJEE807e9OGxEt+9u0uva1vMaAYGK+LsfP8O3/vqvefWlV6DVpuk6nD13jj/4wz+kHbRptlooo3j44Ye474F7Y8vTrr8be9rBUWBiNSFhVdzn9s9QLq/TaNQZGS0RRgHGaDQG6ToQwY9+8ixaG3zXJe35lByfqFzj0sIiQdBmfN8UTz75BI7rEiqFkLaOPJ1OMTU1xR2332YfCrG4iBGGuOknSIl0wTi2usnJen2k6ak0ygUjIkg7ePkMbiaFFhBhEI5Ea1hdW6PRbDI1PkGpUOg7E3bWYK0+FfslXdfl1Ouv870fPYMxhrTrQaTQSnNxYR4aTW57+EM88uBDTI1P4giJSsShd3g+9kwuN30CbJKKG+LaMPCkqbWdEptIsbq6whtvvsny/CK6GaCaLZZXVlFK8Y8vvICfThEazS23H++S5nUcZEbYfFEAI22Pb9seQGK0RmB9fqWREY4cPUKt2WRsfDyOVm+8EeLYaOy8Tt63MvMMSamo6NQjK6ORrqRer/PDv3uGV19+CVpt8FKE7TZvXXibtxcu02g2IQzBEaSyaQ4fPURxtNCZu3QDClcxdRMLySgEtoRzfGyUWr1GO2gjRLePjAGMtD2FHrjvXi5dusTyyhpLa2vUQ82om+LWY0fYf/AAh44f5fY7brfOede3XSOEIAgCstkMd955ZydPNxFxtirt8UPIQCQilLGWfTI1l4CXS3Hg2GEaRMwc3E8qn0E7Mu50GreFFYaFxUWCIGBsZIRcJtvvc44LK1ScemaTCAzFUoliIc+lxUWuNJqYUFHK5zl6y2FG77+XRx9+mGNHjsXZBrGFvsM0aVvC3ObXIa4dA0uaAjtgE30ngWB2dg6poLFeRYQRlaUVGrU6V6KIhx9+mFTWVgRNTE7a20ps98y+Gra3A/rU13tvgjhwIIFIK/bP7eeTn/ok7TBgYmbqmo6/f8v2P5tMkDQpo+M7vP2O28jmMniuj+t6xM6EjoUUqhAhBbceP0Y2l4lX2vWtWXX2Hc7QBqm+XD7PwsIiQRjYrpix5ZvAdV0++9RTlCtllpeWaTdb5LSkID1yxQJT+2YY2zdN4NipvZPyO43UlFIsLy3zyiuv4HkeM5980hrFPdF+0ykioBPMMohY5FzipDx+/uOPc/f997J/bpZULoMWXTeJMLYg4OKFi/iuS6FQxPO8vj5VXTO899g19913D2NjIywtL6FDRcpLAYZ8PsfExDhTE5NkMhlCFdnyTbk5ALjp9G73ibjaMkNcCwaWNIE4kOLY8isBB+bmbH8RDa6G+XNv88bp05QrFX7+Y4+TyWXRUoLvEImeRBpxtYSaHlzVGugV7t3qb3ZD2mhGJ8Yojo3Yz1x5DTUQPbtE1zVga3rtwYg4jSmdTfHpT3+KZquJwIojm05GqBWaiFRol82kbSfLjWGIrU5MX/Q8fuv5LF/IUz3zFu0wxHFdUKqTGiOw+3f02FHARpWFNhRw8QOrZoMjEZkUQdBEOk4ntcpecxdtDOVy2RJZQmGmhzSFjo+yO5m2ieHdXvB33HVnN19XyljVqQsdRSwtXaGUL5DLZe2UfcP52HjNIxUyNTXOzMwkYRghDGQzWcIwIIoijNGkUimazRbtdgspJZ7v2ASynYiz87ctTv4Q1w0DTZpax+o+UmJUFLdbTVRjbATUcd1OnxfX81ACokQYQ3QH4s5Dz2x432aZTQpAPcGcWD8QCSgBRtsczcRU7MMWO7Zxih7/mFi2XevHWuFS2FrvdASsjXYAACAASURBVC5NKpuKd0HEZZ8SI6DRrIMQtnwy3tXNea3bnIoNS3VvakE+l6febMTlhLpzDTpLCGHTehoNUpkMRmvqrYBaFBCaCCFcXBNhXIfIaERkA0pBYLURp6enefLJJ21ZaM856O5jT+p3xwK1TgZltJ2AyyQvFlRP3bc0ILUhCgLK6+uMj4xaF5DRJGkr3Wh2vx8xDEOiKCCdTuN4DmE7oNask/I9HM+h1QzwRarTKqq35QhbjAOTPBI7Fu6WUbieqzAk0XeKgSVNg8H2lOoOGulIG0RRpm/6rbQmnU7Hvj6FNpJEZ+XaLMytibPbSXLDWhPVHGyXQuv4w0YpOj0jNoo1mK5Pc+Ome4izzzIRibUV+1Zjt4Vw4uBSZ5qqiLSyqTW+a6eyRnf1GTcoKnW7CW57gjZ9pzRSotlqs7S8TKPRIJvN9pwnu2y73Ua6tg5eGQOuwGR9NHYaHGLFQ4wxtmlaTCBRpGi326yvr9Nut5manqbDnHFoWySnKfZt9l2PnpmF6YlYJ+fbMQJpDFEUsbK6yrHDh/FTvlXNkiK2NsUmqxMMnm9vuUgr0ComR0M7ChCAdJ1Y/cngp7ttTvQWDpDOaOqc243X3PQtPCTM64OBJc0ESXWNs82QSSqFOiSa3FsbXlfZwg7v2y0PffNWYyPqnZtadAxF2Otg73DyFvsgNi5qOqTdd7SJmMHGhl0brJ1+K2hrbOW1KBaKpDyPZr1Ou9XqI82tDgeBzTqQPW6TZP09JKEihe95nLl8mb/+m6dJp1KcuPPOnt3f2sm3MVW3d7nuqTTImDBRmsWFeZRSjI2N2YeuFFex+Ho32P3bxun2VjXXnQfTtugpghC9v/WqoLOlupHo+X+I3eGmIM2rDolk+rPB8Ot7dY2YnbbW877Twtv5Bfuttt2saWfsQPt9lkn3GMwWN/nmE3HVuHnnKxuJc3xsjGwqRaVSpVFvMDY2FldlbG8RbUkepn9vPNdFK8Xhg4f4jS9/2bobuvTaObLul+Kqpg3nfON2kqm8jF+Rijj71lmiKGLfvhmyuVz3Ids3praYCmw8GR2i7RLbRtLdjZWYEGbSemRT58oNxCk2LzHELrCdLPQHHn3uK2Os0s4Wt7c1GuI0IDY/+e3K9rLlvdDcNsv23nTv2Yju35d+wuwn077XlsEvseG1+SgLhQK+59Go12k2GnEXwt3uZ89vG85PpCKkEPi+TxiGlCvlzXuUuCWSfyZWMEpe22xZxEQksIUKCwsLaKUZHRvrDzglG+zs8e7nLf2nLTnHO5ySvaBn/e9bQeL3OQbS0kxsIZH4qwQYpXn+73/KM9//ERfOvU1GOnhGcP7tCwTtFv/yX/0rvHSa1XqNr/3Wb/Dgo4/c8Eew2eIneDd2a6tpW5wbaPrFSna+zcSG9x4S6bn/R0pWRm11dZW11VW0Vkh3Yx+erj/XfpBYhD2dQ4XouHAFdgqvjOH1N07zN08/jUDwO//it7teh2S9O2DTcZqE+qx1ppXi4sWL7JuaZGpiwgbOlAbXiX2hdCcNiadjx63SCYgJ6Pgqe9WKdrGnPc+xoQ35bmAgSRO6vho/nUIrTTtoEkW2/M9zXVzp4MS5PI4bdw30PUa9Er7vb7faG4Ctaeq9KAnd2Hhr9/7VrZcxPeQmpSSfz7O2ukaj3thWTTxRSu+ehq611kslgu4UVkjBgYMHeeozn7FiwPG2d33OrnKINogmUFqzvLzCSKFIyk9ZUu1xBXV2WfT7X3eNXpX2rbwkwFbxt2Gw593HwJImWGug3WpjsFU3hw/fwnhxlKjZxrRD1pdWiJ5+mguXLvMrv/zLFEZKhBim5vYPH9LvNoxhtFTireAMrUaDq2tRWezGSpTS1p6nUimmp6ZsY7OkVUVsuL7zdg82eLiwvMQdt96K4zrWKhyOmZsCA02aiLjtgAAHyb59MxyY2Y8INVIprlya5/nnnuPi5cs8cP/9pPM52ioilBDd6H0fZMTW5kixRBiEtFqt3cnz9czSt10knt4uLCzw4s9+BsAvfOELexVm2rzLSeJ9LPisjWZ9ZZXCg0Ucz7WK9u+xiPfQI3ljMLCkmSQnu3GiOtrYvi+RbYvgeR6puFtgGMatV6MIjcZ0IjCis7Zrx0430jb+ql7H2KZj22m1mydt1wazDRGIbX7u3/7GmHvvL1JKxsdHkVJQqVRoNOrkisUtrE3rx0xyXG1VbLcWu9uN075sk06BQRNpFZNxUi55tVDM5mh5L3Qs1CkclzAKmZ+fBx0xMzON7/s4jrB16T1uWOtTj5XVk+u5xenayfLtnM1N16K3a5BVvTK9jmMznK6/GxhI0uyQSjKIjUAKgdYaVwhbBWRE3B88QqnI6i16tvuhFgZF90YUZvOtvDvsJvx9lb/vRJxboifiseOEdyds3q7Y+PnmiEn3773+vGS5xK8pYHp6mmwmzcrKMmsrq+QLhS1JWmDTPHTyW4+p2TsrtpWUBkc4TExOcN999/bpke4lPrLxymljK6EENun+5KlT4HkcOXoEP+XHSlrdY+7sWy8hXit/xYGkzU7N/h/tuY6JcxeEuelaDrErDCRpQpyvtpsOTOZ6+LjeKa7jwN20qhtxU2yR2sUGElKaifExMpk0tXqdeqO+p/VtuVQcjHFcSaVS4ZWTr+K7HocOHnzHgTMphc2sj/d9eXkZopCZ/fuQjrR9yeW7mMG342VMfMIbMy2GpHi9MbCk2QsTx4B3C5vGcqOJdHCRBGOKhSLFQoGVlVXW19evy7o910Mpxdqa1UpN+6nrQhtSOnESvC2fXFhchFyefD7faXp3PUT2h3j/4+YgzbhVQCxeHlsk/Ram1jqWJ7ONqa79TtvLF2+Ou2wrB4MUtg96qVhkYWGRcrkcL2wTxx3HucraEk9eNx0qiaprozHGcOLOO7jrxAl7wfX2+lK7RTeQZIOLa+Uy05MTtNotUuk0rruhtXHXQ9HfNuG9uORDX+a7igEnTSveIKVAa8PzP3me1145SbvWQEaaVrXG/MIiUjr8u3//74kwpPM5nnjq0xw+fuwattf1LG2fnbfHwZw4BHdzz7+P75PeHE2wDyzpOJQKRdqtNtVyBVc6hFGEihSO4yBjseQu5RkQSXp5Z81AVyHJijnD2to6b1+4gNGG++69953vv7ZPXCkk7aDN+fl5Hn/kETKZLK7rdI6ps6/9rt3ueq4paXNveL92mhwUDDhpglIKz02hg5BGs8HLr57kwvmL5BwX1QpoNxqYhuK5v/8p2pG0jebE/fdeA2n23RpcnTCvYTgPwh3QE5fSxuAIQaFYwHOtBFy71UY6EmIFpk1R9L5V9UaWutBxA7WlK1d45plncKTDffdcG2lu3IJAoLWiXqujI8Xk5CSAbbImJZG2EfttDvk9wdDCfPcx4KQpyOWyhGGIkJJ77r6HgzOz6FaAh2R5foE/+ZM/5ezZc/zL3/kXeOk0SsLckcM3escHGh0ykoKx8XFS6TSVSpV6rUa+WIjJyfZOMtCvKXm19WrdycqZnZ3ls099Bq3sdF/uMUjTiSHGG5XStsNoNgPW1tfAGA4cPGBzNB0JQlo9zS2Oc7vfh/hgYsBJ0+YDijiBb3RkhIniCGnHJ+N6XD7/Ns/++FkuzS9w9113kSsVqbVbGM95T6ZRNx16s29iEiuWSni+R71Rp9VsUigUcBwHpTWOkVuI8G4Pq0Zv+yApFdFstjDa7LlFc1+bk45bwfq5wzCkWqmCMUxMTuClfCKtUSrccn6xm/0e4oOFgVU5ShBFUeemEVLEJGqtEqONVdB2nDjJPUQpq/y9+8CB6L/Lks+2fMFNdQeZzUefEKAREBlNoVSkUCzSbLVYW1uzHSUdh83JM/3orNf0vBCxDKhhdW2NkydPcvLUqV2TphG2M6Vms2Vr4iiiJc0KbirF1MQkjnSIlCKIok6HT7PVkBhiYDDglqZBKTtlk0LiSHAdB2kkUaQIo9ASZNzW1hhjG1oJQ7RnU3NjEGi7ZW4e9CW198CK5xu0UpRGRyiWSiyvrLK2tha33AVpnLiCZutk960ywqxghrUIM5kM+/btY6+akRvJLinisfKCEAYhlUqFyVKJUqmENrrjSkBuoS16c13ymwIDTpoxOneNQCvbykFEmiiKOio4Ughc10V6HpEKud6VNEN0YbDtHozR5AsFMrks9WaTSqXSkYPzPJcwsdzoKU/cYc1JutLY6Bi333ZbHFXfHW2aDe/Jzx0iNYZmq0WlWmVqatK251UKpEBIZxvVoSEGDQM/Pe/CDl+lNWEYdl5RFFkfmlLU63XW1tYIguAG7+vgwwgQjgOuQyqbIdKKtfX1mDQFnud1LLfdBoKEkB3Lr1qt8vrp07zy6slriij3uhFMvG4BdoyUy8zMTHcawgkpO+WTvS94Z4/eId6fGFhLM+kTbYxGSDvgm40mS5cXqK2uI5Rm8cIlLly8RH2twiuvvkqt2aAetLnj3ruZPjB7ow9hoOE4LlIIWi2bHO55HpVqFQE4Ulrf83Zf7i2v3/Cx7/mdB2C9XsNxvF3vU5KIvpULVEjr8AyCNtVqjRN33NHp3Kk2Lz7EAGMgSbMTcjFQq9XJ53O40uUHP/gBf/7n32Tt/EWE6+EoQ9RugYb/7X//PwiNxi/k+F9G/zkzB+eGVsK7CCFsd1DX85iemSaTybC4uEgQBGRy2dgXLTaU0/R8P/mh788GKSVaCKamphgfH8dxXHqFlHfcr21+N8bgStvVrVKpcOjQIet/ZXsfa3KcQwwWBpI0e5HLZmyenis5ceIE48URwnoL1W6zsnCFZ3/8LAtXlvjVL/0K+VKRwGgOHTrE0Bv17sIYG6STQpDN5cjmsqhI0Wg0yGSzKLW9omnvQ7H/c0uyxmjmF+b52c9exBj4J7/4S3vcOTZdfq0UoTYEYUgQhoyPjW25T0MMPgaYNAVSClwndtZjODA3x+H9c5hA0a7VuXz+bd54/TTVao2Pf+xjjE9PUWk2kGl/aCG8y9DGYFSI53qMlEqMFEusXVmmUqkwMjpqm90513YRDFZLIAhDtNI7Lr9btJpNyuUynucxNj5+3dY7xAcLA0yacW5dHFRIbp5UKoXrCzKuS7s2ju/7GGBsfJxisYjwXNroa1Bu363rf8jGYElNRYqU55PPF8jncyzPL1Kv162VKWCvcUqDwWiDIx2mp6Z59JGHkcLZ0/R8i5UCtkii2WqxurZGPp8jl89d2/qG+MBjYKPnBkOkFVEUYbTVWVRaEQQBSilELEqcfB5FEc1mM5aF2+sNZvbAhQPmKe0kY+7lZX19juNgtKaYyzE+MopWinJ53XamlBKugewMtuSx3W6zuLjI4uIie31Q9SXNx79LKanV6yyvrDA6MhKLc8SJ8CZ+7WkrQ3xQMZCkaVNFBI7j2NSV+J6RUhJFEVEU4TrWyNZaWyvUGBqNBq7rXkWWbJutbbontyeLgcR2BVDbvmxpo+NIjNb4rkshn8OVgmqlbDMeklB2ZwO72Q0bzdZa02q1WFpa5uLFi9dkY27YXQDqzQaVapXR0dGuopFJdI0G+PoO0YeBnp5DNylZEKe5GI0rXaS0xKiUIghDmz7iukjHQVxHP9gQW0NssCEz6QypVIpKpQrQseT2uFI7g1CGfD7PrceO0W4H10VqSGtNvd6g3mxw6OBBHNcd0uRNisElTWOIlCKMIrKZDMYY1tfXaZZrqHaICCPmL1xibW2dKIp47fXXyRbyRALG902TKRVu9BHcVMhmE9IsQyy6cS0mojE27Ug6Etd1EUJyPVhTa02tVqPeaDAxOYHreZtk4Ia4OTC4pBn7zMIowvU82u0GJ0+e4qfP/T1XLs3jIyBUnLtwASEE3/j930dLQVsrvvTlX+OeDz1wo49g4NEbOktnMqQyaaq1GgbT6SK51xUqrRBSsrCwyHe/+120MRw7untt1E15mrH3JQwj6tUarVabYrFoZyRa9+Q9iU3fN8l/w9jfQGFwSTMeqY7jUK1Wybg+9UadC5cusba0wkg6g24FSMchaDRYWV2l0myC7w7LKN9DJN7AYqlEsVhifnEh7hqKDeDB9pnj263TaLKZDMeOHbM+7V1CxARnen6X8XujWmN5eckm32cyJL7sjrLSVutj6OkcRAwsaQpAOg7SdQiDgEhFfPLJT/KZjz+JoyElXc698Sa/+7v/jouXLvPv/+2/xUn5uOkUoYSAoV/zPYOATDZLJrY0MVbSb6vujr3yG1t1VpZSEqmIyclJpqen2bOZ1xPX60TRgWajQbPRJJfNks/nbPfJLb7Tt6qhhTmQGFjSNFjpMY0hnUpTWy9DpMmnMqgwpNZo4TgOvu9TrVYIw5BssUBbKZThmhOrh7g25LJZiqUS7VabcqVMcXR0E2l2pvM91ZW92WEGUJFCCMlbb73BD595hnQqzVe//JV3tG/CQKVcplouUyoUGBkdRW8hbpwEHYcYbAwsaSbwPA9tNI7rkPZTJFLaqVQKIQQp38fzU6QzGSKl8Hxbq6x2bWkOJ2HXA77vk8/ZhPHl5WVKY2NblwvEhGlELMqyYT2JLurk5CQf+fCjOHKPQ1wkbwKjNVJIJNbSbNQb5PI5CoUCRpg4yNSDIWHeFBjIPM0uDPV6vVMlorVBRREdYQetCYKAXCaDFALPdfF9f8/9ZIbK7e8cjuuSzWVxXZeLFy8CcdpR/LJq6t2T3JFt2yDJlpiehUKBo0eOcvjwYXabvGTXJSwZxsUPjpB40qGyVqZarjASt+MgFjfuXbOATnGEfb3TszLE+xGDa2mapDpEkjRWTfycKdcl7bg2p88YQmWrgbxMmlazRZREAPaExOIc3inXipSfIp1Osbyy0vmsS4hxJVHP5x30nHKrjCSYn5/n1ZMncV2PJ594ctf7kJBxsmGBQEeKRq2GUYqRYsk+VKVE9ViWwm58mzUOMUgYXNKM4bkuRhtc16NRq1Nfr8SBIIcLFy7SarUIw4izZ89SrJRphsEwT/MGwfd9stksa6trwAYbvTey3cOcG2lKKYXrOCAlzXYLXxv2lr1k7CzbGKuhaQytepN6tY7vekyMTyCFxIikkUY3WDSkx5sDg0uawg7kVhCQ8n1c1+W1c+d4+YUXqa2u4yjD+vIqS8vLtOp1nv72t3FSPoHRfOrzn+XW0u03+ghuLhhDKpUil82yuraGFALdU/udRKJ7syJNnOvTS5zaGIwQTE1N8qEPfQhHOuyV0owxaKXxhNXPbDQa1Ko1PMdjfHw81uwEkexU8nYtVUxDfOAwkKSZpIoYIApDUr5vy+AadVZXV1lZWEKEEUG9YWXjIqhUqjTDAO1Kgnb7Rh/CTYVkCu56Ln4qxeqlS7TbAW46HS+RlFzuTEmd2vN2m1qthhQS9u19n7RSCM/BKEN5rUx5rUzKSzExNm4T76XoVAQllvCQMG8ODCRpQtdCycQllNpo7rz9Dg5M7ydstJCRZunyAn/1rW9xOoz42le/QqAVwnOZmL2Gu2yIa0LiPzQCXM/D83yWV9dZXV1jct9Mj58wqbjZmZqM1ixeWeTZ557DEZLbjt92baIdsSW7tLjE8vIKE+NjzExPI6VDqKMhUd6kGFjSBHubOVLaZmqRIpvLUchkIdA42pBxPbLZLABjY2Ok8zncTBrtSsLh7fCew/N98oU8kVKsr68zOTPdEfbYrnfPJsQLHjp4iLEvjKGia6sPd1wnzsM01Gp1wiAkl82TzeQQQtButXD2UG00xOBgwFOOLKSUOLGCu9EGz/PIZjJkM1kc16Hdatk8wXyedDq195SjIa4L0uk0o6OjBGHIyspK3Me8G2jZ1XMsZlZjdEcG8Frg+6mYrgXlchmtDWNjYwgpCcIApdUud2iIQcNAs4P10wt03KTLcSSO41gC1YogDHCk0+l9HgQBqyurtFqta9laz/vVXkNsl9PqezbBPYwUlXKlJ/9nQxQ9DqF3yLQHUkgEgjfeOMN/+vo3+MM/+uNrmpo7juzkfdbrTRzHpVgaIQwjgiAklUp1DkYk8/TtLu/w8g8UBnJ6noxPbax6u9GaMAjxhMT3MziOi+cIXNdlbW2NdCaD67pIKcnlc0RS7LHdxVbFx1eTcLiJczn7CrIT4rOfpVJpSqURtFasra/ZdiXxckk2RHc9/epCCRxppeAOHTjI5z/zFEbvzfFoYnGQSFth6nYQUas3cVyPQqGEkA5C6rjySHe0RLbKH+0taejb7Zv48g8CBpI0IaYmYUvhHOmQL2RwDHjCQSgIw5AoivBTKRzHsdUfjkMYhZiOBuMut7Qrwhxiu9PSaS0hBSk/RalQYGlpGaMTseKeJHKzkT37obXBc10c6eA6Ln7G39PuJVuKVIQ0gkqlSq3eIJ8vMjExhXQcEP1q7cKIrZOaNgyNjtDIrvdoiPcjBpY04xINPN8nCkO01pw/d55zp9+ktlYhJR1a1RoryysorXj6299GC4gE3P/IQ+w7dOBGH8FNB60Nvu+zb2qKi5cugbH1/71KlTtlQkZRBNqwuLjIc88/j+d53HL48J73RSmFxGV5eZm1tXUmJiaYmp7BmPhvzkB7toa4CgaXNGN4rmt7Vkchb775Jt//3ve5fOEyWcfB1XDp4kUw8O3v/C3NKKBtDFMHZoek+V4jNsE832NyYoLnX/iZnVprDXIvmZoQRhGZTIZbbrkF13Gu2SEihGB1dY1ypcrc3AEK+QJaaSIiPNdDyqHdeDNi4ElTa2MFFoxmenqaB+67l6NzB3G0oVmpUq1UKJfLfOiBBzCOoKUV42NjN3q3BxYbyavzuxA2V9P3mZyaolWrs14pM+KMIh0HRwiEFMgeW3OTwhE2gKONZnRkhHvvvhvHvbYh7jkuRhnbDkUpMpksjucRmaijZdDJgRry5k2FASdNE7frtQGCEydOcN+ddyEig4gU829fpLy2zs9efoWvfOXLeJk0kTDXEAgaYi/YSoi9UxUUkybGcOnyPNl8Hl8IHOP0iWJs59qUUiIcQblS4cxbb+G5Lg8/9NDe9g87XnSkWV1dw/NSlEZGEMJG1B3H6SS+Dwnz5sPN4ZgxO/vChrixsBJwGtd1KRaLIAQLC/OxpqVgN6E523pCgBCsr69z6tQpXj99+pquvNYaKSUrayt4aZ/i6AjKaGsNu24cnrJr3qQM2N2hTdlGw1H4wceAW5pDfFBgjMZg8H2XsbFRcAQXLryNwOC5Do6UcbbS9rSTWH/GGG45fJjZ/fu7uph7LFjQWtNutVlZWyOdy1AcLaGEnZILKTGxSHVfy40NrL6lITpMN/rA4yawNBMdRju6Td9n1+PJv5WZMbwzroq+TPX4PT5lUkry+Rw4kitLV4BY2m0XGeLaaMIwxHEcgjDk7QsXuHjx4q4Js1eKTghBpVKh0WqQyaXJ5NIgDdLp7dfevfYbxZC3yd8fYgAw8JZmGIZks1mkNuggJAgCZKTxhYOQgigM42ohBwAh5B7itAlEXPO84bPtlr2p0XNee4rKO8nhxpDNZTk4u5/LCwu02y2iyBYfCCnZ6boYYzBaMz8/z3e++10cx+GO23cv8yfj5HspBeVKGWUU45OjjIwWEI7BqsWZzq4nEiJbXdXhVHwwMeCkKUin07RaLTwhcWNy9F2ftOPZmnTXJZ3yiaKIdDqFSiKj17Ctm77a55phOtNqMDhSMD42wsuvv0Gz1aSki4DDTjSkte40Ozt69Ci/8dWvEkURapfT894Alef5rKys0Gg3yOXTZPJpkBrTmbP0X+etOk8Oq38GEwNOmhYqUuRyaVYWl1i6NI8JIjwkCxcuUq1UAMFLL7+Mm/IRvsfMwTlyo6Ubvds3FZRRaGWrtxxHsm/fDC+88DPq9RrGTAK2V9DVSEgKgZECpTWtVotqtYpSivHx8b3vkDGsLC8DhnwxTzqTQkhAmk0t97Zt1bvVBGSIDzwGlzQNIAzNZhPp2A6Fp147xXPPPGtFiCOFarZZXLxCdbXM7339GzTCNoXREb705V/jztF7bvQR3EQwGG3QWuM6DtJxmJyYAK1oJ4LQu2GeuJmZwXDx4kX+7sc/RgjJb37tq7vUleui3WpRq1XJpFNksmmEI+K69A25TsNUzZsOA0mam+IMQBRGFAtFDh08yHhhBEcb6utlGvUG1XKZ2269lUbYxstmOhqbQ7z7sNFnmyYkpe0C6Xkes3NzICTzCwvccuQIqUyGnZr9CAQI24/cdqM8gpASbQzOHkhTAEYbGvUGE6NjFAsF6yu1e9xpIdwJBF29HH6IAcNAkiZ0PYye59nSNxVx+PBh9k9MIRX4QjL/9gVWV1ZZr5T57Gefwkn5KCkoTgwrgt5LGEEshCEBiXQFM/v2gedx4dJlms0WxdLIrojJGNueOZfLMTU11U1E3yNcx6FSLlPI5SgWCj1dTWPaNt0WvVsl63f2Z89bHuL9joElTbDEKW05ECLSpNNpsp6Pj0vW9dAt23QNBKOjoxTHRzFSEggzrAh6D2Hz0W2gxsQiHaViCSeTYXllhdYuezaZ2Ap0pE1uf+nll/F9n9uOH9/zPmmlWV1ZZW5ujnwuj+M4nZ5AQ9zcuAnyNO20L1GlMdp0UoykIxHCBg5sJ8ScTW25BstkiHcC0a3mATCQzWUpZLMsLi3FotC7s9kcaf3XQgiy2SyZTOaa9qher7O+XmZsZIRCId+j7TnEzY6BtjRNLPIghABt+1jLOB8zjCLCJEczFq4Nw5B6o452HfCdvW5tw/t2GBLyRqHexEcoBLbaRhu0NhRyOVbXy0RRZFXiehLExXbpPDHxzs3OMjk5CbEvcrdnXcTrXl9fp9VuMzo2SjqdQSsFcqM65ubv9m7JJP8NL/lAYSAtTYMlTNsbyLEiDiJJWpadQZzyUzZIICXtdoswDEmn07jeHp8lm/oubKwNGVYfJ7DNIXpfEoywxIlACImUDkJIDh84SK3ZQkoXISRa2+m3PZ3GPggTAeP4RWxlxJPPVQAAIABJREFUVms1XnvtNV49eXLPhCmBxYUFtNKk/BRurJRk6+M3v+i8NlQVXf/TN8T7AANJmgmkI20fbGXFF1zXjStG7J3XareIwhAEpFIp2u22VW7f01Ts5ibBdwbRebdXxHTOvRCS8fFxtNJUq1XCKGI3VBRFEcYYFhYW+O73v8+Pnvm7Pe+RANZW18jnMmTS6U5U/6rfG+Zj3jQY2Om5gbgaxJDyfXQY8sI/vMDL//giywuLyEgTNducfP00rVaL//Nf/2vS+RyRgE997imO3bn70rshrj+kEByYm4NIsbKyShC0yXq5q1ZrJZZfGAQcPnSI3/za11BKESmF6+zB3WJgYX6e0WKJfD5vcz+N3nOu5xCDiQG2NE0cECDW1LQ+y1a7RRQpoigiCNp4roOMA0NBEBAGAVpvrPkY4r2GEIKpySlQinKlTBCEO5pyQgiUUiilWFtb4+SpU5w+ffqqJZR2Rt8jbBxbuiurK+SyWTLpNMZYH+s1Y6i7OVAYWEvTwubSKa0QSG699Rj7xicxQYSINEuX5/nmf/km59++wOef+iypXJZIGCb27yNWAdsyUX6I64c+VTWTtFATIB0OHj6MWyhQrzdpBwEkTdauYvElvut6o8GlS5d2n6cZk6Iw4Hku8/ML7J+ZwXVc+7eruGyuNjXf6Oo2mz4c4oOGASfNHhjD2OgY06MTeEhkpLmQzpDL5XClw9EjRyiMlgiN6eRpDv1U7w2S6pok+mziEptCocj4yAj1VpN2ENqFr1IVZIyJSVIyOTnJ/ffdZz9nN6SW+LoFzUaDSqXK0Vtu6VG/2noNoud9415tTHofPncHAwNOmgZjkiawiaBXP0TnvyFuLBJq61KLNobx0RHqjTpB0N7VdZJSIoXEc13S8dQa6JW+3JTyJGM5QK0ijNEsLizSarcplUo2k0IIpBCbhDq23uuev4mrGqhDfEAx4KTZhUnSVDbceAZb/THE+wDCbGAfw9joCOvlMu12O87p7JLgpq8LEfsfNVeuXOGn//APOK7L4cOH+wT/EsHgxO0ipMRBoEwIxqYbtdptRkolPM+z+b1CoM3W4yRRb99WU3P4UB4oDHAgqJueYm+kbglcUjHiOg6ulARh0GmV0OvH3F2+ndjCzBjeJVtik3N4O61z+7OUMDY6QrPVJIyCjoKRQXdzJHu/FROm0hptDK7rkslk+qbWW27RGLTRnZYb84uLhEpRHCnhet6uUtCuqtw+xEBhYC1NO+3uWh4SEFJ0qk2kdEl5Pr7nYyKFH/dHF66DFCCMnczvLstEbGHF7io0cPNhI3FuLJvpnHD7YJuamuS/vfCPtnpLik7ApvP1HkLTWsfJ5jA9NcVHP/pRPM/btAu2+KHrc1Rag9I2TU0pzpw9SyrlMzo6iud7NpviKgOhswc3+aW9WTCwpJnIeNnSPIEnXVqNJiZQpIRDEBnm5+dZWVnB8zwa9QZRvYbwPPxCDny3UyECu7kfEs/W8M7ZEzadri4JCiEYGx8FDI1GjaDdtsTZ+/UeMpNxO4wojLhw8SLPPf88Ukq+8uu/3tlOIhjcaxEma3CkQ9AOWVtbY6RYxPW8TttecRXbse8vGysth8Nh4DCwpEmseOOlfDzXJWoF/OCHP+Rv/uppLp69gI8kKxwqq2uk0ym+9s9+i1Ar3Eya3/6d3+aRn3+sMzUfTrXeC2w+y1or9u/bhxC2FrzZau6odaqUQkhBPp9nZmZm0xYSK9NgRYUtrwkr1KIN1VaL+YUFZmZmSGXSCMeKvRixdVQn8VluNUbEVhOQIT7wGFjSFMbeHO12i2qlTcrxKRaK3HbsGPtHJyBQtMpVLmhDo17ngXvuJpXJ0IpCisVCnyDErgf90LK47hgbH0MKQa1RJwiCHUlTCFu/PjY2yoMPPIDv+z1/tG9miw9sFN022lteXef48eO4ru0jJaTsuhF2l780xABjIEmzd6KslcbzPCSCu++6i1sPHYFQ4SpYePsif/anf8obp9/kt/7Zb+GmPLSA4uS4vfmgE3zYnbm5jcnRwdDs2B6bQ25CCFK+leyrlCtUqzVGRkZ6/r7dugzlcoVTr72GAB5//PFNW4I4D9cITBw40kpzZfEKQbnM3L59ZNJpK9YRywfKTo18d5pvI/pxAHEjoQ4v90BiIEkTusTpxGILwkC+UKCYyeNqiWeAICKTzuA4DnOzc0jPAVcSOYKo5x6+flP04WR/Z4i+n13HZaRUotls0Wg0rrJs7yeCKIqoVavoRIFoA8P2ZUYY+3BVQcjK0goIh+npGdK+jyMddLdOqQ/91Uz2h2FC++BjYEkT4ptCJpbixiEv4s/E7srshnjPobXGcV3Gx8ZYWl6mVq93/rbVJTMxOUopGRkZ4cSJE51GbdvlWHY3ZgjbbRYXFvAzGaYmJ/B8P05Fu3oZ5RA3FwY4T5OO1Ji5yg0jhqT5/oQxNgVMCMZGR2m2WtR7SBPElrmayXfb7TbLy8ssLC7uuKnk6odByJXFK2TTaXLZXLcvUCLoMeTNIRhY0jQYoUlSoTE2EqtUhNIqTmQ2NiIqrLWpjUZphdJ6U4Ly8F65jtiYAW5E99UXqRHoeNpcKBRpNFs06o3+FM8NpGkrgux1LJfXOf3GaU6/cbqrWmXih6QRHX9moi8ghSBSEYtXrlAqFfHTKYh7qCtjx5HZkH+2+VEbJ953XsORM4gYrOl57FzqVI3Eo1oKAVqzvr5Ofa0KocEzkuX5RZqtJkEY8sabbyI9F+3A1NwsmVKh6/DfIWg6xC6xZU3hhgBQ7zIGlNJkszmarTbVWt1qY3aU1HWnIZv9vfuYK5WK3HvvPXiuh9Ea4cg+3yOxQEgnKCQEWmkuLS5y9MgtZHM5hJS2uiihv57E/I3pmMPBcfNgsEizA9MZ4I50YkEGyVtn3+Knz/6U1SsruFoQ1ltcuniJRr3G7/3e7+FnMzSjgH/6q7/CXffft3MwfIh3iKszjZQOYBukeY5LrVajXm9QKhXtt4WME9otei27bDbL9NQUWtsSSad3UrXRv21AK0Wr1WK9XGF2/76OupGJrcyr9ukd4qbCgJJmF1Ja8eF2rcna2hpvnT/PxfOXGUllcRWslyu4nsf8wiJtHWFcSbPZvNG7PQRYmTcpKBaLuJ7L2vo6lUqFkZg0Pc9Dqa6mgBQS4Vgh4jNnzvDc889TLJb4lS/+8lUfflIIokixuryCCtrMzc7iOk4cWHqXD3KIDxwGlzRjCyEMrQ5jvpDnqc98hs9/6nO4WiIjePvNc/x///E/8NKLL/H//j//N27aRwmDciXh8Ga5QehOmh3HwZGSXDaHJx3qtTr1Wj3ubS63DQQZDFNTUzxw//190/dNjoGOP1MShSGLV67gp9KMlEY6Vm6yxquliyW5mtv+cYiBwuCSZpycnigamVjJRur/v70zDZLruu777977ll6mZ5/BLFiJhQBBguACLlpoSRRtxVIkWrYW065UqpIvzvIh/pCUXXGVq1KVlFPJh5QTlx3vZcu2LNmWtdASJVGiJVIkVgIgAGIdDDDADGaf6f0t9+bDff26pzEASFpSKLL/qMb08vpt/e7/nXvO/5wjMZqkcIcmjq3vUyoHqRRGGKvRTCZ7DX9VZ3b2Y4BZ42VECInjuAz0D5DP5VlaXmZpcSntPBkEAdJZ2/vHGOuSGRgYoKenB5s1bqyIXazVZkpAGhDGUK3WmL0xi++6bNmyxTbhW7NiWK8A8p0qDpiOM/wdh3cuaSYQojkQrdyuSYYm/bc2mEvra36Y13yHeW8NcfNzY9DG4Dou3fkCc3PzlEtlMAKB7Y/eGvwBiCKrkrhw8RIHDx0i42d45rO/aNfadvqbbX+hXq+ztLREd6FALpdLCnW0keRtiHM9dH7tdybe8aS5/qzKrPPmD+MSv8M6OhbHbXDzuYt1DBEoJenr6yO+cIHiStHKhhAolbRkTtjQYKta5XJ5hgYHGR8bW7c03HqoVWvMzs0xONCfkGbnx+pgfbzjSbPhy7cidliXMH9Y2R7pOOs4uN4S2pyDcRyDMUgh6e4uEMcxlVIltQ4dqYhMtGbWgLSumL6+Ph584IE10fXboVavM7+4yN07tuP7fuqi6aCDdrzzSNOQ5E4mcy9jbKUaJJVylbBcQ0QgQs38/BxRFGAwXL9+HS+fwShBtqcblfXfwoZb/95y597SYb0jkJJia4Cl8Tdxo7QQpzYaaQRaGwb7B+jKZKmWK9TKNfL5HEImQnVIrU0hBWEUMjs/x6WLl3Adl/c8Nrhma2s0lgIiHVOpVinXagxuGEaLxA/KzWnrHR9lB+8s0lyjMm6ILDVhGCOk5PLly5x97XUqyyVErFmZW2BhYQEh4Nlnn8XN+kTS8L4PfoDNO+564xu9aRDdztJ8l4+6O1pwrcRpz62ONQN9ffR0FaiWKxSXV+jK5hIXo22bJxAgSYN+tVqVufk5fMdbfyvJLhggCEOK5RKxgKGRDUQmTplyvV+qY3++u/FPJ832K+jHwQe3vGqTLI8GjwmQSOpBHSEMN2ZmOfnaKRZm5vCQhJUqy6urGGM4deYMWkIsYe/++9ncejztAYR1d+XNWJpv4qStzdxrfvOtnOf/H7/Vm0bzgKUUWKmDIZvN4ns+lXKVYrHE+LiDNlGaBgsGgUwPaXRk1EqHkvdu96vUg4BisYiQkt6+PmJjbBZZBx2sgx+CpdmeXfEjFgTfJmetxcZMDBpb8aYrV6BaLHH3zl0Md/cTVQN8pbhxbZpnv/YsV65c5bOf/jTGEeR7Coxt3dK+wfRvqyjmZgp8IzbIm2eu9rjyW7J01j1vbyeb6eZ9UUoShzFCSLryXfi+z+ziLMvLq7iOSxxpS6qi9VexqNVrzM8v4EjFYP9A26bWWvu1eo2l1RWEkgwMDv4Ijq2DdxLePGm+ncbZTRBpIVjbDda2vPA9D5nLUcjk2L5pKyLSmDBibsMoB19+hRs3Ztm/fz+Zrhx+V46aDqnGUVOPQluGdIv118hN/6HdKG5h1b4xmfXt1rXODr7NPQVC2KK/EshkM/ieT61Wo1QsoaRMO4gCYGzTPCHtfGPq6hTf+tbzZDNZdu3Y2Tx/xthlMUmVd0FQDygWS7Z2Z1+f7UMk1srOGmh9/TY+dR38CPHmSPM2Vt7bB/ZqtwWM7L4GQYAjJRI7aCQCKSRxFCVZJwrP85FSUavWCJWxqudkiKyx9G41VTfYqkmNF2s/bXv/tnv/ht67I34ifqtbw3YRTXyVQlAoFNgwPMTpk6e4PHGJ1dVV3IyX9CMXiORuabQBA9u2bOUXfu6TKNkUvwts8zVhbHEO13FQSlGpVFhcXGTz+BhjY6PU63VQItXt3ure8za/53TwI8KbLg23RgieuOBvfrQvt/5d+/ZLmfWXEK22V9vDtH3SQhxtGugUzWXaR8faBZvruxnNkMGtKK/dXrw92o/s5m290bW80bW+PaEbZfqSH2/btm2Mj40xOzvHzPS0bYYmZBIMEunEQMcxhUI3WzZvpr+/f806HaXI+D6u42C0JkjqbpYrFR45cICgHhBG0S17na9/HXfwbsKbIs1Glptpf7QQZtIzN33cikxb1po+bLHgmy/Hdpsv6UhOszZiQ3oimvRkSAfSzcskS5p2QlvPMly7xzdRz7qj54dLTI3MlTSD5a2vibctcRpuJqq2l/fccw/79u3j+swM3/jmt1heWUkJs3FMRlv779LFS/zZ5z7HX3/hC2vWEUW2nmoc29qpZ8+e5eDBgxS6unj0kUdshfe32anp4O2FNzU9N4ZU5tGEaJuyiDXXXEMCcqd7c3M5WH/i0yTMdAtmLeW1vjai4d9cawc2SLRJmI2B1nqg7S/a9kWbpKq3/bx1cZHuZ/vx2Z7c6TG2tIRVUlqrah2HZbPubWNrdgs6+W76W7R+RzRvUA1XRdve2P03YLAFmZtnqf1QNVKsLb8mACFtVFq3n7uWZexem2Qf3iATJamTYh3JTyaTYe+99zJ59SqvHD5E72Afn/j5p0EKhJH2Pi0gDiO6e7p56MEHEQjiWKfTdIMhqAdEcczExATf/s53uD4zw/sffw+DQ4MgBTI5aXdyCXfw7sTtSTOZujbzsQ1xbO/UruORy+VYWVlFCImSMml3unYVUsq0NWqsbfsCIdeSrkBY4og1Ujnk83lq1Vq67VqtThgGeK5n+8ZIW8hBAia2kpR0iCU7G8UxkY5xfR+pFHEQcP7cBaavTKFrIa6QrC7aAhBhEPLc17+BVoK6Cdn38H5Gt44n1bw1YRTjKw8pJdlMlnKxBEKgY5uNIpS0VrKxZGKwleIb5BRHMVJJHEcBMiUSg/WvKqloqqgNWsfoWCOEwFEKDGQyWYrFVWJt8HwPgSVuqRRxFKc+QNd1rd9WWrKwz63vDmPPC0lRizjWhEGEUhIhVUpUjZucMYAGoSz5NfYJkdx8hICkELDneQRBYMlF22werTVSijQrRymV7lNjO0rJ5HcztoiK0ck1I0HaFhRoUI4HEkbHRnj00Ue4Nj3Ns9/8Jr2Dfbz/p95nL9UkF91oQ8bPsGF4A47jkPEzhEGAMQbf8wnDkHPnzvLCP36P0+fOcdeWLdy3fx/SkUkTNdGSmklL+c2WYsRm7Y2xw6nvHtzB0mxeCta3ZJ85ykFKSRCELcu0T/nsJaVj2x7VaINseANS4y2hukYU1Ah0bIjCmDjWCCmtzs4ITAxaNuUlRtvnMrEohW5c0BKUQiMIotgSWFLt++rVq/zjd19gdWEJXzhElTrLS0vEUcRXvvJVIgk1EzE4PszYtnEw4ApFLO1OG9O8aQitUcoBAZpk+0k5Oi1M0mIhcSMIgTG2CnnjvEgp0XFsrT1tSU5rnbZmkFKmqsMGmcWxTvileW4xYBIr1cSaQAc4joNUEiUS2bexywpACUEYRUTYPG3Ptc3DZBJJ1loT6WRZKRPSU0RhmFryAvs7WcK0+xYGYerJEMmNQDb8jYlVrWN7k2iYvmEcIR1L1johfoHEdVw7jdaJFWzsTchocH2PHbt28sEPfoBvPv9tvvr1fyDSEfffv4+uQh7Hc1HKYW7uOqdOncJzPT76kX+GQOA4DqViiVOnT/Gd777A5NQU27Zu4Ykn3s/I+AgR9npBJhaySA+pfTikzzslN999eGPT84YRpDVog+97GGMoF0tkMtm0ktBaH5+djjYHi0wMKfteYrDYR0KannAwBurlKlobDLEdgAiyrg/YwY0BYnu12qrspGTasNYcpchmMrZdgTF42RwjG0a45+7dlJdXUVpQWSlx5swZyuUq99xzD9J3CIjp7+tLD1xIgUJZgtOaSjlKtylFUm4sSdXUjSrfRqCk7ZfdmMqmtR/TZUx6E7Lk0HRjNP10llCRUK/X8H2b2qlTS9BYyzE5bpFM862V25jIi5R8oEnAOtYoJVFJsd20AlSLsLtBGHHDom5M+9PjIFUkGG1vco1tyEb/pRbSjKKIXD5PUK+DEHiel1qhjqMQyeUohEBK6+N2lLLTbwRSSYRQ9PT2cuCRR8jmczz7za/z+b/9O6auXWPr1i1s3DzO4NAgBkOtViMKI6rVKkEQMjMzzWuvneLIsWOsrBbZs+dufuqJJ9h19y5cR9nzKkSHBDu4LcRfTz7bGE03+53a2gJEUURQqxPHmlqtTrlcwXM9MpkM+XyeXC6HlMpKRVKflKBeq7Iwv0C1WsH1HHq7u8nnsjhKpb46gbVKarUaq8UilVqNKLIWYldXgZ7uHoSUzExPs7S8hOMoRjeM0N1VaGlNYB+RjlkplVhaWaZSr5HP59kyvpG4HqDrESKMMZFmaXaeP/njP+HYiRP86Z/+MZlCjpoOEBmJ2+VjhKFYKlIuV8j6GXzHY2VxmaHBIVzPZWlxCSMFmXyOMAioBwG9fb1oY1hYWKB/YAAlJavFIr7n4Wd86vUaURThui5hGBLW6vT19VEqlTDGkMtlieOYaqWK6zhkfJ+VlRUymSyF7gLFYpEwCMlkMkRxRBiG5HJ5kJLVlVX6+/sJoyj5Tgbfy1CvBxij8X2fer1OGEYMDg2ipGR2dpZsNovrulSqFcDQ1dVFGIasrKzQ29NDEIbUajV6e3vBGMqVCo5SeL5PqVgkimNGNmxgcWkJozW5fJ4oDAnDEM/3cV2Xer2OEIKhoSGuXLmC61hNZHF1FYDeHrvuYrFIJpPBcRyWFhfJZnMoKalVamQyOXK5LqqVKsXVEo7ncOK1k/zx5/6cehAwOjzI+Pgo23dso7e7h1qthjCQ8XxmZ+c48/rrTE5NMdDXx4P793PgkQOMjY9bF4FY55K/ydJcxy9vmjf/dT5qTuc7eMdAfeo//NJvAskdtvnrpjFJY5PTBFAulpi4NMGZ105z9PARzp45y6kTJ7lxfYZaqUw+k6Urk0chEdqgg4iF2TlOHT/JD773fY4dPsqlCxepFss4RpF1ffJeFgcHaQRXL1/h+NHjHDt0jGOHj3L2zFlmp29QLZVxlYMnHQ4fPMQXv/hFjh09Sm+hm8GBgdQCs/4yqAchBw8d4nOf/zyvnnyNaqXKxrFx0IbJictcOHueqcmrXDx3gZMnT7Iwv8DQ8DBT169xeeoKWmgKfQWUo5icvMzx4ydwlKKnUOAb33iOocFBspkMx149ztLyMspRXJqY4OzZc2zcuJFqtcqXv/Y1No1vpFqrcvLkSTDg+z6Tk5Ncn75Of/8AZ06f4cjRo2zbupWpa1NMTEyglEOtWuPyxATVSpV8Ls+LL/2AMArpyuftwJ+cJJPNMH19mvPnL9DT24tUiu+/+BKZbAZHKV566QeALZN26eIlJi5fJpvNsLKywksv/4CtmzeTyWQ5eOgQjuviuS6vnz3LtWvXyOdzTE9Pc/z4cXbs3Mnq6iovvvQS46OjxHHM+QsXKJXLeJ7H+fPnOX/hAjt27ODVV19Nujn2sLi0xPT0NAKrkz11+jRRFJHP53j5lYMsLi2Ry2Y5feYMM7OzdHcVWF5e5sjRo/T39VGrVvnGc9+ku1DAGDhy9BjlcpmuXBeTV65w/MRx+vr76OntZXVlmf333YfA8PKxYxw5cZLjJ07y/Zdf4dCRY5w8dYrLk5P09/XxyEMP8alf+HkOHDhAobvbuniUWpNU1Ep0byQYdEctQoc031FIp+epY7/1dcODlQRajh89xm//3u8TV2pQqUDG9oZ2HYcoDPmp976Hpz/xc+zcsYsgCJi5fp0vfelLPP/dF4jDiN6eHlaLRb5Z/Ro7duzkk08/zYeffBLfc5mdm+OPfucPeeXgQbL5HCLpDxMEAcbAA/ffx2c++2k2j4xy/thxAF7I5dm2eQvdXQUMBiUkyvGYX1zi6NFXuXjqDEjBow8/jJSKudk5nv2Hr3P00BF8JHEtoLRqLby//KvPU44DQqn5yEc/zEd6coxtHGVpeYnjJ07QW+hmy/gmXnz5FbZvu4vu7m7OnjtLd3cPXYUurkxe5dr16zz08MPU6lVOnXmdj3/0o9yYneXlg4d46IGInt4eZm7Msri4wI7tO7k8eYVDR4/x0x9+koX5Bc6dP093oYDnepw6dZp8NsfoyAivn32dSqXC3r17uXFjlqmpKQYGBrh2/Tqnz5xhaHiYjRs3ceHiRbq68uzevZtjx0+gtWHD8Ahz8wtMTk4yPDRIPQh46ZWD7Nyxgy2bN/PKwUPkc3k8z+PU6VPEOmbnzh1MTV3jyKvH+ejP/iylUonjJ06ydcsWfN/ntVOnGR4aZGhoiJkbNzh95gwf/9jHeO3UKTzPY9u2bczMzHB5chKtNblcjmOvvsruXbvYtWsXU1NTFAoFNo2Pc+78ecqVCoP9/ego5uTJk2zbuoW+vn5ePnyYjRs3oZTDa6dPMz46xkD/AOfOn+XYsVe5f/8+5hfmOX/xIp/8uacJg5B6vc7w4CAbNmzg1VdfBeCZX/wsQ0OD9Pb0UiqVbDfLlutd69jGdlosy4YrooMO2pFOzwU2S6bV650KhrEqy++/8D1+9//+ITrW3L9nD2Mjoxx8+SAzM7OE1SpCKX75mWf47GefYXV1le9+97v83u/+HspxGejv573veZzTp89w+fIVdKR55KEH+aVnnmHD8Ab+5m/+hi99+ctUlld5/In38jMf+RmMgOeee47DR4/S3dPN448/ymc++2l+/Td+g6vnLjGwZYxf+7X/xL59+4iNASFxHI+zF87zm//tvzJ/7hwoxa/999/igfv2UV5dZXFmjvLKCroWsrqwxLe//TwXJib4lX/zK2gFMqPYvGsrwxuHUa4k0hGucvGUhzBQTXpvW7+bwvU9Ih1TrdaQSpHJZtEYgjBIfXmxjlFSoZSyLTZ0bH2J2vrsXMexyoQoJo4iHKlQSqIj2zTMCGGbjCUly7S2MiBtdKJKMCjHRSpFGIbWT5jIrWy9C+urc10H13GSG5H1w8ZxjOO4tl94HOE41sdZrlTo67Wuhnq9nvo7RRLAU0rhum4zgJQsl8lkMMYQ1OtEcdwMMsmm79lxnHR9YRhaRUTq+wSEVQs0TD4bma8TBREqifKHYYgBHMdBG0M+n2d1dbXpazZWSZDxfYSEMIyIoij1+Tb8z8lpWmNZWjVau3l4i4hPZ3r+rsNtA0Ht05R79t7Df/nPv87G0XFMrFHS4TOf+Hn+z//+HU6cOElxdZXZazPMz9ygVCrxwvPfwfd8BvoH+Pf/9t+xe/duSsUSf/SHf8T3vvcily5McPAHh3js0Ud46XsvEddCtm/fzr945pfZtv0ucl15iA0Lc/NMXr3ClYlJonrIXVu2ML+wwMK1aaavTrPv3vvpyuWp1esUV1a4OjnJ/NR1CEFtHmd0ZATf95GFAl1eFgc4dvAwf/FXf0W9HgDw+3/wB3QP9vKr//FX2X7XXRjPUK3XCOohsdQYF+IgxJFOOiiFgDCK0BicROpTqVYwgOu5KUlFkR2wCPA8FyH9xLppkmoYhDiOg+t51h9AGZ/UAAARGUlEQVRYD3GkQipJoavASiLkBgijkIyfIQojtDZ0d3dTD0Jirent6bH+UQHZTJYgCAnDCCklURRRq9XwPeuHVkpRrwfU6zW01jiOwnFclKMsASck47qutcQSDaVJxOFhGKCUkwaTBNhGdsYgpMRtBIawaoCGNjUIgkQlYHAc18qkEuVArGOMtudRCoUxUCwVcRwbjQ+DAAxWcpb0JQ/DENd1KRQKKCkol8u2A2kYUCqXcD0XJSVKOYncTUBDcbCOGz8RHa39oEN8HSSQLTHslrfbpEZYW3Ogv5/du3YxNNDPyPAweT9Df28fu+7aSSGTR8bgCEW9UuXq5BWmrkzRlc2xbdNm9t17H4N9A4yNjLF3z142jo6xtLjMhfMXWFlaJQoierq6yefyDA8OkfEyCCPo6+llsK8fE2uiICSbyfLAvv04SJSf5cK5C8xcm0GHMXEQMT87x+TEZYhicAWP7b8/sX40Siky2Qy5XI6uQoFCT4FKrUoQBtTDOiMjw3iei1JWTmWMIZuzdRu1MSjXTSOsUqo0Kg6gHInjOvi+Z9UFWhMEdSrVMrGObZkzDNrEaB0TxzFCWO2ijm2QRibRb8d1yeZyuJ6Hchxq9RpSyUT3KHEch3pQJ9YxmUwGKSVhGBLHMbV6nUYxikqlTBRHuK6D51m/pee6acCtWq2ilMRPgjVgK/6UyyUbpAqCNBJfrlSSKHSA1sZqZZWT6EhNKgGLoyhtqysTPW4jkOQ6TkLOTroftrld1BTrS+tjrNZqhHGEn/FBWjLzfA/PdzHCoLEEG0W222gURVSrFUrlMlJJ/KyPciSu5yKkQANBFBJEVi+sabTJaGmXIWinyjfgsOzg3QYpjEAaiY401WrNTgG1bWblKEUYBERhhBISx3VBCuphSBBFOK7LtavXOH/2HMXVEl25AmMjY2QzWVaWrWUUBiHvffw9eI6brNdhfGycoaEhhBDUgzpBFDI8OkKxVuP67ByvHD7M8uoKWmuuXb/O1LVr+L7P0PAQhUKB3bt3o5SDFJLTp88wfX2aOIpxlKK8WuTE8RPWKev7/POPfYzunm4rDXIkRtroer6QY+PmcWITgtAYYdi5cwd9SfTbjmErVFeOm0p6UBItwEiBFljNTSpVbczVDFLZbBorOrfaTisvslpPYwyx1kSJnEfTaPBmp99RHBMbK5cKkqkoUqCxVpxUKpmaaqq1KgaNEIYwDJoyAiFSso7jCGN0+trOhJPtm4YIvREKbEqlrGTJ4LpWm9t4WPeEbEqQoEWgb7WjOtaYhOiVUgRhiDZJF9DEnWKPvTGrEWkuue/7KCWJ4tCqLIQgikMrfndko40kKJCOINIhkY6IdUQUR8RxlFi8onle0ek5TTbXQogN0yBNCG6T0LXBNH/uDt5dcCQ2JxupwIEgCJEIwroVSSshk+mZsILjMGDi/EWOHDqCCQ3z1+Y4f/4ig/2DHHjoYQ489AgYweryCnEck/EzDA0NJ9VnrAU00N9PoVAAKYiTAfSBJ59kcXWV2blZ/u4rX+HixCUKXV2cOHmcWq3GIwcO8NRPP0U2k2VsbJyhgUFWli5y6dIEU1evcu+996KUYmFujitXr4IxbN27h02bN+F6LppEUygh1ho/l2HD6DDSkbbHtYQtWzaTzWas5jAZUTqZahpjrRVE8rd1NImWTJHG4BOQzkgTXaYVukNT8G6aYurGc5rthht9jXRjWyIhTaw1BhAnVp6UIuHKhqi+qbe0hN02l2i4XXS85s1WHhGN/5IMIpnkKa4hita00MbiLZlFBpp+z8QCNZjEYl+zIlKtL7awBtjEhFTcr+2NIc06EwahG2ts6lCNiZsFWpLEgobzseFXtb7MpqColRsb56ChdL1dQKhDmu8+pD5NJSVSSRYXFykXy+ndPY5s0CKXy5LL+JRLRV6/cJ6vPvcccS2kuljCw2NgWx8jwxvoyucpVUqUEr9Sd6EANKjEXriZfBYv66MF1OOQmJiHDzzMuQvneP67s0xcucyN+Ru4SlGp1cjmMvQM9LLz7h0godDdxb337eXq9DS1xWUuXrzE7I1ZXM/h4sVLlIpFcF0+8MT7bWAjsR6MMAhl53rZrhyj42M4vr0h5LvyjI6P4nhOaolYoZ5s7HmSE20PRtMWK2gU8mxR9knRsFnS+EaCho61RXCe+Psa2kBMQgXtoxluGqn2q63Du2VfWkltzffWm4vejDUytJuCIzfv2rrPW1UZrL/ZlLpuuQnT9lHjuJJjNWveTfcipdP03In0+y2d7W+7pQ46aMWaQFAcR8zOzvL889/BczxMkj8cxzEPPvAADz/8IFoYhkaGeO97H0NGcOG189y4MsPCwiKHDh0mm88yuGEQkuhsFMdrKiIBxCa25CWtnymMI2Zmp1ktrhDpiOENQ4yOjhAGITOzN1itlDhz9iyvHDrEhz70QVzf49HHHuXgkaNcK1e4OjXFzMwMjqs4e+4cRBG5/h4OPPwwjiMxojH5JYlKCLL5XEqS9XrA+PgovX09OK5LZCsYpztsjUTTHKctx9KKW9VxamK992+mgjtx2Rsb0usRkGj7/I0R548Lt96V5KykvC/W+ax5c0rvbKZRE7N9zY3v3GKLpr3sTAcdNOHYi8xSShhFLC0t8a0X/hHbKsL6N43WDA0O8Pjjj9DX28dDDz7Eg/seQMWC1w6f5Pmvf5tTJ09x9OhhvKzLY+95jGwui5CSatVmwEhpi3JEOqZcrRDqCByFFobVcpHv//2LvPTKy2SyGd7/xPt45MAByuUy33/xRQ4dO8q5S5f48le/wq67dzG+aSM7d99NX38fM/MLTM/Pcu3GNI6SXJ66gsxl2bZ5M6OjowgpaZmAWl+co/DyWXr6eunp7eHG3Bzbtm/Dz2bWFssTpmlAItYQ5+0h1nm29oVpf8u0rfg2Vt362zO3tQTf+KrewjrewnfEzfHpW8A0z/96lnT7WtfdlfabRet76+yFaP5p3C876KABpzH1FFhZSF9fH0889hgYkkBQHYCNG8eJY0t+rueiRUwY1Nm//34KXo6l+QXOLC5x8eJFNm7eSG9vL1EQgOuxsrJsI8WOol6t29TEWhXpKpTnMrc4z4uHDmJ0xM5dO/j40x9nfGzMpsDlMiysLHHs2DHm5uc5ePgQn9y6mWw+x9bt27g0NcX83Cxnz5/D810WV1cYGBrkwIGHcV2XWDTGdDJFNwbP83CFwPM97t69k5VSkd337MbPeDaI0LAkkxNjB3izKN3tKaJ1Onubxdp8gWtm4bf74k3c2pQ//VPxVlfxlr7X7i2409qFsb73NcTZeq5u8cvctJ3m+m67By0TkzvPDzp4N2HN9Nz3PO7etYuN4xvJZbLkslnCICQI69jIr0bHMVnXx836SDeHDGF4wzB+xkMqQRyHCCHoTnLFs9kME5cnKCdSEIRgYWmRucV5tDD4GY/YaEwcQRxx7317yeazRHGERDAyNsrY+BhHXnmZSr3GwuIiGiv/uX///Zw4dYorlTKTU1dsZFhAd0+Be/bswXGdNIrasKZjHRNGIQhBNpfl7t27OXL8BNvuuguNIQoChKMwKik40hh1HWvjXYsOQXbQikZZmvShlKK7UCCfz1MPAoQS5Lu6bHGGUpHrU9dYWlggqNYQxlCrVvn2899idnaWTManr6+P/v4+ent6GBsdoVQuc/ToUaanp1GOolwp8eqJ41y8fBnlKAo9Bfr6eyGsgzC8fu4s5WrV6ifjiLmFeaZnZ0BZkhsYHkx8oQH377+f0bERQHNu4hKvnzsHccTmzRvZtXsXYKPQjUK7JpH+hFFEPQjJ5rLsf2A/e/fsZnzTRpTrErdUBOqggw46aIf1aSbauSiKUFLiexlq9ZqNFhtDqVxmZWWZb33jOb7wxb9ly8gIYxtG6M52MXFugvkb8+goRjiK3ffs4dHHH0M5Dh9+6in+7C/+kivXr/Nb//N/sHPXDmbn55iYuorREbt2budTn/kUnufxxU1jrBaLHDt9iv/1O7/N3dt3ouOY02df5/S58+B7DI0M8fCjDyOUpLy6iuf5bNq0kStTU9yYn0dHIcMbx9izZw9GQD2oQ1rwOInPGkMYh2hjheW9/X186MkPEYShrcXoKCuZaZQJ+5GaGW/Ff0gSWV/73p14/pbG8k+YGfWmbmf/xGPr3Do7WA8OgrTiNUk+cBDUm7UapYt0JEsry8zMzKCrVebm5pmbm6e8UkQZRVQJGRgc4IMf+CBPPvUUgyMbkEryoac+TKlW4W///ivMLi+ycPQI5WoFrWPuuXcvT/3MU4xv3kisI/7Vv/6X/Mmf/zmLU1c5/Ooxzk5MEAZJJonncuCxAzz99CcYGB4i25UDaauq771vL8dfO8n0lUkwmoHBAe69716Uq6jUqji+33LxJ52KjEFjkELi+T737bvPug5IMnSEQDeqhbXM0IGbfGRpzfg1A/SmMM8tkWoI3wTWJ7/bb2v9LfyE0EISuDHCrC9buCVucXxrAkvrr++HdmZ+wm5KHdwZ4guT/2BoKYDbKuqoB4G1PH2fcrnMlQsXuXTmdW7MzNhcaCOJ6hEjwyPct+9+7rprOwMDg7bYgrAVwi9cvMiFC7Z82NzCPK7ncNf2u9i9Zw+bt24hV8hbksZw9uxZzl+8wI3ZOYJaQFgL6e7uYtfOHdxz7142bd6YtGA1RGGE72dYXlrh6LGjXJ6cJI5jtm7Zwnve916EklTqNfxcpkkojQLISWVymQi10wrp0rY7iAB9U6/eNzqMWkVDdw4bddBBBz9ZaCPNlg+wVpcAKzsyBh0EVItFSsUitVoNJRQ61PR097Jp02aEVIRhhI6tJed6HpVqlTiKuD4zTalSwst4tnhwdzdGGCIdE8URyrGpdqvFIjdmZ4nCGCUcctkMPd0FcoU8ynNsZlEcY2JbxUZrQ7lcpl6vo7XN4c4XuqgGNYwA1/ebRRqw7gaMSbIfRUqe9qAFRghi6wVtO1Md0uyggw7uQJoCQcb3CGoBURjiJPnJblJswcRWBuIpF4MgiCJ0DGFoiTDf1ZWW8QrCAKPA9V0cIZHGpveF2haaCOOIrq48sdaUSmWkcnAcD1dJhNFERtvSbQYcIRHG9rcJwyjZYdF0MQiIhaU9nQifm3pImqQphE1hbqQAdkizgw46uAOcRvpaM3cXGrktURTixDYvG2ULVIikYIVQAqTExIZICWr1OrE2tjuiAS0EgYiRUlEnRjsCoQRaCupRiDTYni/S5r4rbJmvOI5xXQchFQhbXMGRElc6jbZXtpJ8IlKXRtt+QsaWZECQdH70bdELHTezgZJjbVCZTa1cK3NuZoCz5js/1ghEBx108LZFKm7X6NSb2bC8XM+xKY+SJEfbWmMR2FJgyTfCOEQriVEQASiFQhFgm5EZRwAKAwQ6RopGXrUtjyaVzXs3utHsy0Obhoc1kQ1p0RSaCxsFryXC+4ZiqmExx7EtvWYEaWHbhre2EQMQLdZga4vWmxJGOuiggw5akLT/o82YMg0PoH2VsI0lTRKSTZCkHWrTaqM1ClwAwqDTNGiTfmpEs5thK0GlVl+jclAjYCoa+cXGWrotlp8R6VpbbObGkaQbb35iWpZpEG4b3nr0tMO2HXTwTsYdW/i2KjwaU1ktEvFOUnuzQWStblGTLAckyzQtvWbdoJvRDHSbNdtvnULLtv1qkuLaKfa6x9O6srVf76CDDjq4IxyBYwMjptGaoNmV0rZjEG3z1ZaulabJlLLN7WeNzGSCnciZWsMiotWZ2ALRSo+m9f3GZ2u7Zjb3E0iK/rYrvVtLQySVFFMNZsPlcPPOmNu8WmfxO3+w3lp+hOt4O66ngw5+8vH/AIev7/tTpgarAAAAAElFTkSuQmCC;" vertex="1" parent="1">
          <mxGeometry x="30" y="240" width="333" height="314" as="geometry" />
        </mxCell>
        <mxCell id="Nc6yNPLuVAvdkW_GlvrS-2" value="" style="shape=image;verticalLabelPosition=bottom;labelBackgroundColor=default;verticalAlign=top;aspect=fixed;imageAspect=0;image=data:image/png,iVBORw0KGgoAAAANSUhEUgAAAUsAAACpCAYAAACiTB+jAAAABHNCSVQICAgIfAhkiAAAABl0RVh0U29mdHdhcmUAZ25vbWUtc2NyZWVuc2hvdO8Dvz4AAAAmdEVYdENyZWF0aW9uIFRpbWUAc2VnIDA1IGZldiAyMDI0IDIxOjIxOjI3oikEyAAAIABJREFUeJzsvVmzJMd1Jvgdj8j9rrUvKBQAEkthB0QCBEESECCK4qpWd0vdMo2mH8Zm3mZsnuehf8GYjc3D7DMvY9Yj69ZouptUs6mWRIoUSVBcQYIgWNgLVUDty6275M3MCD/z4OEe7h4ekZF58966Bd5TlnUzIzzcjx8//vk5x5egr7/914wKYu8vAFDVAxXpneeYwewWTV4a4vFlsS6rLCEX8y3NpyrRjPKZSZ1mlc8ulA3G5LNjspkknz3ZlOezi2SDGvlU5REnJCtu61yKpdZhLPScnacNlkZoVjqiCRq2jGiCBqnKpgYvuy2fPdlU52H/3Uo+u6VOs8pnTzZhilNRAyydHMcjeXAkoGIa+JYlK4YL1yrYYRoDCFnRVJFo7AhYN58avMw0nz3ZlOdzO8lmVvnssGxQkY+2THeNjGcgmzj10cljQGegfjMAQtyIkYxGYACNOMba6hpGoyHm5uYBAkQcI2VpkDxYWS666kGgHCOocY1iGrVGPrVM9N2UzxZlM0k+lbxk+dxOsgHGd6A92Wwtnw+bbOK05KauiGaCsp5HBERxhDRNwVIiiiJ8cP4D3Lh2Hfc/cD+6vbmsQDLMBW1XYrDHuT86zMTVnFE+t5vLUCePWeUTGuimymdPNlviZVb57KRscBv1zbgUaVkBHQEQGfozAEECo1QCJMBg9PtDvPXmuzh75gyWFpdx3/1LGIxGQBxB2gySnz0Vw5is/8t+Fx8Lsen89alOHn5elfmM0SKmYr3sh8a5CzpRrU44lpetu0Eqn/F1wgz4uT1lUwMQZpTPzsmmur3r57NzMh4rG2y9b8ZcAiUaRAW7DcDMIAZEFCEdSfQ3+jh//iLeeP1t3PvRe3Hq1ClQmiJlQBLAGnQ18hoWCQxGXj4HRxlCGYd5Ve0UrlXPxiquB7rlqeqb+j7HbuG13SDsJje8Rp3G8Kv5mYmLOIN8Ziebei7i7SQb4xXafdOerKiZTx1eMCZN3XymqxMm6ptxZfa6MlaekoBNmaDZaEKCsLkxxGgzxcZqH9cuXwdLoNFoIJWJO6oajckFziCLV12ZYvV8hWbklfItVMkMIjtXxYA9l0TOX/Ku6kLIu1Jj6ELeCV3K6+2JIIi9jgzGjbpV9+p0Lo8fn6dSiz304LiyJuRlHPu1rImqsibkpw5PwDi+3OG8Lj+zlI3pjnZ67747OJLqZZM191jSFmOdpT+GkxIe6tTJywkA19IhTXHIMNWGg4ERi4uUgCEBjU4baT/F2TPv4713z+HS+Su4dPEyWEoMhkMgFnkMgAEShFSmSJIERIRGq+lAZT7S54WRgVNrRBMCoyRBs9mCyL4zCM1mC1Km2Oj3QRT51XEglZmRjkZot9qIRIRRksJXYg2kxFyUuq5UQWyU2cvVpBU/BMa6XK1Edju4A42X3xbIfp6gvAF7CPG7d8nwUtmZtGMxXjZ52+d55sOaGWALsimyYf6Sf6cukSsbDkOdE2f3/rpc2Zx53hBTbcAs05ty2RT1xrasQ+pcqGOoTgVkYu/2OFMgu0I1eKjb3hV1MqBv5T9Wh62MYtXQYdwl/wKyBmnGuL6+ijnRxOqNNWzc3EDSH+HKhcu4cvkK2vMdxFHLHTUYaDVbkHEDm4NNyGGCqNFwOz38pvdwiqBm4aXE+uoqms0WokYDUkps9vsAGAIEktptoIIDCQCCCO12B8kowVAmEEKASBQ6humi3hInhSb6moukNthXkpMsrzXlUjZ8+NLJ2wJh7dkykfeLC3cnGZE11X/Eq6sH3sikM26piFtmyD+pQ74squ6WyUbri/4Un6otmxK9yXPxZVOuN8VWDXNjA3Aped1BGyh1AdM8G7hlt30BBL1BuG6dALuPV5BlOcTCGfHcjEIkCIiJsLE5AGSEaxeuYO3aCmiY4tL5izj92mt48qnfgmDX9RUAkuEQRIS5TheSGUnqzpPr+KZjSVr/MwPNZhtr6+sQkiAkQAkjAoGEAABIsnYGsVYdaUBIZzTY3EQcRYhJQEoGCT8ogIICmEzBAGeK4K19EGAPW+t1BMdyswYwtyOwkYO5Eep7WyI9wPiZWm1SCFGEib0fIjTu5MUi79i2TubWgG8gkpXCNG1ILpUyKmudUM+1tbHkqaDlx84AG/I9BHzZTKY3ub5OqjdUAhouIpVZdeVPKBJegzMxymXuPmt/twcAxzzhvM3t3ju+TqpWk9QpJq6eQPGJmIEkRVMIJOsDrFy+hvUbaxAJY/XaDZx+9Vd45pNPQ0pvdE8lRsMh3v/gA6ytreLkybuwvLicM0V2W2tzoqh2DUToNTpIpcTLP/s5Ll+5gn379yOVEkcOH8HJO08Gt1ECEjqeEFGEzuIcBoMhXnvtNfzoxz/G0594Bvfc85FqiQUaOqQgVHK/jHxFLOaTTbFYirFtxFxDiTILpoZlpylknbCv9Y4Fph4gM+DlZSt5WV2DLWgrA8kg7lW1Tvawh/g0pt5u23nAzzCDq6s3GuDsFh8/CoYAzL0W0JtCtjXam8fXO6SXPn9cYpiFyDce/P4RqpNufyJdpwoZcpkXYCXxrNbKCZ6ySgw3NtFAjItnz+HKB+fB/U20QBitreP8u++BRilEI0ZqPRNHMS5cvYDvf/d7ePOtt/CpZz6JL37hC4iiGIPBAHEUYTRS8cwoUm6xGpAZo1GCbreLNE0x3EjQEA00SeDCuxfw1jvv4I4Tm+j3+0jWUgxWhuj3+3j00UfRaDSgFSYSSkJJmiCKIrREB8NkhIvvX8J3v/sPOHnH3fjInfeAhFoSxYBZUzoYbkJEkTW+6tbzI6qWlG2BlcjRfA+MgrPCRBqDrjzWv9phYluqlHVSl8GZsFta7bxF63XrOmSVpBXLvz55TtuqNztCE3lFgYTm+dm1VBVNDpZMiBhoksCZ19/E1QsXEKUSDRAGmwOsXLyCD86cw/GP3o3UqoQAcPbMGbz79tu4dOEifvzDH+H5T30GnXYbr736KlqtFtZurqHT7qDT7WCzv4k0lTh48CDAhDMr76LXncMHFy6g1e7gzjvvhBgJxGmMFjcxGA1w5dwV/PyHv0CapmhyEwsLC2g2G1hcmAdYYn1jDY1WA91uB2++9hauXL2Cix9cxvrNPtLNBCvXbuDipUtYWV3FwuI8Ttx5Ar35OTSbTUiZhQxMm2W2A3mjZ52t9qGRctKGqEOs3cZw7oy6U1I7R7kssv+DLv/spFUGw7ofbl0ydi6Wq0WTt/qO6c0OkFlpUwswvQSFRplNS42jAlgaL7iMGGg3mpADibNnzmB1ZQURGCJlEKe4ee0GfvrjH+P4R+82jxADG+vrOPPuu2hEMR5+4AG8+dbbeOP0aRw9ehRf/fdfxaGDBzHoDwBmLMwvYDAYYPXmOk6evBsnT5zEf/zGN3D//Q+gvznAtWvX8dhjj+Pm5RXEqYBICKP1ITaub+DMG+9irtfDO6ffxuraKhYX5vHoIw+jv7GO06+fxtLyIrrdDl566SUsLi7g8tUrSNc3cXPlJn7005fx3rmzGAwHiKIITzzxGJ548gn05rrYHGw6MZHSxtkmX1m3ix/Rq6JxnWmWKuZXOZRveZpxXIyXp5GL7TmTd7fg9leX6PDnXJisfZ1JP9+ztzis+j0tFfRmRqpZzKdODSZbquPm5HlrbLf1jKRVaBvtYyoSBaa8Dul/QIBMU9y4dg3vv/8++hvrIClBaYpISmzcXMUrL/8ij91kenbl8hV8cO59QEocPXQYJBk/++nPsLnRxyuv/BKjzQEOLC/j7Lvv4eyZ99BrtTHc2MT3vv19XPrgEl756StYu7aKRx94BNcvXcdL3/4+zrz1LtLNBGvXVnHp3EUM1wc4ceg4Dizux6mP3I8L732AC2fPg0bA5s0+3jn9Fl7+4U/xV1/9Oi6fPY9PPvFxtCQhHkm8+cbb+Jvv/D2uXL+Bg4cO452zZ/HNb38HURxjbW0ttyxrCZ3zT1iKU9GsFX5mlLlC9j8Tf8w+TAz/31bloUl3Gnenhydz8q9NXj+Tr9O+Y3izeawAyrCGhOowOW2X3vitGeYv59+3imtTCJO2YwCAVydy9UbYCW1ktatof8AEKRlnz57FlWtX0R8NMESKTSGxGRPWBOODG9cwSBOVIREkM956+y1cvHwZq2vruHLtKuI4xq9fPw2GWkT+wAMP4Omnn8bS8hKOHzuKT3/603jowYcw6A/R3xigETXxqU9+Go898hhOnjgJmaQYbQ5BTEhGCdIkQavZxP59y2g1mzhxxx2Y7/XQabXQiCNEQqDVbCIZjnDxwkU889TTePjBB/HYw49grtPFpUuXsLq+gUtXr+LtM2ew3u9jZXUVzIy40UCr2TJx1K0Qmf/8Rqr5IfeZkhYv5zN0f9o6WQBg9EcDI5UAY2EgyZkK6fwkcsmBia1VFZxbhR7uFFxwuyI2B2zzGeIw/Mt/yu1Teceslo3hLljWzPSmJuWgz4X2LipXsSRf7oU29/g0m04o/4TqYLRnGuAkWPoCa3B3axQbxrwYNOAv2LCiSVGE02++gf5ogEaniSRNkSYSm4KBRorzo02c/eA87jp5EkIQ1jf7OP3GG2AAJ0/eicWlJRw8fBDvvHMG5869j/5wCIoEmBg3V29ifn4eSZpgOEwwHI4AJgxHCUACzMCN69extr6OdruNTqeDZrOhJm2aMVqtBpJkiI2NNZAANgd9XLt+FdeuX8PKygqSZAQhBM69/z6GwyE2NzcxHA4RxzG6cQOHDh7AY48+gk889TEcPXoUBEKaJEiTFCLKF/1Cy6xG4xSD8Fzsj5NmAhRG1PBkjtuwZLodQ6OIXnrDE/pIbOVUuFJLae1Fwmyu2L9BCHjMY+JEsOSZNVidxS+mZAb0JAz5+QUfsu6y/ZT9tJK1v723iht/NlcNtG5Zs9Cb2mSAzAdt9pOUZ5FVKZcIzGL/PP/CMFYgE9pwDLzpAkt64NKF5WCsuVQchGOWOgMiqxbZh4BUMlqdNu756D0QxxJcvX4Dl69dw77lHg7cdRQRES5dvYrjx4+j1W5hlCS4cOkS9h88gBdefAHHjh3DG6+/gf/+f/gf8YtXf4m42UCr00az08H84gKa7TaYBKJmA1GzgWGaoN3r4n/53/9X9OZ6OPf+B3jh+eexvrGO9f46Wr0WEk5ADcLBIwfxn/7sbxC3Y+w/tA8///nLeOvP3lSAlya4//77cOjoQfz9d7+L66vXcfbcOVy5fhWffeTLePODc/jJL36BGzeu4/ixoyAA99xzF+I4xtxcDxsbG0jTpIbocypXHqqTqCTXcpWotwLSUlQHPCcnpR5s6Y22MjTYFFI7PNTi1xtYgjw46dj6XdWRCxaCuerBmvrf9AefiXAdjEwsEPDXEZflEtq9VkhVS2+mA5CqHEG2vnAuZwu8Q63vNE/AEKzqOezfMgOaymzMkFaPLD3Ov+fMOmBpN65BV2+gB4Bur4vf/d3fRfTpF9GSEf7+77+Hv/vO3+PYR+7E7//xP0G300bS30Sv18NGfwOr6+v4xCeexqEDB3HizhMQIsKdd53EH//zP0K304VoxDhw+DDml5bw9LPPYq43h/1HDuPhJ2KkJCBIYHW0jj948Q8wGAzwwudexL33fhQ3btzAen8DjWYTR08ew4ED+3DHiRNY6a+g2+vikYcfxpE7j+Dq5cuY6/XQ6XaxsLiIO+44hiMnjyGKBD77lc/jjbfexJMfexK/FX8MH3/nMVy7cR2dbgcn7zyBRhwjSRLcuLECIWjMhv1y98NqkeoGq8p1RrGZWZMPlOrgFNcq8uE45FZOTRTIyXbDyx6Cz2MZVbVrvUbR3lsVN8VnbBtr+sbfLr3JPQi2ytGTOK58dbJpoDuYfhvqlPczHbME7E35RcuyrEG9Wna6XTQbQAcNdOe6iBsRms0mlpeW0W430VhYBAkCiLD/wAF8/KmnAMmIGg10u110ej389gsvoL+5iQceehAHDxzAcDDCYx97EnEUo9Xu4FinC9Fs4PTp18EtgUN3HMLdd9+D/fv2gcHYd2QfRByDwbhncDcAoNfr4YXfewFRFGF+YR4Hjh/AoL+pfCtBaDQamF+Yx/OfewGj0RDL+/fjow/fj1arhTiOcfz4UWz0+wAB3V4Po+EQUSPGYHOAZqOh4pZjO+C4JqnoNTqbSakqv1kaFlVkmQ6hPUAFgKQqOViyrOC/vCPlzlXu6od80tJSAwknAdgK/qaiyfWmaqiYCZUNSAQU1gSNb8pJC94WcoDSoHuJGx5kid0vyUidKEREYCnBLEECaDRjxHGEJEnVIvMkgYgEmnELrVYLaXaIRgoFXL3FeTR7HYAIQghEgtCMOgAIkgEWQG//Ak7edzf++E/+CCfvPYnlA8uImg2kSYJYCIgoAoMhuj0wp5AkMX9gASBAkkSj0UCjG2ez2QwSAgklWNg3DyklGo0Ii61FdZ8Euq0Y7bkumJXQpJQgAuI4tk4zsjsyBQRVDZpuaLCY1tczO7YzEXFRrWbtlNl5mmP4KkZbN66ax4PMlYJsimnq81+9i8OXJ3n3XIuMAqnqcIB84KjAbL3TpoyfEL8+cUX+20HjNjzYZHeTymoEdFalLytrezS66BmVgGURJO0fBJYMAQGR6TFDgogRRwJCCKRpiiRNlaJSFqdhRhRHYACJtF45ke1OT1kCTYGE9SmXBAlG3G3i4PFD+OTyM1haXoaMGAMeALFSMEaiOBOZoZKtCmeTj5I+RarrEDFSpCAiUASMeKTqRASm1Kut2nMupUQkRAaWBFfr/dG+XuMZ56SkL4cAc1Iqwsx2UR75LKzSt1MVFph7AMTuVfPLEufkLmU5UBbvqLLIOptQlbc1KRbOXClUonhoTGleY+7vnBMxuUwm4c0F1nFlzRYwrcCBQxPv4LGJvY8uwq6oceuJ3PSU/wWQn6pu6s2gmNCImiAw2r0WKFuGpIcf5cXla7z0b/W0dsPYOvvS7Z4KPGGlz2/mlpw+mGOHhusPE7HdqXaqG+/RHm0PbQ0syfvACmNYAMWUuwg+SOrvGiyluQoQq9hBJAS63S5u3LiBKIrMTjEDltnsqw2WhXiK8yc/ui13rXVa8tLudfKpKAPKfIjZDndpj/Zo5yj2lViteXJVXF93SYfOw4tOfA/eXTScp3HDw9lOZX2fGaMkBUcRpJQYjYYQURtEIsPCzMLMcnNiKAawVcHGnCf7YIaQ1cMwEw/emjY/bYmDF7zqpqj2r0Pu4VQwYw1SVYU46yIt2Zdma0/MFOJ61lmck8rCZOdeY2cJQnG3CPvfTILciQtx4tfQhI0C98PxQgrE2PwzktwfoTmtOtb3JPFBizuVa4XyBNuoEA6x01hKRfb9YiE1VK/wQFhnxnl2TktZV8JBH/2DWbd33ojE7m87+9iOyegqO6JhGCtMv2ohT5O1fkEs+kxHaxW8ZX2GSHXA3O4DGBACUVOAGNjs99Hr9qw+ynZKq0NozkzAyQiOKTNHYVs9Yf61VqvqUWlb5e8WsptHc1NS28L6oxA8OtyoybSxkFkLec0NxaGlKGNA3GUo8IyVa3iNlT8we9BIzi9TlH1N6dP4rad225JVlpt3+bBkn1Vq5ISy+nqworHEMgoMN2zzZuXjs+L118mh0pQ4dtAKt1RVnWyJVHNYhLHxPJQDZii1d90aGfwnQpDrL6jXLW7a28okrkRf5N3ePjPQH+cdEPSMMf8TIrsLFbsKOd9se4G8Z+zDQZm1ILLnM4uSC0/5HATKN7eLNgHsy4U2nk7FQ7nYu0puOWWjcnkn9ORiXRqnb1VXza2xZraGI787u6Ab6nOcJ7YSlOwpyTIpnaW2xoxSFbHL994dNYvWnmYixpRd0iW0/ZCnrkfj7MPZ5FQO2uO7pzUwOgaBom2d4DE6NU737VFUg1KgU+SAaUEmk/s7q6ge8RWQW3vbgYolGLsEjD4ERD4a6cFrT8R7dJtSNVgGQEUjr3ZrnPBfoCOMNQLgA+WYB/3lJ2S7WLnb5BqDBDMrxJrVEisx+KuMAsPPDpIP+ju2w6c0tmSTHebIHkKdUAIcsYbLrqdXtcrJyFbjghNhW5nbKeSZVCqQz8Qs13nAdXnrPBpynmuWtGXRTNVqXqHlYOkYAR6QMIydlr8vxrcxi9Urxgu8+1RMFYoRec5UNhmhPrYDlnOTm9V51/VctMpDKAq+R1UtxtwPpRlPvlvkBxMYUKsHxpQ16WEZOg/3DYb5JFmZ0pc6SVymVfp+xqfXXrosLYfQREmhZmNB3YVzKtwJZTxh2wXqsV0UkmwwejSz8jzd8suiYlTYB746rnkx9OcXVB9061I+1OebBUrB0jEUndopAQgrTW4v2EAZsNSsfMIDtCUa4uAp2a4BS4VZW8ea9P/ol4xZ1222gzji96BKbCxLMEPA1N/ZZ40DMnVhwI/F1C7XA508fu0e9VDI1uk4NWxR3Q7e474Eyb9ZUqQPhnXKDqevKbCSpq41Ps0ITQuDfmBQ2Xoh9fozVejapJZl2fPj0k1D9uoEu59NHbPUcvBnuV0w2w6qavo6Jc9AdXxNKXTvGZd3OxJ7UMXFJT87xMZE1yfOX1dPX6C8DwQ79C1Qh5D7O21Gtu+o56NmUadQb/KvV13bCdryBI/+6yxKvyVUBVglSaemqjJ+Q8HRIwUY5PWsaQ+C2wITKGmRGTLi6L8VU91y6HAGVACyLViajGzziGVZUpbnLGgSwLwVtCWw9ImA/KBnUnGnstUu5SZ6pmpcT1wFI88Y0dkOcy+rYvoxxICzltTRPmNfj+XT46BYxuRPFVKosEWemerEfiRLNYwjEyYvlln92lM7Py0BI1fTGa0TrsuIi7f9UINzzwI/I3nPnwtpjd/mvnMectZrWTemrpbMKduF5qnGdgGlu28iFEDwwh9cjBn65JyEbqerANq6rnIofWhg2XLkggNtOEUj2OeBzhQsNRVcEM2pH06p3lpgP1yjzGI6sgFTK02ZwMYZi8HF93X4q9tCdeCwulhjzWUkiUtOMCKzldSkZxjALL6ruwZP1oQP5z9d8AvyOyZf+ze7QGmKttL4w1YIEsvlaKXxzJyCuANAqX/ZHZNo+1zvUDu5RVFpvBlww2f2sxIMae1s8cEs2GaelembES5XbnlbBcoQPxS4N/kRD6rx9CC0ZbCsGhV8vurrjOXTjM01DJRWTgHg3irVHTPrXB93r16x4Ry82megP8uX31oH9JgvW107X6bTVJLArmWog3LJjdogFqoTux2SPQ8mpK3bZV0a67XC8jNJfWsxnJXjLdQByml4sR+tXJHFYTmOk+ds5J3nsuWDNILXHBcPleZ7zZK879umdqVEBcs4pHK2Y7qbSGk8ZysZZsae59qamk/iq5Vk6UvRLFGjcotlDIulbrH+LlG8l//mrPjQYO0WpovRFnYVOM2CjKXGRZCyDvoutST9fGzLWrenD1A6dhnKZ1oqVZtJGnwbqTZYmhHHYTwXoe8WmTukTgNKGQV7ptwCCY95vptpc1B1pR46hNMwSzAzoiiqkccENOPGD0K0vigBkLXMKrOCmLPj66xDjau27uWUt4TuWAXX1X+cFBuyIpF/gEsRtAj+QmijjhOOUZyhrj0h4+XoP+BYWzql4cvmOwtxmGMHMR2w1BpzPF5CAGgGMruu9tgfAENVD7KueW/zIXVF61GQ+SqQm7U9UUOw2gOYlgf687PfCBbjrOOzTEiWEv/1f/PfYmV1LRM6YdgfIO0PELWamJvrYZgd/vu5334ef/iH/xQLCwuQvnVJFeBp2f9mVCe15ilNJF5//XWsr60DBEgpwc47vbVWklXOeFm2W20wgNFIvZCs1+3i0KFDOHBgP6RMETcasFTf4jlshxR/571FSol//9Wv4T9985u4vLKCRhQjEgJlRMjXtVbR+sYmWs0GBBGklOi0W3j2mU/gX/zpnwIAJDMEUS6T7Ah9LW+t3+rVGVb5xo/NqiAZazdX8aMf/Rj/z5//vxCpRJcFmhXnWyQC6EeMTZEJQdcpc/Mkq/iqlDLzadW9ZkPJ5tS99+LLX/wi7jx5As1Oq2A9mVYp9WLyGxoCIhEhHY3w2qu/wv/0v/0fuLq+jhRAzIyY80NgyPoIuCea23CivuWgkmaAOZISIhZYmp/Hpz75DL74+c9jaXHR4c7fClqms7Y2NaIYMUVYW13FW2+8ie/94Af41g9+kA1KSn4xE2Kr3gRAsJ9n8bVm6ncOwcyMZrOBRKZgIvzO77yIr/z+V9BstzFKRt6bBLKnKgdGz+quUu5xbjiH+4Z/zeeGQ4kqaAo3nPDYI49gs9+H3m994dz7eP/c+1hYWMDdH7kbkhm9bhd3HD+GOIqRpkrAJKwOZxgth3rHujBSVUDz6zffQq/TRiNuQLLVS7nwZD5DWVkrghAR0jTFcDTCR+46if/8T/4kz5LZMp1CTVedu/01iiJ8/a//BocPHMCp++5Dq9WCoHKwNDUag/ipTBFFqg4rKys498F53Li+kr1+SB+Vrynrjoa1qikdd05VEGGwOcD//Wf/GgeWl/HgRz+KriTESbmUNVgOorxsXSfzHm3OgIiz7bQMCCFw7fp1nD37Pr75t9/Cf/lf/RdZaMeqi3UqVKmB6clOHfmX4tL5C/hX/+rPsG9xEadOnYKIIkTMiMAOYOVWdJnzal9hAwYSAAlCHMd4/8IFvHb6NA4fPIjPvvhiGWtVWRfOURiNRjjz7hl885vfwvmLF/HcJ55Wg08mEiEJEbtegDVeIffY7ANx9BX9m9FoNpCkCVKW+Pmrv8KFixdxfeUGDjYPodlsotFsYjgcOqZbmT4FB4EZeFrjemLo/iTFTgyWQhC+/KUvglOZzZgRXv7Rj/GjH/wQx+44ji9++Uvob/axML+AKBJoNhsz9TgbzSauXL2KXqeN5z/1Kdx118ns/TqaqDBMVR0NZ56iCCwZo2SEX776Kt597z0vgf7Pzanq3McvALlwAAAgAElEQVQQMTPWVtdx5cYNvPjcZ/DE44+j2+2OZTDklpblz8w4f/48vvu97yn+spe1Kbeb8smIEPaHc/W8X2W5rq6s4Hee+wxe+O3n0YxisA2W5AIXg5EI7Ybn3VBbZvaaTGX9COj9QW+99Tb+7lt/h+vXro0dVOoSESGKCMlohLfPnsPvfObTeP53XkSz3VZgyT5YZrBRkFVxejF/4ZWidrMJKSW+9/2X8Mqrv8T6+sZM6pCmKTiV2NjYwOXLl7G8vISvfOlLTjxRsF5SprnNK6WXCGnvLQSWKh2j0Wig398AgbCy2cfGcICVtTXsO3AAjag5k/rsdpoILDn779jRYyAAKdS49M4bb6LVamJ5eQl33X0XBoMBOu02mJW1k6QptjxFmlG/3wcY2L+8jIceehCPPvKoB5ZAwbLEGDMfyr2XUiJJEqyuruKNt97OAIICrvak5No7cRwjimIsLy3hjjvuQK/bC9Qhp7pAORwMwMyZpUrqVcQbG1keVC+TEPfsWlQKaCIgijC/sIDF/fvR6naQeoEVEwlh1fUE2/aKbYEQBInsrwLOiASIFSivrKyg1Wxi0O9DpilEFBmJTDsQs+X2jzYHWFpYxLFjx9DqdBAxcjfcoAu77r7OB+SsZWWwictqSy7KYH9xcUG904nHn8dZtw5RJNBsNBAJgXazhePHj6v3SUFrXTgOzQQrNJYPBHar2C5ymiZoD+cRkUB7YQ6rVzYxSpPsXorhYDD7uH4FzaJHTpq6FCwdY5pgTBEdZNeNIYmRpilkIkEQAATiRhOSgSgSSFlmkwjuktmijaabh+AH8fMnACkVSMvMfQMFwIyLC6JNeSVSZjBIqFBBmiYYjoYAZL5OzuBdiPMwr+E7hE6njVQmIFKWuhAAZ65kyKkL5RgqQUQZ4AhhBidmCXVYbvbCNQ1glLWmlZG2Msg1EAMjTTZZlKZIsw8xQ9t8OlaVu4z5C7nKlnnlpwso3lOvjpIlEilV3DVrg1C8S8dAq3oTZczpN36KSFmZ+qbnl2SMZ+1AvgaQYwgQkPGXX+BU5jqqFNcDXJWxPdRowyQgelNBPdlKgiDiCCzIWIsarv3F5U4WnLNOjveQTwYay1rCjWVnNwSp9kqkBHlgOYlbPH2Pqvf8dM+4KSosS1etFWiI7I51jZQQhfWRpJRaJgm0Mqr0njIUSiwDolxU7Y56Va469VxNexSxlc11f+1bmdccxREEAJbKPlIgk3cUBioPBgjxGr6WvQBtNALAkFKBjZSZHeA9rjtZcWApxnkacSN/u+ZolM3kS20aKoC0Hspd4Bxg9A4shw0ffZiRJAmQgUAkBCIICOTvQ3Ja2gJomPgZFSx+ZrUg2gzMDETZa5LJ+jhWj/W/I+WSttJy0/gXRQLdVgssJaRM1YcJgmEmwOzDV5wyApYmIZ9A0dejOMpAkhERIc7ecmo/pPIJK1dZp9aWcZKmkESIGw2k0g4BuP1Ni8QpRVr92eQrNcya9K0oRsLASKYAq8GLpUJbEUeIZez5FVl5Y/qL1r0qE6TAcyhBxfNbozzXmbywzM7WMcIyIrPeyFerEGM1DOxCkq0a5WFOdM7aEnEWsZUdURRsMe+ia85N38hjjFztahooKY2ij1PVwFWTnAvgymXd3gdheJagI76CCWfyGMfxZKQt4qIF5hZqd+ucQvXxr4eu+blPVJdA5R3A86zrSeVUqKkZmfSkXPEd51uh2bXl9tLMd/Ds2AG0O0V2PMq8qKkM4TyToiQ/st4FZI5N2ybSZ30qz2C6vTvKZfMtUnUn/P7tcCa+BeNYFZlBacYjLcoS6zDook5BZH2sYgMJ3Ts2KBW8gZK/20bs1sOG9omBuIJ0/oKRxZ9rWH0fIppuUbp1Te+5dtYBWi8fcyV568Q6jcLo2WOifCZZUcVYWKMg41ozIz+4WD9cX0a+d6yvafeWwciCCTAv4KrgbxJrQYPFpC1afC+O5k39ZvdGdjHvkrrcXBHDTpwG4EnIyM1+6VVFBXO3tXjNyZTsu+pjH3mS73ILMGw9X/DYsosEmEk0HSiuswLEZDJJu3sgWdX+HzYQnWw2nLQ3miluZiERCUQgCKjZTGkf9LoLpMne35lkGArG1CzAnmiRUrqdU7/h0gJU+7fDQog1YivW5loWxaXHFk/6f9us21bKa2DzWQSbUJf06mHag527IflUucLOr+ygaDMbXjY2UlWuxTKYyNQp55jHHpTr67A9bJuP13ahwbRW004DoH76Kfp22SO7BXSncsOdrVukRjTbBdATI5WVnJEEytrUvz7z7r+FDH3LsjTGV3xwLAtm0Qjl7QBYFlK5n2men65qW5Nw3T5cmUENIWqd5VxZTWcvuKzVZqKfawm5zrhtTeZgltnXIcOSit9Dp7r7xmsQKGtSgQ3f6g9QAZMnc5J2DSBW0cRg6SiU8YmQ7YfVHxQlG3AXZ0V1AXO3UB6zzEz1qoM/bwsqs92r/PTijbDKmCCCBQwcADXPoirNr3jNfkXKVOQeKllR2u1DhZYkAEQfvjmJCagCLMuHhtyy1G5PvgtAkoqTiYIvNKFtX0Hsfb/dGtAWyW4F9MmpYJeVqE91Y+mB1qy5Nf4le9jra0GRG6coLn9CMDsTFk4iy/Irtyqrrpf3o6Kx7zEcou1QmEDXDHlmHx5dnYRy4ZSDJQHFCLmygPK5G7UezTlQFPkm/upARk3X00ulY3H2lq4yskv3FTMUBdujaWnGQQ/toxpf1fKXK7qtY1H6A1FJA/sxP/OXvTWvE7qV5iHreHdiciZIzHVksUzHYi4i2LglSFshf71raTorbXBNbkaesW+evT07mmK62g0vDLMqzgbK95sS58sIgGwLlY6XVbgkbgSnHrM2J+ZTAzDteCrgKesebZEmcb2ryG6VMrtmvH3j68O4OJs+WMKUzsoIKOonTQ+Y1kM2OOdAqccFskDetky3V18nHdrKDI4QbTWWeWvJZXT6tztmra2Viqx3d5vtVlZZ/kgTaqBpZVjW2LvVbXC64G2jOGOIbCAL2fSzLMsv1yWbi3GvcrK9fPu3azFVgbhnARYMwvH1n12AajYUWnZUb6j6cNN0s+HZ/3oEVjFLfdCWncalwihTuDBd17rdGpD1eY1QVsyHBzGBvEttsy1Uw6ModHrvGfK++2sIw6nHhxzy2t++7VqoJY334j7sNLVl6Spa5rZYR0HVz2WcozRb8mNF1s9AZyLrxuwg2V6ITjSpzHYHFeW1XXZHDl9UMBO3JrnQAms7Lmhv6XT/+vzZxBVAqU2LovzqhJTKSFvGhucdVKiqom5Hva6iqcDSBUbKA+Ig87dWx9nhiK8PlLat4HORWxqz509blgDU4RD2Kx9uA3Icbkc8ut3J+j0t2XnYMfLZtEdV3NoFSk36xIlx5fv2arjkoOU2Jue6pe401d7yepvTFi3LTER6zWB2/JRAnaXNt068fkcJQvu2YRfnB/JqPuztobc9bWe7bkPeIbGHlMEE3UNg6JmIt4CqwH+7y0XoYI0tgv9upJm/N1yPmb8JI81UxIDkFPpMUJAFmHt0S0mfA0Ais5ZMOJmCE0m/8UQwenu7eUfT0GRg6clCnz5iDjvN3EshCHJCuU0KFTtjv+TvLnFWhVYVXqfeu1inarNWkIFlnwczKct52jjkNmlAmedccnMW0ey6z1dJZ6dnqhUvlJ0SxaWW5C5W9ZqU16AcLIPxRDL3BBMaEmhKIJYoCqsQHPfz46AkxwqXs2VK1t86LmyRt4Di6/WjnK+003ybHSUmwFAS7J+REVL0BOtlyoC153wWZReXgdmp3FnnwrAyJnc7xlkd6zSvQdCWnkm+Hd1xgiCcEnjhkiKVicygTEJCsoQ+u76Kd/bq5k8xFaeV9N/8DNPS3MeKTB2IY6c3K1+sNxOotleGEQc8I//tjjs8RTEDcqVeeVJ68Tc5vxoSaKVAbBpHdVKC8PSNC6fmmOuT6rr1mlStEcU37o2j4jBogNL8MyxmZZF1AA6HZy6ZMbMJIb9OdeOa1o6RLRVvfyeXn9zQsocNxV91NKEmUyWDqHoJhPfiVr2ie+ZU38odW2VzCpR9IpTLcw4/7qPjDtIw18nD7RKmgicnBsidk0B+noEGSsr5kaEG02p4W4FjiPK6zehVeVm2nEPqbS+jbSQGjEWcK3euiMHfe7T9RLb+UtYEe21QSeYlPh9+Oc0ELJ3tYYzZWVcfVmJth2ff9cSClWRvwNl50hsE9HmjlL1p0kz8/AYAwiRkZMJlnuOHiyYCS87+I+RusA4ZSsmQaRZLhHrdK5C92/g2jPLqV4juAX+R7HhYsWmr5DXlNB67oREywa/yGKfW0VvXeiUzHuCSf7cv3c68T0KTWZbGdXQ/aSqRJCnSJIVMGSwZ7XYHADAcDZHK9PYTqAOUe4DpE5eJxg+0FcgP1FSktUGR7ac8u9ubObBzNvu8/U8FhxOTDuA5n9IKQce880/ldMwe7RKaaOmQdhWT4RCcAlEKiJSQJCP1akyWGG5uoiHaWF9bw+bmJpqNpho5pXov9y0hX3fNC63JTxZ6FIT8Fa87QlRiuXnF37Klf7XEYE3C1H+omopLGmqVXlmynhhBjvHlVnNZSZPQZLnv0e6hyU9KZ8bPXn4ZGIzQTtVs+Ln3z2Fzs4/z5z/AT37yY6ARQTQaWFhcwEMPnoIQhCRJbpk7bkUIFXkzy0WbJH9Ku035te0nPcfs8O0DpZ6N+DD3Ofs8S6f+/kqBwLUxZLdo4VNmGO7RbzRNeFI6Q7LE//x//l9YX7mJbgq0JTAYDDEajTB6711895VfAJ0WIAjPPvUxHDp4AIcOHQKRALPczroUiXLgsTuUPlNP106/hM15zZdeIqTTTLCUZHLKl+D47zfSDDLcmVn2KjEFXuxeKhilbpsochY3uV9rNpMGRdtzzv9aB17cSrLrc0tjsL+plCtjrZPSzUw3CBEBf/rP/hDJYIiY1Unpr59+Hb8+fRr7Dh7Ak08/hWa7iYQljh07ik6nDWOhBa25bSLjXvnqzjmImjcnanBS+9zUP5nHkoy8Zt918g7J7mtYawioULfdNCOp0N27UEVlvPt2X3VeGk/ZHkQCLPhWpPs9dLZBCX9TqoQT1QkAfEhyexH0W0VK4mNPSs+D4TnYPfXxj4GldpEIm5A4e/USjp08gWee+QSa7RbWN9bQ6rSzmKVtO+0MGaD0LMT8LnLDjAEmmYGmBEiaZ5gYOxE/MEBpegI7dSCvFmbPsk69G60OP+A6Nshahh4eYJZU1H4aPB6rc5AkFzShAdPL2TotaqvkewKFKukxOgT6e7RD5Ep94pglEWF+fh6E/F08rVYTLCXiOMLS0iIarSYazQZELCAiAZZS+7o7Ajwuea607rD2jC3lA4LbIX2rZmdU1gZFO4xgL2NS3OwcTztPrj2lZ7b1HbOVbivVzwBSwgZOVzX2aI80TQCWZN5jbxZQZ8oWxRFEJEAENJsNMKDcbyJI5EuMbmUASLvUOvZIlL2t2/Q5HQO0ATMUF9shwDRbCS3Xs2Ap/SasAg2FbtgA21Zzti1KZxUC4cM7Du3RVDT9O3iQuypx3EC72UIcN1TcDwwhBGS2QF2P3EG0HKeQMwdYsmyVACOml/gmxs72HuIMvjOfUu9dd9LsGC/eBWscqb1mccIZZm1JmgOlC4ebGFZKn7+Vg/NOkjP/tUfbRls4zzJzXLNX4woICBJIpYSIIrVUSB8KWEp1tHmWKjDOErOB0r+2c1Q8aT4DSjdysKN8BYcWtkBtjOPgWGwl9/wSVN75m578tiizLks99KoY4W1Oe5M/209bOvzXP5aJUQxJ3j4HgobU7Fb6YvbJR8WY5Y6Ti91bzqKKyloCFijvxRVd+k2ypG8VbekgDWf6w9sKuUd7NGsi78uelu3RTlK1ZRlwrfzXkRWmPWxXMXMdw8cEjDsktphfWe+oZWXYE8fGTaN8RM7WadguX56t7xZvA2XxudrrLD12tsvQmrrmNWKUtg7pmLZ+o6bvStuxUXsdZGjazTSny84WqKRNtqASoUfJ+xEIFZfWQ09Q7dH2Ua2T0u35SA0jBHLWgNk4xARQNtFDTqN76lvLAh0XaBp3ZovqNmSVR9nkjTN9w/oILu8Q4Lwne7WcDeWyswXFZpdR9bPbM+FTMvXl/C6AmXXfBr86gJkvBcpPerJjoeaVtZyDICNfG1l4V6KnWvqZuvJxgdhvc18fJ5y50rkU4s8+D9V/Q7jtqOoezZwmPindghsAVqMHW0ppLQUDKrM5lqrOEg/yu7KZZbXSEJmOaSfdmTihex4o6zValU+UxKm2yG4IWAqclMy8+lzXtna8NPb7vPVte1DRlmWlhKw8p1uwPwm8bo3KSvLlN+6k9D3aXppZzFKDH9unf+/RHs2KPMDbm+DZo52mLZ6Ung9p7EyFf1jQchf0yN0uyh3iz3fDd0Xb7NFvFE2+3RFWjA2Z4jJBFNbDmbu7jMp8FnI/7DqB+v2OO0V2jNXwwG6KnQQq/7cOAdhSmzU7eazSbzM7WJD9neAAkltHno4V7u3G/nKbUB3RbVE3plpnSdY3vVZaIFNqs7l2NzZ8GV+h6Fj+UbPUVBIk3AYu7Qkl6/stwwEuQpU9wbMdhxA7u3eCdffbcrfqnE9lYLlHW6M68tyafmxtUXpwKiCbJdm1elsi1J2L509Ft5Q1b3YZyA1vtr7PkpQmcXauZGgyZ7coGKN0l9puYfE3gOro4FbVdAtgabtB1seYGXua8mGhUEvqmdpta+0sb2b9So/CPLv7+5aOJiW1d9fN7dE2UZ0lU5MuHwvRBCeluy6PXkhU2LnLflqf3bLfe7QbqBb4udGB0mcIRYu0bI2MbZxxZsnaw7AkQGYHMys9GwOQ/nLIiWkW6Gv3ISresu9QMQ3BXW97y965tBuJJ/NojBh9CBr7VP6n+qR0O2cDggSChHk9qV7ozQHALDBTBr5VZPciBHrfHs2aQkNaIdhCblp/dFfP+Stci21npgJ1hiKzJqE3PSjLUhIjJZWDYEaE/DSrghccUL1JoC98LtWUk5YG4dw4ZZE/rzRWIQi9V8luh10cLdoZshagTtQaPrrWWIBrG3/13fBcq2Fbluo7Z588Y5eJAEelFmgo3R7dKjJgaDUhFb6EH3SAMpC2iHHkuPe5dZm96IMAJlaTifbzHpqX2HJboCqgrOMAFq/U4Y24RO57pKik3WddiM53SxM8yn1iEGdqzjwN3u/RLqfQ4gbHotyWBRBcfKGYhY7jxuKdpaoVFnu0XWQ7vzsh7TBYVii9z6Dtes/+fXg1bARd5FTSmuIh4/dV1bNOMK2sbiVBvbH5VhVnPzcuj6ry9S9yZ8Nr5c3hGCYQnE22XU8dHQ9Jrq6DUk5+O9RF/QzJSwOJJfHKCbuI7l/s5+F+2QaapkPZPHKNfjItueEMhT/hpXXOtCBNt8VaPxOHrlat6KPsvonqsP6tY5iUd4qx8h6ToNDRXS6cz6RSmPoU9EwBSqPLdcBII433V/2ofqYWf1omXlmBTkYmXUX5hbraedtllTcCMWUxuAAZcY6rZ16eWedZkrxwucCaXVbJXz0w2gjPetObD92hmYNMLmRfF9nH45DDdTF4HFRxS/ZOewRY8jirJl2YnZerUxRsf7+kCWdhJiAjYY0/zGjEDQyHQ4xGCaIoQqTf/0UEEvl5aU5oiStgBm7zFSxL/4CJ0NMaEE3+nDFt7eIJvUy0mNe4BOHO4x6jlo+9dYlK8h1LjuKXgFot5bDT+aBd8Uwt8kEgVNeqMsvG54pBq+ZJDmV6ZXA22IwB8GcCKLO1tmK4sNcOzuACC73K9GscYPrgpcGyqCdEMJOl+UXOgTLQoyn7v3iSfLVQxsqNStrT29XmtIsZ7AoPVfIyDRFQmFAWLNASDYzSARok0IhiEAgJlOyEJW8T2rGwvBLysr9bilkSA8LCD1MJNvo8loFCnmMSMgOR9RHZZ2Le4fJHZAte70iyPsiVbKLiuFgn3SeEx3/Iq/OPGhtHxG6+9ic7n7n4TAl/VhUKlRbZNcGc2UqTCqbIhL9MRiDn3Zxnmf01MpvScNFtLGDpkVWegO5kWaEZ5bIhC8SkK0SvzbUOqfzZ5G8/ENqlpHVBQvUztq7bfc22soT1u6qPVYotoLNaVgjoFZD9DejN7KHSMwcyHjpREzRknH/nfdy4cQNz8/PYt38fenNzaDQbkIkECSjvJnsVjnbLdRNLYkiSTjk2TQ2WmmHhCVaDjBJSuagYSgmcPAONVHiIgZgZMQOR1IrtlmO/MrVssPMVxgZEASCC+9s2IqpWL/m3/HJMB7QAWVj3glXWvNUABv2ac823ABtFDyovF/P10/ggS6TrwA7ATE12e2Xf7YHLAYSsPMeFmoJCg4pTHiuA8o1HuzzWTHjGnA3q9u8QyDjPBH4Lq542K+Txra9HbL3at6buh8jXCR8YnXbXsnKLCerWTMirg2BCg2KkwxFOv/Ia/uEffoh2t4N77rkHh48cxtK+fWi2m9i3bwntbgedble9opvIvBqHAUCkasUF/EVviuJiIzOA/MRuAWtvLme/deNIJSQBAgkBATIClCqbYCQHUA2qXQyYvEPWaJ5I8xBLQiSVYsQMsAy5J3mD+aAZeqEVZwgjGIggEEFYykgQEOZ1vnl8rcipr6T+AKAbOWIAiQSlEkLmYGbzq37nvWXsomRmCMEgyYhTRiwZEas2iTgbTT1EtiRr8sh7JbmXKH8mzkIuMRPi7Pc4CrFPyBacGwDMOdJyihloMoEh0CahsIlJKbaVqc2CA2p+HQHExIgIymUDIc7K0eXFmQ4r4NFtQO7ZJmBIomw4UnqaA2VeXkTK9Y5JoEECMRFi637Oq4vOqp7IBmhyUgkGhGRQyohSoJkCjaxP6P4qAwIPAqWno9qrdsA5ZQgpQQwjL+3dkeRs0HdzZq99XEbK9UXLUP+wBwr9qN2vIgiM+iN04jbSQYpL5y/hwuXL+NEPf4JGs4l9+/bhyNHDeODU/di3fx+OHT+Oufl59Obn0JnrotFogIiQAkgh85hmxoCeWoz9lyekUmJl5Qb6GxsgAE1qINJiYCBfT5lZhgSs3VxFkkpsbg5w7fIVUCSQpEkGHJaqeoqdMjsHmtpArJ/xT9oRIPBgBEkRVq/dwNULl5HItDJCWuzHVp2zx0ZJChCBpcT6zTXIUYJrV66i1+5AphJCEGRWDluidMsh1bkqwFIJjtEigasXL+HCufcxXFrPOlTOr/8yuHGL8YkBKaVqwzTF9YuXsbm6jmQ4wLVLl9FsNM17kpwB0gN+1UHZWLIM1XM4i1Nofbl57TqaTBiubWDl8jWMun1Xof0OqOvl853dU2soDUO59ZRK3Lx6HTQYoZUC/es3MeIEaZZeemXYnSuPR2UQYTVMJAhRFKF/cxUNBjbX1nH90mVEnTbaKdCUgCRC6piX9mCjFsszAdJxPXTd87KacQsEgeH6BihNMdro48blqyY/tvKy8zdyM/UiJzzBwwQYpbh5+SrkWh+j9gauXbiMVKCgh47MAwO43zch3NUHaSrVYEyEpL8JHoyweu06rl64iCRJVD0bDaccznZchYCxbBKZvL9GN7w0Zt6EAcERZF+iHbWxfnMDPGLIoYRkxqifYOPmBs6eOYeXX34F/X4fh48cxj333I0HH3oQDzxwPw4dOYxut4fGQssgMWfusT2/QX/x3l85OMPM+O/+5b/E6y//AogiYMTAKM05N18siScSYAHRiAAh0Oy0sLm2ZvkjbgctJd8ss68bSQnzCggSAiwAyWkYTMj74vdeczszbZIEZslDFKPR7UKAMLh+A4gjIKJyf0n/COlAgTXG3OISNjb6kJv9jAUbLAkmiKqfZ398LVIkIqTDofqRZjJvCtWOACBlASwNKtq8muPOKP9r0mXgIaXSCyIlGxNUY5NPQdxVxqfO3+ZFKvNOpFJZl0KVM4SEJMAeukweobYG4M5A6/oAUQq0E4lBmiCJCIgEkAKxVFajLPiXGp6zCgYmtgvIw6RkJYT6MKs20bJ2+kmVHlvZM9BqdtCmCMlgCEolBukQotNGUgGWRQOkaG0q99S1LMGMKIoxGgzU90ZD9T+pLDFBVHhZoQHL7HmwzHQwr0MtKutTZlyJ0EATDdFAs9kCmDFKEiRphlu6PnoHWNYfEpmg0+3gjjuO4ZFHH8EnnnsGd526ByllgQxi2O+rL8Qs19bW8KlnnsGD992PNEkgRxKNqOEd9c/5NkcAZ959D2+8+RYW5ufx5BOPQcSREiQhG1nyDuTW1e212uX1ZUTWQ4IEvvWtb4MBPPrwQzhy9AgSmQRlCeTWjG3ZmHw1JmRXkiQFS4kzZ97DG2+9jWc+/nH0Oh0MhkMsLi7AP//Gx3bfonF4dxIx/uIv/i0ef/wx3HHsGDqtFiJhh/yLoMs2EJVQFEUYDoYgAtbW1vHWO+9gOBrit554EiQIUkqw55spfHIroRWePLAki6/VmzfxV//xG3j8ySdx110nEceB8LcPyuFLkKi2LG9cuoK333gLJCU+9ZlPYSTTLBjv5me3sdPuHqopw4kgCFi/eh0vffPbePD+e3HHqfvBzQbaKdCSjNQDSwZnTpoNCCFQykcKYkKn1QGY8Oprr+GdM+/hxLGjOPXAAyolWz2B2An1BPXJsiybFKHBAlcuXcIbp19Hd34Oj/7W49m2UBWm8EnJlQvXCqm8wZqZEccRBoMBfvbyz7G+sYH7PvpRHDp0CO1WCxv9DaRpmo+VWd9nyiavMj0jIdTfEsPCt3J1Xk4aJhBnAUIGCAIxYjSiBn7xyi/x3ntnsZmMILVcMxBP0xQYbCKan8f+/ftw8OAB3H33nbj7o/fgxN0ncfyO41nILZOdx0dBw3u9Hj7z6U9DHz4rk2wfuGUpEBvHBgDw0ks/wCBJcPddJ/GHf/SHiOMYm6MhoN2LokzUPeMvtwIAACAASURBVHa7jr+w1HdnNFi+/ItX0Gq18OnnPoNTD55CItNwCQGg1GDpyJ8BmaQAlBv+7W9/Gytra/j9f/T7OHrkiHEzpOfuhwzhMuPYrhMAfOOb38LjTz6Bjz35JBYWFhw3HPAADFANXp5txp80fJ479z4GaYL19XV88ctfQrPRgAy8prhQDopgSXp9JJFZdnjhwgX81be+jQcffgjPP/88ut1u2CqqQeqQjEw3s0HDgGWS4u3Tb2A4GkGOEvz+P/4DjGSq9osjl7U7OFKhzXX0XZMgQhwJnH/nPfz8hz/Bgw8/jM988fcQdztoZTFAKQBpuaMAQ1oxLc2oGzJh5y+BEEcNEBO683OgSODhhx7C733uc9m46ZlZzEGdzcE3B8tO1ESTIrz2q9ew3t/E8v5lfPHLX0JKFZYlBzHKTQMUXGeZpqrvEKE/HGJlZQWf/8IXcOLECYxGIwgh0Chzwz1irsFEFX8s8nNOs7+jQYJm3MBmOsJ7Fz7A5vV+ro8EIIpx/ORx3HfvfXj8icdx4s4TaLYamOt10ZprAzGh3WllYR299NFl0gNLQiQiLMwtmA7CxiLNR+U8taJ2bw6i0UTcbqOzMI8ojtHIFLrqxVJ2x6WMRbuFc5chL7vVaKE1N4dWq4X2/Dw6CwsmLlrIH57S2Zal316sOtBoNELc7UBGhEa3jc7iPGQqIVlCZMsOnPw968brSsF3qBMDaDbR6vXQW1rC/OKiC5a+tafzGYdFRBCCkKYpVjb6aPV6GAFYPngQzaaKWab+wMK+hW/zrMHSGrSyEfdmfwOIBOJuB72lRcz15sYwV042WLoxbIBSqXSq1QKEwPzyMpJMyvo5qyrqb2CQBIRnhirvqD0/BzQa6MzPY/HAAcTdTh6zFEBKOUMMhmR3mZDqHuUNo2xa5XK35noQ7Raac13M71/OmTbmlDcQw9cvVbCeeGxAIJJAq9eDaDURddpY2L/fHXxCPI3DqoD+EZGxHONOG7yxjvb8PJYPHVTejCBEkQ0nDK87o2ggTUd5vJLM72SUoBk30eg1MaQE6ETYv7yM48eP4b777sOJO0/g6LFjmJ+fx+LyEtqdtlrVEREgCJIkWAD6OECifGJHw0tw6ZACLa+RnBFcQZu+nxIhJWAEYMRKoVhkIzyVK1NhDSG7A5qKTZq7IAYSAp74+Mcgso4jhYAsLEIKK5sTh7HMbAJAQtUpJUICxiZLDDnFiGVmTTCizIVAID9NEu41s7zEYowIGAo1eZAKVaa/9qIAlrkYSkkIARZqIRVHAjKKso+AjNRsfhjMvQEg4Kb59U6y+GKqP35sr4RCmqCBz28fmQ1gSfZJs78SIuyGl3gSyhx23T4pGSwZCYBEENJIKF2KhAoLILcsdSkMQObrFrL8GfZWTJ/00yyBhBgJQVl+Y+TlD/IO8mSFJSnUJAYhy5dUHcgKawQyLnhWIb49/YuiSNWfGQkRRswYgZW84ghWN82KIdvaMdLYOlTCzIbrjQnEgGhFSCFx4p4TeOGzz2FpcQHHjx5Fp9vB/gMHsLi0hG6vl3kvilF9mhVno4e01l0a482qVxAs2asg4Cqlum2Pgur4LK3ARKHGDpTjlUKFa+xcFURIIPH0s89ASomlpSWl0PagTJojt2zfnTFbV7PrgnTsTNUlzdw8qQUKVoeG6Ge8wcMAMucdCboze6OCgAJkrf+60Wwqrn2soWbZAkHdDtJ818BSLMfitrSs4lFrMJtdpPlU81d111iVgHFptWWpr9sAIO3fth6afKg4kBXkqWVfHExVrM2tly5HehJjL0+/sDxvNoaDX26IbJ6MKWDLmLM5NUt/8na3LUuvFEJNsPR/5/1A9xFpQiH5X7+skNyLPb8+6bliE1JlVW4cRUjTFPeeuhd3fuQk9i0vYa7Xw+ZgACYF9mkqMwGwySzfrJR7dmXy8cAy0CWJCqEoItebV0LLG4w0QusGC5RcNinr6IOWhvU7jgWOHD+K0WgEIJsRdfLPmsOKlQYVM3BNWACTOArogqWNzX5Zui55/d3UBAUIDGV9a3DzR2CqAWoFcsDS70BsQMcd6Lx8OaAFgT3detmYAS5dfgn5MnPueSBngAC2HN2y7MOA3Xz0NNx4y83my/l4oJbH/9jR29wC8YwCr6ISebtw9pHee1XLvFNd15D0ZNZhfJCUDs/us5rXaukU9c+AJVvlQe14MRaZ59+HJnGmO8pCMW1br4xM3bPfCUlIkljYv4QoEhBCIAFDtCPlVFAEHkgrXsqA0D6ByOobWNBkzRXE/jqoYrtwULLuqJ2nMUnJ/lvMQDPn8VVI6lg0zCChJjD0zKHUJqLTSFzgQytJWd75ah3rbE4fsDyrMb/h5aX/hoAn4w/MltjdTk9BdR6vZmz9g/Pd7OnIh2ZTb3Y7arAXhYDb/u7rSJFX85vsa2TuKZmySaI+7HwEzNRNgSfDhlH6asC0QSNXVX3UYLEeHqdOPsavMIqRt19QL6C2PVpsl6Kl3i0VXlFnhhDv4xVmDyjh7hwquXBFCIFEJojjCJ1OC41GDMkSRKSWDgUH4XGluSDFzJBSIo5ibGxs4MqVKxiNRmCp1ng2Gg3Mz81jcWEBUaxiwcwMTtms6hplE7JxFKPRaIJIxTRjxGBiRHGMNEkQiRjEUHF8VvynMoWIVLhtOBqY2XtAbVSAqwCBPapjXCxooMnMQ7JNRDs46IioeD2c1FqoTsBwOFDKJrTqahBweqEz4puGcADVLUsDpKD8Q3a9AKczl+3ZtnXUhMm8clU9ZWalqtGOOI+7hjp5PmtaQcYsYjDLLG+ZLXyWZrG5C1jBoawkc/3VrhB79zmYLJxbHu/LJ3b0SgvrLzOEsmPUspdCmRbXXpsqK75o9NpNWgRMOy92vjOkh0M5KHpDf14WZScu6Q/c1SVMxYlBTSYUwble5OVoWTAIMgd7v5IFmty6kzJFFAmkKXDixB04fPgQlpYWwdkMsIiEWpqGvI8UO7Q7BwHnjqpKkkqMRiO0ek1cv3IV3//u97FycwUrKytotVo4fOgQTt3/AB469RAaIgJI9Y0oaiAZDRBHMaJIYVgkYsQcAQkgU2VoMRjdZhf9tI+WaIMlsJlsZiEEqbb5kzqlaLM/QLPVVKAMOLuucoXwlkJ4RkOgogxHue2OUzIqUmnfty2sTNgmUKi7tt0g9ihWVFrnu+YlMLr6Z7cIsFUXzusyTtEsl7VsjNFgma/88yErbI3WU/GcX30oswacsEVWlq+HqB4v5jtrSxmlIOZz55aRt68tf2JlfenNhDpSQWCIbOeXac8C59boymEZC1YWtXN4Butte3nZ7sKhfH2xW14NW4299rBwxI7PFmRn2M6HftvyBnv9bYyWFEE9lKaYR7/fR6MRI44b+NxnP4s0VWuSCYwkTTAaDdBsNt28KaRbLoDqlnf7norrt5otLC0sgNMUr712GkcOH8RCbw6tRhMb6+tYvXEDCwvziKMYw80RkEqsD9bQarXQaXcxGvZxs7+JVqOJVruF1fVVkCCsX78JZsKgMQBYYDDaxGA0ACJgbqEHEcdgKdFutpThl6lo7NfDX/xcEKw2mQICdlxYx6QrJK9JLjgWTAfAzIrZv6uUoRTAkCsgacU2loUevcfTeEXM9tBmW8fUqU3F+VQ/n/FROL8N7LWwLug7Y73X3gj8DHGkmyL/awMm5/mUY676naGGBkhtdekDWuxTgLLwvLnOVCaT/GpeP7eTamvNzj//y9kBJDoCqnMtDgZmLWo+RAY5snk31SaYTQJ6X7Xf/5jycxbssm1wcX+7a6B9qgeWReq2W2i2WhhsbiKVKVrNJgBgMByWlMmF9i8rzdalRhwjjiKMhkMcPLAfX/rCF/D666/j0sWL+MRTT+HRRx7BT37yU/z5v/lztBpNvPDcc3j4gVP4N3/2r7E8v4C3334bS4uLOHr0OG7eXMPN1Zt48NSDuPPOO/HvvvZVnDr1AH7605/h0KGDePHFz+Lw4SN4+eWf4jvf/y4STvDoY4/iS1/5IlJO1UaRbM6GEJoNL/bSsDQrrUK3s4TkVR8//bhRkcFQ/nWqEXzGxmX4Cjm+9esAqsMVhxU4nM84q8EbsEo6jmvDlgGOA6mFW/YAYoMyHDc5z8a42X4p2ajN1l3bMrcxwgCqlVc57zrTIlDqcvNSWV+o0Q5hW6lYjj+42IMuuw9z6ImcT7URIBeGnU7LxM1y/Fmfk2pxq91Cf6OPRrOJOIowGA4wGo4QRRGajQaEyNxwLxYbll9In/R31SfiKIIQApEQYDAGwyGGwyFeeukl/PwXr+DJx5/Awtwcvva1vwSNUnzn29/B048/gaXeHF5/9TW8f+Yc7jx5N1auXsd/+OrX8Ef/7I/w2i9/hQiExx5+BH/zt3+L/vomRmmKDy6ex6mHHsDho0fw//2Hv8R6fx3/5J/+Y3R7PQyHQ7PpZWvv4NkCKc+iDrT4Vi5X9uOyHKpgJm+oMESa77VGyjpUtAfCccBZlxNIERpVCkn1ydh5dgIEEClLzFusXyaj4nKoHEJ0LMs6g1/9J9VNEgIEASIBZr0rvCo0oQGTEK4UwxzGqo7OyndEUlZm9t190juJku3hPKwgIRGXLc72Y3oEFGLfesCw5wgEqW16RJTfK6Fx1qXDWZbRcDQCRQKSJUapWrQdN9QBu0Rkdo/5ejDR7Dfnk42pVBtB0hQgQRgmQzSaDVy5chnf/8lP8PNf/xoiOzfgzJl3EUcRHn30URw+eBDra+tYXFrCZz7zafz617/GX3796zj73nu4dPkynv3ks3jssUexsb6BH/7kx3jvg/N4+OFTeO6558ACOP7TH+OlH/4QX/lHX0Z/s2/kG7Ysd5Cmxp1pHqx4xp4hdN0pDWSYIVDmDJmyCnnPsiDX9nMpYHUVjLDwufIhy5L18wETaFyN/PGPs/+c5Sj6rzOlW9dncIWs8ldWMFumTXH5S2VQKlA+WwCtH5ukPX2L1JKHdVHHb/3WJTuPOuyWkPEEsr961YkGejXGqIEjDPwFRRpfpsMgZxOTULvnIgEQMBgNcfjQATz37Kcw3+mi02zizqPH8fWvfwO9+Tks7d8HigQoEujO99DstMAEdOd6oCgCRYTlffsgwSAhEMcRhCA0m01IMPqbfTSaDSwvL2OYDNWupYxuKVjuUUYFU2BWluUeKQq54nsynob8Lco7RaNRgsFggMOHDmH/0jLOvPcejh85gmGni4X9+zCICMOIMYyBzYjRQIJNpBhFQJ8TbHKCVA7x19/5O3xw5RJ+9eZp3HPvR3DPvR/B+UsX8Bf/7t+i0+tgZW0Vv/38Z9SAJER+Uhe2ASx3UoDbRTtdh4LlVrLc6rajKa3xEqd5BsxMQLeRIpua7STPO6ie+/btwzNPP4Wjx45irtuDEBGu37iBTruD+fl5NHsdfOHLn8fBk3egvbiIJ559Gq1GC719izh57z347Bd+F4uH9gPtJpaPHMTasI9Hn3wcp+5/AL1uF++ceRfnL55H1Izxhd/7HB59/FEMBgO13tKq6lRgGdzVxPkR88568y25r96EUSU/xUIqn3Y8T7ICQ3meZE5bcsGrkpuCS+K7Vdqt9w4VsJdHmSCet2B8jCCZyfogm29h69BfO97rOj36WliK4+Jw+eQI6zU9Og3bKYpZBb1pyuqSla3jmnr7qdnZVSmOkCtq/dAunv5k++bVNVYntwPWRols987YgyCmVXYOKpbZfabvUZ7UjtlKwLitU5Rc+rvslCo/XlxoR/LUrW6JVPiC5eVlPPvss2am/OChgxgOEwyHQ7TaLbRabXz+i1/AXK+HKIrw8aefBgHodDpYWF7E/sMHcf78BaDXwdOf/ATme3NYnJ/H3Nwc2q0Wjt99Aqurq0g5Ra/Xg4gFUilBkXsg95bewWO+e2El00lswJy4AL8bl8x6B05DsossO0zAju7YM6y66DzWb0NlXqHyfANAYiV2tmEiV0a1nstSQM2jOWaK6oW+dHwVltj1sV/sY3lRSTWwkn/DiRLksVZzMos9mNhH7dn45CmCvdnAYz37Teav2qudyd00zrjlVF6gz9NDmXV5DZIMtSPM/NODzjiqWn1fk/wlQ+71TDb2mK3b0uZ3mnL135pVYFaTOwW4Y89D0vVx8i33GUyXzL6YFQ8MREJgfi4/1SpqNNBsuYC9uLRo8u7O9dT5m40G4jjGCBLi2lU8+PApLB/YjwP79ytehUBCjKjVwHJrGSwzfWCp9E3aWwV4CrAsaRE/0Lw1KhZSlW/ZvakwehaZTFaCd9uyMLdCM+jAVVQ7dw8Q6z5C3jNbbwZvRKyd77iQyK3317cqm4mfr62b08umyiE1upFvrSuUJ0ioSSEBNFtNHDl6GP/iT/8zLO9bAkOi2WqpU7qYkUoJsBoy9RZlPRDZtDfBsxvIX3ozpTu1R+OIS77v0SS0eyVn24GMJB2BUhUWWliYx9GjRzEajrA5GCBl9dYANluD2fKQwzXcIlj6ro2N8LtHpMHYSpAo8EHmTczmLL4gU3b53pbO2ZRD+d+gqVddFnlJfBnWtR9UTLOEx8pMuMBtfmU6Oakt9LkLaI4f0SFl2i7jPNOr3dM9JqL6fWlG5dUqJBTszdxoBkioAzj6/Q2MkgSE7OWDZOsQO1uhrUidSbEFsMw7IIUAZhcCZrncXd4pdN0cgDmLOuk8yfvuc7tVV9wqy+RnK0j9MpzoH+d7zQ2QjgE8v/Qgq84DnMe9CjxkuXmTcpPJi62j2KyPiV+GalCH8SqyQdKvze7pK2Vkx9q3DSi1QvGk2l/kiPRpZJy/ciWO42w3VHnuqtsUW2SGbjh5nXNnGn/SUsYbMWXR1xmqh9Nh7MHGtvq2Q37Tl1Ee7au3Z37yEnVbacVmux9BTfrY0345+NdvKTYTbjZA6kNsCzBdPr07ARV1a1yWvpVzK6nUMdDj15i0tWnS+lbMpdgjuv5d6m7nzmTh/u0fs9Se65bIsrLI7jq277n7R/4COWafbxeE7acy8qMtzgn0NRXbL3EqR9rqlMEaWK7UjpAfo7BvTKgyQSCiSVtqZ8nWqlvrTNYpWKWp0o2qXLYes9wWqpZ6ocNVsBHMJZh93uyuraEA1H9Xza4nc54okAdibNWu3wULlg271+pYPhxIZ9jxnqXAZad4ykEkVC7rY7WqWZoRlcmQYZ0QUjMXPxQz2WA0LU2CcXZa/y+AyXZ2zpLGlVvnPNgxVA6WIU0s9JAqIsvnnYLJwsGT4QkWVURYUiErJn/GPk3djVWS85mZY7EDFLIiQ2ks8tsnYKlXdQDvHVqWK1uDW9s6tdghwDq/Mv8eacNfW1tWGflq2Pyi70a7LE1hBpkM6j7HKC5vye748vH2k6sXftm/A2zMgIzUrALKBqGihMe73bvGvJgBildYlv9/e9fWI8dxnb9T3TO7S1JayyIYxUZgae1YgGP7D+TdhpwgyEMAB0aQ5AfkNflTQV5iwKYRwfFTACNxFMAPdmRJlMkNV5JFiaRJLmdnuk4e6nbq0j3dMz3LXbIPsZy+VNf11FfnnKo6JUUAd98TKH2NbiuXd3WALJdZFtIO6J7lVknnT5EipgnHBVx0kAzUNUURmmMNi0uBqEVCKx9z0H1fIg/vcmzkuI0I1n8l211ilLdvehWwRwDlKM04NBJG8FRU5uPA5RL9nRd5AZiu+40sNRfbd03YNjltV6A+BqUnVg6lwWq4ZOCoYrqEmR3SqMn5g8NSNRwoHhB0USnKpkAgMAbbXkuaJDnJZ5hCnwJsBJRx9OWsFHpi6uCnHEcpxjHask+p16fjMF2OybJutlcgd0fpIo42qdPRJelBRdpsb7j4TaW3UlhOt/K1hN2UxmEkB4YJYBIjtvVdpuYu2F83rK02qdGfyNjj+yyO/ia9cpzu+wQwS+piq245Cq2Tw3rGkChz646SvijkMaAwcD1PgDkQLM02oLt3T6Ab7Rvz3r17eHp6iocPH+L4/47N6WnMuHrtCg6/cGgOMwKioZPRUyw+N7leDAGWO4csQhmbUltgaa7gPHPXJTH0zUfWlzYae8IBGXJ8G564fCF/MRI6DY9Dqrgp0Hdlqf08q80pOQQ0ednr0XNHgyVLrRv8wz/+E/SDB4BVxbBcAZrxq1/+Em/f/AmwtwecPsGfvvVd/P3f/S0OXzkMJwtGZJujy/CYDrdZ2P5c4rtFFxfYdZbpGYPnSVKO3V5mGZ/8tjC20NWjCYrSno0D6INPrj3cIMZRXtLP4/sSquajsFvvWoDPHnnbjqRN1Whj5l5uMukETJTrYdO8tI1jWVMneXyeaQBYmppQRPjrv/wLLJ4u0MA04G/f+wAf/OZ9vHT4Mv7k29/E/sEB5vt7+NKXv4S9/T3vbdgfA+oN1UbNLfvi7kt9RYsQupWiaII/nWdBJbU39Q98LkYB2xlyMAq1U7Jhl6hwVLxLYiOSoNbTMrgmtqG1OWLtc09w6srJiGDVlpe0ncdO9yLT8AkeUvjz7/0ZoBmNFcT+6z9+jmql8Yd/9GX81fe/Dw3GbG+O5WqF+WzmVe6i2n3ZzIATPVMaAs4TTTQmdYBlQLEw42jY88rBAQjACoAmA4S6abA3m+Pll19CNZ8ZtbtSOFueYdWsAKT+GDdj9V12kkEzj70z0TUScPg/MhKtj7xzjNmqgracdRmBpAQjHZhEk4k2UPue6rbaoR5hdk+Sj9dqO10GY/n4HIqzDWtcdpmoHSwJcDPYBMAcVuSW/tqnFCZqaqWgSHnnsQwGWBu/cqSsKmdVN3K2QLe3t6UabR7CbZ/DaIdQiMmXjeQsrZzokSm3T/2Q+N8GLQSStloDzw4wvUPT7LscxEpRK8SOTWInJz0osy3bCkk+L9l9iyramvxS4aXxCES+ZhgETYBWxgFwGNKCe+A0VkqWeuWl77LMiTzZlRwhWA/kKqaThJe2vlJ8DFCyRz1im8KXY83ztMWR13L5WRddZsDsVsOdbRGAXGdIBMOM1gZpzvetoOyUrbZbi7RmEAG1UmDj+B7SgM6ZtNmeB/9Fycq9UQsk4EMxS4frMPvqsK07zz0lM9HpneebsLyqP9uXpik8wPnr8Hb9AnsK2YsftRcjCcLp9yhPTnR5SndZdoOppvhICeqso5jPQjBh5YxHxbbSiV8uNAuVRw35XjJOGnOEjXHk7n3beeuSfFOPSOsm3EpDxg6ycaFIrQ/SQaKjdFUSKWevfJ6rcqLzIj8MTEbLic6RNj6wLIW+5Ljl0lfPbpP9RM8XWel+wsqJzpP6g6W3H1r7FZOxY5IY6QG/zCQW4421sT9zD7WEbEZ5HmM7X3yE/YuL9CUpTqqR/rpLXbe/0YGW8ln6rTeIJbqvG5SZLGDmXLV+4A5JEMj4BPBxC5tAryYvWe7s8wFo3paUq/vAqzLeNQmMa+BvpRelZwyTLC1gmrWSDiXNtbK//p0Lb4lBSaWmx7yG5+F3d82QWpAiex/kovQQpvTli0KJ6TiyVfZVh7sAIY9CTi6mxsIQU5w2J2+78+L+FGABk8Txx3GcrSTtwVtSKRZ58mhu9eycMrMf9Rw5NiSZi+cdNLfyZ1kys/v7UWrOdZcuSXNs8Aol4uz5884O7dQ139O3BTZrqY6vGGLtbswr6TxMGl2Joyi6HrDZtRRwg8L2/4SS32dLFyMXu6ftPaUnGmq6p3l0SjetjgbK8temEy1TSd6/YJSCT9TOPawUXTW4u+GuQFk+Zc76r0KI4yt8k9uiOikfmO2VNXW9uJx3cWgYWAqRkYFoEXcEKVvZetIwUeLmWab3jYCYnulTTz0yfdrJMOrtUuNHvTFlbtPkgMiBFTqHEsprMG3SkhaSWYo51NG66veKuAPzlkqV/jPjZe+lkbglkjaglO9Z3nSQfy2AEo4bXZ9rcXPtG+tFkfHOk0J7DPOU7hrNjpqOtbR9pu2fM5zLxPzSIbGWkKxPp7Itpo1RS0A5UEW2ttdS2XLKuvvOaKhxodw621MfwT3FgBQwS74rszjEt9Lu5YGRw72ygVRrU7spRMqk3jxtExnBnFIZpSnyAEiXHTLdAYaHdAmI1Vbi+mGkxx7E9ZgCpikUyT4aAeZFGnYvM8Vc3c9Tur+n6NZLlwS/5Dz6tnXng3tkOb8VuIY0+kDdPEOmtBda5t2F/6u27LTY09rCFwWbkYULRt7fi+NoISslSTN952V4KelxFhzEdiIGgW1yyn1rtqm3AaBCE0cc3spOa0tZoLCc2UmxqfzogDmKuVCWsIuNxJMY4icak/pIlr0+F88SlWxc6kKEUs8ZKGmK7+KdFK7XumcvJjOW1Wvyv33avcgz7q+lWiP9ggrhR2oOtmJs1PZeOu1KZDi3p2uU2/SWUn+alO1nS4PBsgAl4dlOW1Eqam3v0BGmR/xebEn/XLQvJmCuVaF7VkkmkxVV5PybFChzcLYPN9nS488Nd1qQhMy+bd2Wbvx9egCbrLe2IzeymCYN+5nRYE/pkgEKSuvA6CgweIcW7Rm3xRwzDnwZe4Jfb+f+OcZ2o0FnYj16P4TaJ6SM9AyjkuycJb0mrfSExFL4Pgtk0rQlLkV57xFPFoeoMrlcJ1Iss3EyIDWljCOPL+nYYutVVyGmmvqijfYAe2EhJF5OlykuF9kSsBIfcwe7O6tl395mzVwv3hg/Og10/kviN+4oG3viL4kXWeNSq+rlZpFHA0wYwFSMBDjt+y1HdrfI2KTEEaCl4QBE4NmnjGlfja1Z5cyvBUyG94Dj78H+18XfVTWp2uk5KfIq5VvATLwkdcMIar8ML/PlUMYAEKF1jy3LlrUOYdj8+VVjPcolMx+0K4oeCjiGXPge2Ekyt33C7HfHxTvJgB4tVsjcBJjb0laSJZAzbH91IZUzLgblcvNuOIxg+Vf255Zq6AuU3p1YMQaf6rCMFtLeuEY4x67SQNcmNaUg2a7jxHzYWiNdSg3l74ZRm0Qb/spxi1IxgylMyXZl+wAADKRJREFU5XhL0cb5uTj97DLSxovSnVRZGrgnbzDd5LzGs9bw4sUIZ5NHQo2TjNw2VNtQ3HZ27AUlecKhVEKC+ViIdMT+XcEFZzn+jr+xyfcZce1fZCHtVaI5RWaJic6VenlKdyTVOacIpCZHskPgGmHJh+lq9814Yr1KWQwtelceQ1DD++WpbyiPaCFhTsNE2YgvC2VhbdW9LrCInCT2lVMS6c3P8JQk8HXlL8pyvkwBB02FpEvTpKQVx1EAmY7ieUuHUIele2ufVkH8DfJrWlaKwhAomOYdUDoTD6UxdNRL4dp9YdY4M7pd1UwIuxmFFmoFSweK4T62v7ihPQNFitmlDRDd89LCE46u0xRKUNaTOGZBEs/K4GKHByHSeAmtLYHOvAWHIwzrJFnJhAlMwcGItpnjPKIobimpuGdK2N2i0tjIpFrnXoYBj/IPs7ikQmnscK5Cc2zh7H8BJVFo39oEaM0AMzQzNAMNG9B0ExyZT3eBjo63wqmicVjNIe6G2dQ1m/DMpu7ZIZG7TkTWPtBUqkqCXVwPsuUJNRMPgpS0S1xHLqgG0JDZEOIAk1h8sCavE60jU+Odang0onE4VMI0YL71So72ngEKo3KIv0vuFDno43a7BwXJWOYzBprMhCDu3YDRnnx5aEiDe0CwnbsVgKUAV4gnSo4tTmhzoQrt48sQPslzbcFBhstzFw80/qmsG/euCCxR66aPs1tG2B2WDpmZXMdycGmZNbbjs3vTeMnVgH5YcUlxxXP0uUi0zBBuYkbWr5s8UmKYiBwYJnXqvSJyXl9+AogY2v5JBi/2z4kGUFyD2zvSEO0jZY2JOshJl6z9ozEYmchIpiFOtvZK2LmfNjn/4pIT7jx4FSmWtbx01sGIEv+yGiGMYUIupun7RzKY5DkTd2JLpv10omdAW03weI7s03ocK2Hm0UVv9t3AvmP8oCKOR26GXabl5Rca4oD5AhAFMPOgmeG9HKo5flqQCpPLkIaQgN1nu6ir1FySv5W/JkdeNhUAm/emiXZNPcEyPnGQrW7gFmozGFAUzbxqraGUAgjQWgdgKHsyXZf8Zt8NInt6JSkQFLhhcKOhG41ZPcPibAFSytgY4ToTx8BEkcIFkHMsy+KRmQVXgD/kza0rdGE4ig+9Z3YBoFIKqqrMDQN1VaMiE79udEE9Lun5SWoc8gIA0Ay9stY2zb1WP6Tmj3Y0ikVCIkCRORTvTGusGo26qjNpSwKN240TDQ2i0M55hnYoqZSxjwJwGxFAHVlsyXV8H3LWNA1qVfv2rkhBAdAgv26eWBWhUlKYB+SoqVzbFGYQJhqRBq+zZGZ8+OFtNE0DB5gnJyf47MEDXPv0d7h16xZmsxmWqzNcuXoFr732GmazGVZNA621B4VhMk5P6XVjspYtzVCkUKsKp6dPcff4LvRK48rVK3j8+DFUVYMUCUnEdjDHrEowre1syoiQvq8SCKvlCqw1KqXAdhLDSZqRjct3jn7EzFCqQlVVqCoFRYTF01N8dHICEEGvtFmuxBSptlLVJVsPkpTr1I4046OTu2YwaF3bWaplmdnOksC1ibLgr5nx6MkTHB8fo65mnWn60zKzhII+pLUGa+Dko4+xXGmAVFgs7sJS+n03JXJteG4HqLqqAM24f/8+ju8cY6WAhQIaW4ckps2d9CmlXgPy1ugJAFqDNeOTTz7B2dkZtBZrBiZb2OjUEyxFZ2HGj2/+GE+ePIXr2LfvHOPOnWP87rPPcbZcYj6fY3G2wNHRG3jre2/h+vXrZkazaSB5sY0Nz39ctO7iiIyEoYD7Dx/iJ2//Gw4PD7E3n2NxdgY3Zc6gMlhaydIduUEg6ylHdCMirJZLMID5fG7tY2ydvPbfxJZOdIDsDK/WQLPC3sEBrl67il+9+y7+9Yc/hKoqsGYsnp4ZjU6ouEDiYFbH3Z4SsFQAFounoLrG9evXoVSFYqu1gk0fmc28V6rCrK5RVQonn36KH928CTCbQSZOyH8X3JrJ9FP0MPf3Pr2H5dkC8/ks04LZx2XjWTNmt5VqPp+BG41rL10FKcIv3nkHDx4+xIoIZ5WZYAoe2thLjk5S5NBKom4Yioxk/9n9z/F0scCNP7hRkHDj34k2p41slrdu38bvf//YzrgSPn/4ENCMx0+e4Nfvvof5fIbHi1McfuEQjx49wt7+PiqrkntVHh0NeN6jIgNKEWbzOZ40K+zt7+HVV1/B//72Q8zrGorIgL3Wfr2fFvl0YKn8vXlJBFQIM7KO+c+WS3zzza/jK6+/jmsvvQSlKgOYITuIdNtSfbBV9USdEgGaNXTDOLhygKOjI7z//gf4+S/+Gwd7+9BaY3G2jO2ANgG3lhEASCez4RQDfl1VuLq/j2+8+XV869vfwv6VgxYsWgctbYUThQTj8PAQf/y1r+Hk44/xn//zDhSpxN4txWIJkZLLhNLOZr571Wg0jcbR0VfwxVdfhaqsZEcBKL1bDe9wo1AEhGbIAZOhKgVShKOvHuHW0ev49W/ew8NHj7AiwkIBZwQ07FsCCmz6VmSglfxgclKrCpVSmM1qfOPNN/Hd73zHhMytKJOkOQLRP9+5WeTo1Agd1nhZpuNg3/n3n/0Mb//0p/jq0RH+5gc/QD2rwQQsmxVAQFVVxt6HWP0Onl5i4pbrYj4xgA+i5MLyF7OTBrYTmg5U1zXmszlWq8Z3zEY30G4tHolYLGbJg9oMXsZOGVxY3TQgIly9dg2np6dotDbqLIJ6r525wks5hbKzU/shymI6klT9qqpCs1rZyR8TOqvjSLJM0qG8jokNMDdaGzAg8kwipe5tiC2PVVSByDiaIFJomgaNbkTAWLKMrjucFxCMbZ2Uwt58D8vl0r0IZfFAyW3RQNZOKgMaU4wCNw32UKFqNJbLFWazPWgCVmSXRXnwF1Ilp7GK8hGbemg0iAiz2QzzvTkWy0Vch4XqWddnsm8mAtAmWUpdWVBowPi5UgqzusasrlHXNaq6RqPNxEhQiYZZKd0oTeI+T3kgOXUHLk9WCqxMuTQbFbq2EyTL1VJ8xyBFkS0pitjGGU2EWPVapkhsBg8AOH1yCrbqFCiWLEkcMwzxXKaY7ilnAKxsV7PYpcHQdtAKGQ92LY67oCEVUiVbjpTMgnlCVSkvCcthcHPKS6whbN1spHsolQRLOYQRxUXinbcNk2+L5fJMRGcHm0jKbCtT2kdsO8u3WkOB0JjtVVDzGTS0WTdqAyovHMs8x+2QLuBXVQ2qXB0xnp4tOncsTbQddXtKT3WOgcNNunUspS6nr+63FGRbwMzSCtjhx4LUeujBXuywSWIp5jd9ZuS+ZMF4WtVAuXNGOJwCQUEiT+J1uzrSAahr+bIfUDh+G7OGhQcqvd2gtaQW4+3ELWm7p5zcF4ezIB0SF3YAQXJrsHmykDLLS/2TtAITCQazWkWSjzh9CmGTeFO7ZWufWnM/0ea0/aL0DWnnp0AOpkQuykCVs3Bl6gcOKbBF92uA0twzmOPFIiVglp+W1qR3dz0XhhKgLnX0FM7GEXFI/C9zFN9xZ3IEZB7K3MCXhgnxWanSmxacZJsCZlp3ok2SkapUb5w1TqGRWlJKg3Z/PdG2NDpYMpDMVHaHvVAU7X6hQgd0Ekw/lawtSNErdimt7CqJiIR01FGZqYKQS2FdlCqWpThKcY0HmHkapcTby1GSjoMUnISxd6ltPUh268rUXu5OxSw1kXTEXrqOnk2q+E5oS7C0yo0GGm2M7/PZHMvVyo/KbjJkW2D0NqCihLBl5HCdaV1EhqPpghqGqAjw8j1a3eqti1lGHPb7C9l1K798UmztETpZYlVyqpHFfs67xc6DQwzLSrvmJduhdcloO7D0SEWoVIW6ntlZSzsaW7XDLbbelIPEgJ90W5GNrYk6QcTs5eY1QDPCqLANEXKPQYUwgymJM0hpuW1t27jXU66YOxvksBh2T+cFmI44E58nGpM2OW4kI+ewQSlldxFMNNFEEz1fNApYfvGVV3D0xhu4cePGJXCOMdFEE000nOhfbv+oiG7GzkPxvTRvWzXMOLNVZveINgu62a4nsxujhTNtYfeyM45d0OpsbFm+BI0FzX1Upn4DQbocJTc/xGvp0GJpCsbZ9nn4pH14/fRDMq/Rk/JYo7qIjo7MZlEGxZuHyCovXx7Tp13WhIn4zPElwbePnLbprGXuMwlUzMEG35SSX18XvXh9+6w8d1QrNMUXub0+Z1pnYDb7Wi1DqeAdnZJV01mUG0ihpYYeo2F7seqOJndzSxNHP2umLgbRWEVot90OAcsNqMeqqhKtndQqvi+tqe0TzbObABxnYdsEliX6f2TAVgEfU2i7AAAAAElFTkSuQmCC;" vertex="1" parent="1">
          <mxGeometry x="400" y="300" width="331" height="169" as="geometry" />
        </mxCell>
        <mxCell id="Nc6yNPLuVAvdkW_GlvrS-3" value="Sinal Digital" style="text;html=1;strokeColor=none;fillColor=none;align=center;verticalAlign=middle;whiteSpace=wrap;rounded=0;fontSize=14;" vertex="1" parent="1">
          <mxGeometry x="510" y="260" width="100" height="30" as="geometry" />
        </mxCell>
        <mxCell id="Nc6yNPLuVAvdkW_GlvrS-4" value="Sinal AnalÃ³gico" style="text;html=1;strokeColor=none;fillColor=none;align=center;verticalAlign=middle;whiteSpace=wrap;rounded=0;fontSize=14;" vertex="1" parent="1">
          <mxGeometry x="140" y="200" width="110" height="30" as="geometry" />
        </mxCell>
      </root>
    </mxGraphModel>
  </diagram>
</mxfile>
